SplineFontDB: 3.2
FontName: mlyalm5m
FullName: mlyalm5m
FamilyName: mlyalm5m
Weight: Regular
Copyright: Copyright 2022 The Noto Project Authors (https://github.com/notofonts/malayalam)
Version: 2.103
ItalicAngle: 0
UnderlinePosition: -125
UnderlineWidth: 50
Ascent: 800
Descent: 200
InvalidEm: 0
sfntRevision: 0x00021a5e
LayerCount: 2
Layer: 0 1 "Back" 1
Layer: 1 1 "Fore" 0
XUID: [1021 467 -1121320856 7943623]
StyleMap: 0x0040
FSType: 0
OS2Version: 4
OS2_WeightWidthSlopeOnly: 0
OS2_UseTypoMetrics: 1
CreationTime: 1634401886
ModificationTime: 1716715362
PfmFamily: 81
TTFWeight: 400
TTFWidth: 5
LineGap: 0
VLineGap: 0
Panose: 0 0 0 0 0 0 0 0 0 0
OS2TypoAscent: 864
OS2TypoAOffset: 0
OS2TypoDescent: -383
OS2TypoDOffset: 0
OS2TypoLinegap: 0
OS2WinAscent: 864
OS2WinAOffset: 0
OS2WinDescent: 383
OS2WinDOffset: 0
HheadAscent: 864
HheadAOffset: 0
HheadDescent: -383
HheadDOffset: 0
OS2SubXSize: 650
OS2SubYSize: 600
OS2SubXOff: 0
OS2SubYOff: 75
OS2SupXSize: 650
OS2SupYSize: 600
OS2SupXOff: 0
OS2SupYOff: 350
OS2StrikeYSize: 50
OS2StrikeYPos: 332
OS2CapHeight: 714
OS2XHeight: 554
OS2Vendor: 'GOOG'
OS2CodePages: 00000093.00000000
OS2UnicodeRanges: 80808043.00002042.00000000.00000000
Lookup: 1 0 0 "Single Substitution lookup 0" { "Single Substitution lookup 0 subtable"  } []
Lookup: 1 0 0 "Single Substitution lookup 1" { "Single Substitution lookup 1 subtable"  } []
Lookup: 1 0 0 "Single Substitution lookup 2" { "Single Substitution lookup 2 subtable"  } []
Lookup: 1 0 0 "Single Substitution lookup 3" { "Single Substitution lookup 3 subtable"  } []
Lookup: 1 0 0 "Single Substitution lookup 4" { "Single Substitution lookup 4 subtable"  } []
Lookup: 1 0 0 "Single Substitution lookup 5" { "Single Substitution lookup 5 subtable"  } []
Lookup: 1 0 0 "Single Substitution lookup 6" { "Single Substitution lookup 6 subtable"  } []
Lookup: 1 0 0 "Single Substitution lookup 7" { "Single Substitution lookup 7 subtable"  } []

StartChar: exclam.mlym
Encoding: 33 33 3
Width: 1495
Flags: W
LayerCount: 2
Fore
SplineSet
719.5 201 m 1,0,-1
 694.5 714 l 1,1,-1
 801.5 714 l 1,2,-1
 776.5 201 l 1,3,-1
 719.5 201 l 1,0,-1
747.5 -12 m 256,4,5
 719.5 -12 719.5 -12 702.5 5 c 128,-1,6
 685.5 22 685.5 22 685.5 56 c 0,7,8
 685.5 88 685.5 88 701.5 106 c 128,-1,9
 717.5 124 717.5 124 747.5 124 c 0,10,11
 776.5 124 776.5 124 793 106 c 128,-1,12
 809.5 88 809.5 88 809.5 56 c 0,13,14
 809.5 23 809.5 23 792.5 5.5 c 128,-1,15
 775.5 -12 775.5 -12 747.5 -12 c 256,4,5
EndSplineSet
Validated: 524289
EndChar

StartChar: quotedbl.mlym
Encoding: 34 34 4
Width: 1495
Flags: W
LayerCount: 2
Fore
SplineSet
629.5 542 m 1,0,-1
 604.5 800 l 1,1,-1
 715.5 800 l 1,2,-1
 690.5 542 l 1,3,-1
 629.5 542 l 1,0,-1
804.5 542 m 1,4,-1
 779.5 800 l 1,5,-1
 890.5 800 l 1,6,-1
 865.5 542 l 1,7,-1
 804.5 542 l 1,4,-1
EndSplineSet
Validated: 524289
EndChar

StartChar: numbersign.mlym
Encoding: 35 35 5
Width: 1495
Flags: W
LayerCount: 2
Fore
SplineSet
536.5 0 m 1,0,-1
 576.5 209 l 1,1,-1
 449.5 209 l 1,2,-1
 449.5 276 l 1,3,-1
 589.5 276 l 1,4,-1
 620.5 436 l 1,5,-1
 486.5 436 l 1,6,-1
 486.5 503 l 1,7,-1
 632.5 503 l 1,8,-1
 672.5 714 l 1,9,-1
 744.5 714 l 1,10,-1
 704.5 503 l 1,11,-1
 846.5 503 l 1,12,-1
 886.5 714 l 1,13,-1
 958.5 714 l 1,14,-1
 918.5 503 l 1,15,-1
 1045.5 503 l 1,16,-1
 1045.5 436 l 1,17,-1
 905.5 436 l 1,18,-1
 875.5 276 l 1,19,-1
 1010.5 276 l 1,20,-1
 1010.5 209 l 1,21,-1
 862.5 209 l 1,22,-1
 822.5 0 l 1,23,-1
 750.5 0 l 1,24,-1
 790.5 209 l 1,25,-1
 648.5 209 l 1,26,-1
 608.5 0 l 1,27,-1
 536.5 0 l 1,0,-1
660.5 276 m 1,28,-1
 803.5 276 l 1,29,-1
 833.5 436 l 1,30,-1
 691.5 436 l 1,31,-1
 660.5 276 l 1,28,-1
EndSplineSet
Validated: 524289
EndChar

StartChar: percent.mlym
Encoding: 37 37 6
Width: 1495
Flags: W
LayerCount: 2
Fore
SplineSet
511 0 m 1,0,-1
 907 714 l 1,1,-1
 984 714 l 1,2,-1
 588 0 l 1,3,-1
 511 0 l 1,0,-1
527 276 m 0,4,5
 457 276 457 276 419 334 c 128,-1,6
 381 392 381 392 381 501 c 0,7,8
 381 613 381 613 417.5 669 c 128,-1,9
 454 725 454 725 527 725 c 0,10,11
 599 725 599 725 638 667 c 128,-1,12
 677 609 677 609 677 501 c 0,13,14
 677 390 677 390 639 333 c 128,-1,15
 601 276 601 276 527 276 c 0,4,5
527 339 m 0,16,17
 566 339 566 339 585 379.5 c 128,-1,18
 604 420 604 420 604 501 c 0,19,20
 604 581 604 581 585 621.5 c 128,-1,21
 566 662 566 662 527 662 c 0,22,23
 489 662 489 662 471.5 621.5 c 128,-1,24
 454 581 454 581 454 501 c 256,25,26
 454 421 454 421 471.5 380 c 128,-1,27
 489 339 489 339 527 339 c 0,16,17
964 -12 m 0,28,29
 895 -12 895 -12 856.5 46 c 128,-1,30
 818 104 818 104 818 213 c 0,31,32
 818 325 818 325 854.5 380.5 c 128,-1,33
 891 436 891 436 964 436 c 0,34,35
 1036 436 1036 436 1075 378 c 128,-1,36
 1114 320 1114 320 1114 213 c 0,37,38
 1114 101 1114 101 1076 44.5 c 128,-1,39
 1038 -12 1038 -12 964 -12 c 0,28,29
964 51 m 0,40,41
 1003 51 1003 51 1022 91 c 128,-1,42
 1041 131 1041 131 1041 213 c 0,43,44
 1041 293 1041 293 1022 333 c 128,-1,45
 1003 373 1003 373 964 373 c 0,46,47
 926 373 926 373 908.5 333 c 128,-1,48
 891 293 891 293 891 213 c 0,49,50
 891 131 891 131 908.5 91 c 128,-1,51
 926 51 926 51 964 51 c 0,40,41
EndSplineSet
Validated: 1
EndChar

StartChar: quotesingle.mlym
Encoding: 39 39 7
Width: 1495
Flags: W
LayerCount: 2
Fore
SplineSet
717 542 m 1,0,-1
 692 800 l 1,1,-1
 803 800 l 1,2,-1
 778 542 l 1,3,-1
 717 542 l 1,0,-1
EndSplineSet
Validated: 1
EndChar

StartChar: parenleft.mlym
Encoding: 40 40 8
Width: 1495
Flags: W
LayerCount: 2
Fore
SplineSet
633 283 m 0,0,1
 633 379 633 379 649 471 c 128,-1,2
 665 563 665 563 698 646.5 c 128,-1,3
 731 730 731 730 780 800 c 1,4,-1
 862 800 l 1,5,6
 816 727 816 727 785 642 c 128,-1,7
 754 557 754 557 738 466 c 128,-1,8
 722 375 722 375 722 282 c 256,9,10
 722 189 722 189 737 97 c 128,-1,11
 752 5 752 5 783.5 -81 c 128,-1,12
 815 -167 815 -167 862 -244 c 1,13,-1
 780 -244 l 1,14,15
 731 -172 731 -172 698 -87 c 128,-1,16
 665 -2 665 -2 649 92 c 128,-1,17
 633 186 633 186 633 283 c 0,0,1
EndSplineSet
Validated: 1
EndChar

StartChar: parenright.mlym
Encoding: 41 41 9
Width: 1495
Flags: W
LayerCount: 2
Fore
SplineSet
862 273 m 0,0,1
 862 177 862 177 846 85 c 128,-1,2
 830 -7 830 -7 797.5 -90 c 128,-1,3
 765 -173 765 -173 715 -244 c 1,4,-1
 633 -244 l 1,5,6
 679 -170 679 -170 710 -85.5 c 128,-1,7
 741 -1 741 -1 757 90 c 128,-1,8
 773 181 773 181 773 274 c 256,9,10
 773 367 773 367 758 458.5 c 128,-1,11
 743 550 743 550 712 636.5 c 128,-1,12
 681 723 681 723 633 800 c 1,13,-1
 715 800 l 1,14,15
 765 728 765 728 797.5 643 c 128,-1,16
 830 558 830 558 846 464.5 c 128,-1,17
 862 371 862 371 862 273 c 0,0,1
EndSplineSet
Validated: 1
EndChar

StartChar: asterisk.mlym
Encoding: 42 42 10
Width: 1495
Flags: W
LayerCount: 2
Fore
SplineSet
797.5 800 m 1,0,-1
 776.5 608 l 1,1,-1
 968.5 662 l 1,2,-1
 982.5 568 l 1,3,-1
 795.5 554 l 1,4,-1
 917.5 395 l 1,5,-1
 830.5 348 l 1,6,-1
 747.5 528 l 1,7,-1
 665.5 348 l 1,8,-1
 577.5 395 l 1,9,-1
 698.5 554 l 1,10,-1
 512.5 568 l 1,11,-1
 526.5 662 l 1,12,-1
 718.5 608 l 1,13,-1
 697.5 800 l 1,14,-1
 797.5 800 l 1,0,-1
EndSplineSet
Validated: 524289
EndChar

StartChar: plus.mlym
Encoding: 43 43 11
Width: 1495
Flags: W
LayerCount: 2
Fore
SplineSet
711.5 111 m 1,0,-1
 711.5 317 l 1,1,-1
 512.5 317 l 1,2,-1
 512.5 388 l 1,3,-1
 711.5 388 l 1,4,-1
 711.5 595 l 1,5,-1
 783.5 595 l 1,6,-1
 783.5 388 l 1,7,-1
 982.5 388 l 1,8,-1
 982.5 317 l 1,9,-1
 783.5 317 l 1,10,-1
 783.5 111 l 1,11,-1
 711.5 111 l 1,0,-1
EndSplineSet
Validated: 524289
EndChar

StartChar: comma.mlym
Encoding: 44 44 12
Width: 1495
Flags: W
LayerCount: 2
Fore
SplineSet
817 116 m 1,0,-1
 824 105 l 1,1,2
 815 70 815 70 801 29.5 c 128,-1,3
 787 -11 787 -11 771 -51.5 c 128,-1,4
 755 -92 755 -92 738 -129 c 1,5,-1
 671 -129 l 1,6,7
 681 -89 681 -89 690 -45.5 c 128,-1,8
 699 -2 699 -2 707 40 c 128,-1,9
 715 82 715 82 720 116 c 1,10,-1
 817 116 l 1,0,-1
EndSplineSet
Validated: 1
EndChar

StartChar: hyphen.mlym
Encoding: 45 45 13
Width: 1495
Flags: W
LayerCount: 2
Fore
SplineSet
626.5 227 m 1,0,-1
 626.5 309 l 1,1,-1
 868.5 309 l 1,2,-1
 868.5 227 l 1,3,-1
 626.5 227 l 1,0,-1
EndSplineSet
Validated: 524289
EndChar

StartChar: period.mlym
Encoding: 46 46 14
Width: 1495
Flags: W
LayerCount: 2
Fore
SplineSet
747.5 -12 m 256,0,1
 721.5 -12 721.5 -12 703.5 4 c 128,-1,2
 685.5 20 685.5 20 685.5 56 c 0,3,4
 685.5 94 685.5 94 703.5 109 c 128,-1,5
 721.5 124 721.5 124 747.5 124 c 256,6,7
 773.5 124 773.5 124 791.5 109 c 128,-1,8
 809.5 94 809.5 94 809.5 56 c 0,9,10
 809.5 20 809.5 20 791.5 4 c 128,-1,11
 773.5 -12 773.5 -12 747.5 -12 c 256,0,1
EndSplineSet
Validated: 524289
EndChar

StartChar: slash.mlym
Encoding: 47 47 15
Width: 1495
Flags: W
LayerCount: 2
Fore
SplineSet
572 -244 m 1,0,-1
 838 800 l 1,1,-1
 923 800 l 1,2,-1
 657 -244 l 1,3,-1
 572 -244 l 1,0,-1
EndSplineSet
Validated: 1
EndChar

StartChar: zero.mlym
Encoding: 48 48 16
Width: 1495
Flags: W
LayerCount: 2
Fore
SplineSet
747 -12 m 0,0,1
 670 -12 670 -12 617 30 c 128,-1,2
 564 72 564 72 537.5 154.5 c 128,-1,3
 511 237 511 237 511 357 c 0,4,5
 511 482 511 482 536.5 563.5 c 128,-1,6
 562 645 562 645 614.5 685 c 128,-1,7
 667 725 667 725 747 725 c 0,8,9
 824 725 824 725 877 683 c 128,-1,10
 930 641 930 641 957 559.5 c 128,-1,11
 984 478 984 478 984 357 c 0,12,13
 984 264 984 264 969.5 194.5 c 128,-1,14
 955 125 955 125 925.5 79.5 c 128,-1,15
 896 34 896 34 851.5 11 c 128,-1,16
 807 -12 807 -12 747 -12 c 0,0,1
747 63 m 0,17,18
 797 63 797 63 827 89.5 c 128,-1,19
 857 116 857 116 872 159 c 128,-1,20
 887 202 887 202 891.5 254 c 128,-1,21
 896 306 896 306 896 357 c 0,22,23
 896 407 896 407 891 458 c 128,-1,24
 886 509 886 509 870.5 553 c 128,-1,25
 855 597 855 597 825.5 623.5 c 128,-1,26
 796 650 796 650 747 650 c 0,27,28
 696 650 696 650 666.5 623.5 c 128,-1,29
 637 597 637 597 622.5 553.5 c 128,-1,30
 608 510 608 510 603.5 458.5 c 128,-1,31
 599 407 599 407 599 357 c 0,32,33
 599 299 599 299 604.5 246 c 128,-1,34
 610 193 610 193 625.5 151.5 c 128,-1,35
 641 110 641 110 670 86.5 c 128,-1,36
 699 63 699 63 747 63 c 0,17,18
EndSplineSet
Validated: 1
EndChar

StartChar: one.mlym
Encoding: 49 49 17
Width: 1495
Flags: W
LayerCount: 2
Fore
SplineSet
880.5 0 m 1,0,-1
 794.5 0 l 1,1,-1
 794.5 499 l 2,2,3
 794.5 540 794.5 540 795.5 570.5 c 128,-1,4
 796.5 601 796.5 601 797.5 622 c 1,5,6
 790.5 615 790.5 615 781 606 c 128,-1,7
 771.5 597 771.5 597 759.5 587 c 2,8,-1
 660.5 505 l 1,9,-1
 614.5 564 l 1,10,-1
 807.5 714 l 1,11,-1
 880.5 714 l 1,12,-1
 880.5 0 l 1,0,-1
EndSplineSet
Validated: 524289
EndChar

StartChar: two.mlym
Encoding: 50 50 18
Width: 1495
Flags: W
LayerCount: 2
Fore
SplineSet
511.5 0 m 1,0,-1
 511.5 73 l 1,1,-1
 698.5 262 l 2,2,3
 751.5 316 751.5 316 788 358 c 128,-1,4
 824.5 400 824.5 400 844 440.5 c 128,-1,5
 863.5 481 863.5 481 863.5 529 c 0,6,7
 863.5 567 863.5 567 848 594 c 128,-1,8
 832.5 621 832.5 621 804 635.5 c 128,-1,9
 775.5 650 775.5 650 737.5 650 c 0,10,11
 684.5 650 684.5 650 647.5 632.5 c 128,-1,12
 610.5 615 610.5 615 566.5 582 c 1,13,-1
 519.5 641 l 1,14,15
 553.5 669 553.5 669 588.5 687.5 c 128,-1,16
 623.5 706 623.5 706 661 715.5 c 128,-1,17
 698.5 725 698.5 725 737.5 725 c 0,18,19
 800.5 725 800.5 725 849 703.5 c 128,-1,20
 897.5 682 897.5 682 925.5 639.5 c 128,-1,21
 953.5 597 953.5 597 953.5 534 c 0,22,23
 953.5 478 953.5 478 930 428.5 c 128,-1,24
 906.5 379 906.5 379 865.5 331 c 128,-1,25
 824.5 283 824.5 283 771.5 231 c 2,26,-1
 622.5 84 l 1,27,-1
 622.5 80 l 1,28,-1
 983.5 80 l 1,29,-1
 983.5 0 l 1,30,-1
 511.5 0 l 1,0,-1
EndSplineSet
Validated: 524289
EndChar

StartChar: three.mlym
Encoding: 51 51 19
Width: 1495
Flags: W
LayerCount: 2
Fore
SplineSet
709 -12 m 0,0,1
 650 -12 650 -12 600.5 -2 c 128,-1,2
 551 8 551 8 512 27 c 1,3,-1
 512 109 l 1,4,5
 558 87 558 87 610 74.5 c 128,-1,6
 662 62 662 62 710 62 c 0,7,8
 800 62 800 62 845.5 98 c 128,-1,9
 891 134 891 134 891 204 c 0,10,11
 891 246 891 246 868.5 274.5 c 128,-1,12
 846 303 846 303 802 317 c 128,-1,13
 758 331 758 331 691 331 c 2,14,-1
 622 331 l 1,15,-1
 622 406 l 1,16,-1
 692 406 l 2,17,18
 749 406 749 406 789 422.5 c 128,-1,19
 829 439 829 439 850 469.5 c 128,-1,20
 871 500 871 500 871 541 c 0,21,22
 871 592 871 592 836 621.5 c 128,-1,23
 801 651 801 651 740 651 c 0,24,25
 687 651 687 651 647.5 636.5 c 128,-1,26
 608 622 608 622 561 591 c 1,27,-1
 517 651 l 1,28,29
 565 687 565 687 620.5 706 c 128,-1,30
 676 725 676 725 739 725 c 0,31,32
 800 725 800 725 850 706.5 c 128,-1,33
 900 688 900 688 930.5 648.5 c 128,-1,34
 961 609 961 609 961 547 c 0,35,36
 961 502 961 502 944 467 c 128,-1,37
 927 432 927 432 894 409 c 128,-1,38
 861 386 861 386 813 376 c 1,39,-1
 813 372 l 1,40,41
 896 362 896 362 939.5 318 c 128,-1,42
 983 274 983 274 983 202 c 0,43,44
 983 125 983 125 946 78 c 128,-1,45
 909 31 909 31 846.5 9.5 c 128,-1,46
 784 -12 784 -12 709 -12 c 0,0,1
EndSplineSet
Validated: 1
EndChar

StartChar: four.mlym
Encoding: 52 52 20
Width: 1495
Flags: W
LayerCount: 2
Fore
SplineSet
824.5 0 m 1,0,-1
 824.5 162 l 1,1,-1
 481.5 162 l 1,2,-1
 481.5 237 l 1,3,-1
 817.5 718 l 1,4,-1
 909.5 718 l 1,5,-1
 909.5 241 l 1,6,-1
 1013.5 241 l 1,7,-1
 1013.5 162 l 1,8,-1
 909.5 162 l 1,9,-1
 909.5 0 l 1,10,-1
 824.5 0 l 1,0,-1
567.5 241 m 1,11,-1
 824.5 241 l 1,12,-1
 824.5 466 l 2,13,14
 824.5 486 824.5 486 825 510.5 c 128,-1,15
 825.5 535 825.5 535 826.5 563.5 c 128,-1,16
 827.5 592 827.5 592 829.5 624 c 1,17,-1
 825.5 624 l 1,18,19
 817.5 605 817.5 605 807 585.5 c 128,-1,20
 796.5 566 796.5 566 782.5 546 c 2,21,-1
 567.5 241 l 1,11,-1
EndSplineSet
Validated: 524289
EndChar

StartChar: five.mlym
Encoding: 53 53 21
Width: 1495
Flags: W
LayerCount: 2
Fore
SplineSet
707 -12 m 0,0,1
 649 -12 649 -12 601 -2 c 128,-1,2
 553 8 553 8 521 27 c 1,3,-1
 521 110 l 1,4,5
 562 87 562 87 613.5 75 c 128,-1,6
 665 63 665 63 708 63 c 0,7,8
 764 63 764 63 803 81 c 128,-1,9
 842 99 842 99 863 134 c 128,-1,10
 884 169 884 169 884 218 c 0,11,12
 884 291 884 291 839 327.5 c 128,-1,13
 794 364 794 364 705 364 c 0,14,15
 678 364 678 364 648 360.5 c 128,-1,16
 618 357 618 357 583 349 c 1,17,-1
 539 377 l 1,18,-1
 565 714 l 1,19,-1
 924 714 l 1,20,-1
 924 634 l 1,21,-1
 641 634 l 1,22,-1
 624 427 l 1,23,24
 654 433 654 433 681.5 435.5 c 128,-1,25
 709 438 709 438 733 438 c 0,26,27
 802 438 802 438 856.5 414.5 c 128,-1,28
 911 391 911 391 942.5 344 c 128,-1,29
 974 297 974 297 974 227 c 0,30,31
 974 148 974 148 940.5 94.5 c 128,-1,32
 907 41 907 41 847 14.5 c 128,-1,33
 787 -12 787 -12 707 -12 c 0,0,1
EndSplineSet
Validated: 1
EndChar

StartChar: six.mlym
Encoding: 54 54 22
Width: 1495
Flags: W
LayerCount: 2
Fore
SplineSet
755.5 -12 m 0,0,1
 691.5 -12 691.5 -12 645 13.5 c 128,-1,2
 598.5 39 598.5 39 569.5 83.5 c 128,-1,3
 540.5 128 540.5 128 526.5 185 c 128,-1,4
 512.5 242 512.5 242 512.5 305 c 0,5,6
 512.5 389 512.5 389 525.5 456 c 128,-1,7
 538.5 523 538.5 523 564.5 573.5 c 128,-1,8
 590.5 624 590.5 624 630 657.5 c 128,-1,9
 669.5 691 669.5 691 722 708 c 128,-1,10
 774.5 725 774.5 725 839.5 725 c 0,11,12
 865.5 725 865.5 725 887.5 723 c 128,-1,13
 909.5 721 909.5 721 927.5 716 c 1,14,-1
 927.5 641 l 1,15,16
 909.5 647 909.5 647 888 650 c 128,-1,17
 866.5 653 866.5 653 841.5 653 c 0,18,19
 764.5 653 764.5 653 712.5 622 c 128,-1,20
 660.5 591 660.5 591 632.5 527 c 128,-1,21
 604.5 463 604.5 463 600.5 363 c 1,22,-1
 606.5 363 l 1,23,24
 624.5 391 624.5 391 650 409.5 c 128,-1,25
 675.5 428 675.5 428 707 437.5 c 128,-1,26
 738.5 447 738.5 447 775.5 447 c 0,27,28
 841.5 447 841.5 447 887.5 419.5 c 128,-1,29
 933.5 392 933.5 392 958 343 c 128,-1,30
 982.5 294 982.5 294 982.5 229 c 0,31,32
 982.5 158 982.5 158 956 103.5 c 128,-1,33
 929.5 49 929.5 49 878.5 18.5 c 128,-1,34
 827.5 -12 827.5 -12 755.5 -12 c 0,0,1
754.5 62 m 0,35,36
 822.5 62 822.5 62 859 106 c 128,-1,37
 895.5 150 895.5 150 895.5 229 c 0,38,39
 895.5 300 895.5 300 860.5 339 c 128,-1,40
 825.5 378 825.5 378 757.5 378 c 0,41,42
 711.5 378 711.5 378 676.5 359 c 128,-1,43
 641.5 340 641.5 340 621.5 310 c 128,-1,44
 601.5 280 601.5 280 601.5 247 c 0,45,46
 601.5 212 601.5 212 612 179 c 128,-1,47
 622.5 146 622.5 146 642 119.5 c 128,-1,48
 661.5 93 661.5 93 690 77.5 c 128,-1,49
 718.5 62 718.5 62 754.5 62 c 0,35,36
EndSplineSet
Validated: 524289
EndChar

StartChar: seven.mlym
Encoding: 55 55 23
Width: 1495
Flags: W
LayerCount: 2
Fore
SplineSet
601 0 m 1,0,-1
 894 634 l 1,1,-1
 508 634 l 1,2,-1
 508 714 l 1,3,-1
 987 714 l 1,4,-1
 987 646 l 1,5,-1
 697 0 l 1,6,-1
 601 0 l 1,0,-1
EndSplineSet
Validated: 1
EndChar

StartChar: eight.mlym
Encoding: 56 56 24
Width: 1495
Flags: W
LayerCount: 2
Fore
SplineSet
750.5 -12 m 0,0,1
 683.5 -12 683.5 -12 629.5 7.5 c 128,-1,2
 575.5 27 575.5 27 543.5 69.5 c 128,-1,3
 511.5 112 511.5 112 511.5 181 c 0,4,5
 511.5 222 511.5 222 528 257 c 128,-1,6
 544.5 292 544.5 292 577.5 321.5 c 128,-1,7
 610.5 351 610.5 351 659.5 373 c 1,8,9
 616.5 398 616.5 398 588.5 425.5 c 128,-1,10
 560.5 453 560.5 453 547.5 485.5 c 128,-1,11
 534.5 518 534.5 518 534.5 555 c 0,12,13
 534.5 614 534.5 614 564.5 651.5 c 128,-1,14
 594.5 689 594.5 689 643.5 707 c 128,-1,15
 692.5 725 692.5 725 747.5 725 c 0,16,17
 803.5 725 803.5 725 852.5 707 c 128,-1,18
 901.5 689 901.5 689 931.5 651.5 c 128,-1,19
 961.5 614 961.5 614 961.5 554 c 0,20,21
 961.5 518 961.5 518 947 487 c 128,-1,22
 932.5 456 932.5 456 902.5 429 c 128,-1,23
 872.5 402 872.5 402 825.5 378 c 1,24,25
 869.5 356 869.5 356 905 329.5 c 128,-1,26
 940.5 303 940.5 303 962 268 c 128,-1,27
 983.5 233 983.5 233 983.5 184 c 0,28,29
 983.5 119 983.5 119 951.5 75 c 128,-1,30
 919.5 31 919.5 31 867 9.5 c 128,-1,31
 814.5 -12 814.5 -12 750.5 -12 c 0,0,1
748.5 59 m 0,32,33
 810.5 59 810.5 59 854 89 c 128,-1,34
 897.5 119 897.5 119 897.5 183 c 0,35,36
 897.5 214 897.5 214 883 239.5 c 128,-1,37
 868.5 265 868.5 265 836.5 287.5 c 128,-1,38
 804.5 310 804.5 310 751.5 330 c 2,39,-1
 732.5 337 l 1,40,41
 685.5 317 685.5 317 655.5 293.5 c 128,-1,42
 625.5 270 625.5 270 611.5 242.5 c 128,-1,43
 597.5 215 597.5 215 597.5 180 c 0,44,45
 597.5 125 597.5 125 636.5 92 c 128,-1,46
 675.5 59 675.5 59 748.5 59 c 0,32,33
751.5 412 m 1,47,48
 795.5 430 795.5 430 822.5 451 c 128,-1,49
 849.5 472 849.5 472 862.5 496.5 c 128,-1,50
 875.5 521 875.5 521 875.5 551 c 0,51,52
 875.5 605 875.5 605 837 629.5 c 128,-1,53
 798.5 654 798.5 654 746.5 654 c 0,54,55
 688.5 654 688.5 654 654.5 626 c 128,-1,56
 620.5 598 620.5 598 620.5 551 c 0,57,58
 620.5 513 620.5 513 637.5 488.5 c 128,-1,59
 654.5 464 654.5 464 684 447 c 128,-1,60
 713.5 430 713.5 430 751.5 412 c 1,47,48
EndSplineSet
Validated: 524289
EndChar

StartChar: nine.mlym
Encoding: 57 57 25
Width: 1495
Flags: W
LayerCount: 2
Fore
SplineSet
654.5 -12 m 0,0,1
 637.5 -12 637.5 -12 609.5 -9 c 128,-1,2
 581.5 -6 581.5 -6 564.5 -2 c 1,3,-1
 564.5 73 l 1,4,5
 584.5 66 584.5 66 606.5 63 c 128,-1,6
 628.5 60 628.5 60 652.5 60 c 0,7,8
 711.5 60 711.5 60 755.5 77.5 c 128,-1,9
 799.5 95 799.5 95 829 130.5 c 128,-1,10
 858.5 166 858.5 166 874.5 220.5 c 128,-1,11
 890.5 275 890.5 275 893.5 350 c 1,12,-1
 887.5 350 l 1,13,14
 869.5 323 869.5 323 844.5 304.5 c 128,-1,15
 819.5 286 819.5 286 788 276.5 c 128,-1,16
 756.5 267 756.5 267 717.5 267 c 0,17,18
 652.5 267 652.5 267 606.5 294 c 128,-1,19
 560.5 321 560.5 321 536.5 370 c 128,-1,20
 512.5 419 512.5 419 512.5 483 c 0,21,22
 512.5 555 512.5 555 539.5 609.5 c 128,-1,23
 566.5 664 566.5 664 618 694.5 c 128,-1,24
 669.5 725 669.5 725 740.5 725 c 0,25,26
 803.5 725 803.5 725 849.5 699.5 c 128,-1,27
 895.5 674 895.5 674 925 630 c 128,-1,28
 954.5 586 954.5 586 968.5 530.5 c 128,-1,29
 982.5 475 982.5 475 982.5 415 c 0,30,31
 982.5 329 982.5 329 969.5 260 c 128,-1,32
 956.5 191 956.5 191 930 140 c 128,-1,33
 903.5 89 903.5 89 864.5 55.5 c 128,-1,34
 825.5 22 825.5 22 773 5 c 128,-1,35
 720.5 -12 720.5 -12 654.5 -12 c 0,0,1
736.5 337 m 0,36,37
 781.5 337 781.5 337 817 355.5 c 128,-1,38
 852.5 374 852.5 374 873 403.5 c 128,-1,39
 893.5 433 893.5 433 893.5 467 c 256,40,41
 893.5 501 893.5 501 883.5 534 c 128,-1,42
 873.5 567 873.5 567 853.5 593.5 c 128,-1,43
 833.5 620 833.5 620 805 635.5 c 128,-1,44
 776.5 651 776.5 651 740.5 651 c 0,45,46
 673.5 651 673.5 651 636.5 607 c 128,-1,47
 599.5 563 599.5 563 599.5 484 c 0,48,49
 599.5 413 599.5 413 634.5 375 c 128,-1,50
 669.5 337 669.5 337 736.5 337 c 0,36,37
EndSplineSet
Validated: 524289
EndChar

StartChar: colon.mlym
Encoding: 58 58 26
Width: 1495
Flags: W
LayerCount: 2
Fore
SplineSet
747.5 -12 m 256,0,1
 721.5 -12 721.5 -12 703.5 4 c 128,-1,2
 685.5 20 685.5 20 685.5 56 c 0,3,4
 685.5 94 685.5 94 703.5 109 c 128,-1,5
 721.5 124 721.5 124 747.5 124 c 256,6,7
 773.5 124 773.5 124 791.5 109 c 128,-1,8
 809.5 94 809.5 94 809.5 56 c 0,9,10
 809.5 20 809.5 20 791.5 4 c 128,-1,11
 773.5 -12 773.5 -12 747.5 -12 c 256,0,1
747.5 414 m 256,12,13
 721.5 414 721.5 414 703.5 430 c 128,-1,14
 685.5 446 685.5 446 685.5 482 c 0,15,16
 685.5 520 685.5 520 703.5 535 c 128,-1,17
 721.5 550 721.5 550 747.5 550 c 256,18,19
 773.5 550 773.5 550 791.5 535 c 128,-1,20
 809.5 520 809.5 520 809.5 482 c 0,21,22
 809.5 446 809.5 446 791.5 430 c 128,-1,23
 773.5 414 773.5 414 747.5 414 c 256,12,13
EndSplineSet
Validated: 524289
EndChar

StartChar: semicolon.mlym
Encoding: 59 59 27
Width: 1495
Flags: W
LayerCount: 2
Fore
SplineSet
811 116 m 1,0,-1
 818 105 l 1,1,2
 809 70 809 70 795 29.5 c 128,-1,3
 781 -11 781 -11 765 -51.5 c 128,-1,4
 749 -92 749 -92 732 -129 c 1,5,-1
 665 -129 l 1,6,7
 675 -89 675 -89 684 -45.5 c 128,-1,8
 693 -2 693 -2 701 40 c 128,-1,9
 709 82 709 82 714 116 c 1,10,-1
 811 116 l 1,0,-1
768 414 m 256,11,12
 742 414 742 414 724 430 c 128,-1,13
 706 446 706 446 706 482 c 0,14,15
 706 520 706 520 724 535 c 128,-1,16
 742 550 742 550 768 550 c 256,17,18
 794 550 794 550 812 535 c 128,-1,19
 830 520 830 520 830 482 c 0,20,21
 830 446 830 446 812 430 c 128,-1,22
 794 414 794 414 768 414 c 256,11,12
EndSplineSet
Validated: 1
EndChar

StartChar: less.mlym
Encoding: 60 60 28
Width: 1495
Flags: W
LayerCount: 2
Fore
SplineSet
983 116 m 1,0,-1
 512 323 l 1,1,-1
 512 373 l 1,2,-1
 983 608 l 1,3,-1
 983 530 l 1,4,-1
 607 352 l 1,5,-1
 983 194 l 1,6,-1
 983 116 l 1,0,-1
EndSplineSet
Validated: 1
EndChar

StartChar: equal.mlym
Encoding: 61 61 29
Width: 1495
Flags: W
LayerCount: 2
Fore
SplineSet
518.5 217 m 1,0,-1
 518.5 288 l 1,1,-1
 976.5 288 l 1,2,-1
 976.5 217 l 1,3,-1
 518.5 217 l 1,0,-1
518.5 416 m 1,4,-1
 518.5 487 l 1,5,-1
 976.5 487 l 1,6,-1
 976.5 416 l 1,7,-1
 518.5 416 l 1,4,-1
EndSplineSet
Validated: 524289
EndChar

StartChar: greater.mlym
Encoding: 62 62 30
Width: 1495
Flags: W
LayerCount: 2
Fore
SplineSet
512 116 m 1,0,-1
 512 194 l 1,1,-1
 889 351 l 1,2,-1
 512 530 l 1,3,-1
 512 608 l 1,4,-1
 983 373 l 1,5,-1
 983 323 l 1,6,-1
 512 116 l 1,0,-1
EndSplineSet
Validated: 1
EndChar

StartChar: question.mlym
Encoding: 63 63 31
Width: 1495
Flags: W
LayerCount: 2
Fore
SplineSet
738 725 m 0,0,1
 829 725 829 725 882 676.5 c 128,-1,2
 935 628 935 628 935 542 c 0,3,4
 935 499 935 499 923 467 c 128,-1,5
 911 435 911 435 887 407 c 128,-1,6
 863 379 863 379 826 347 c 0,7,8
 794 320 794 320 777 300 c 128,-1,9
 760 280 760 280 753.5 260 c 128,-1,10
 747 240 747 240 747 211 c 2,11,-1
 747 202 l 1,12,-1
 679 202 l 1,13,-1
 679 220 l 2,14,15
 679 258 679 258 686 285.5 c 128,-1,16
 693 313 693 313 711 337.5 c 128,-1,17
 729 362 729 362 762 390 c 0,18,19
 793 417 793 417 812.5 438 c 128,-1,20
 832 459 832 459 841 483 c 128,-1,21
 850 507 850 507 850 541 c 0,22,23
 850 588 850 588 821.5 617.5 c 128,-1,24
 793 647 793 647 738 647 c 0,25,26
 698 647 698 647 661.5 634.5 c 128,-1,27
 625 622 625 622 590 605 c 1,28,-1
 560 676 l 1,29,30
 599 696 599 696 645 710.5 c 128,-1,31
 691 725 691 725 738 725 c 0,0,1
717 -12 m 0,32,33
 692 -12 692 -12 673.5 4 c 128,-1,34
 655 20 655 20 655 56 c 0,35,36
 655 94 655 94 673.5 109 c 128,-1,37
 692 124 692 124 717 124 c 0,38,39
 743 124 743 124 761 109 c 128,-1,40
 779 94 779 94 779 56 c 0,41,42
 779 20 779 20 761 4 c 128,-1,43
 743 -12 743 -12 717 -12 c 0,32,33
EndSplineSet
Validated: 1
EndChar

StartChar: bracketleft.mlym
Encoding: 91 91 32
Width: 1495
Flags: W
LayerCount: 2
Fore
SplineSet
648.5 -244 m 1,0,-1
 648.5 800 l 1,1,-1
 846.5 800 l 1,2,-1
 846.5 732 l 1,3,-1
 735.5 732 l 1,4,-1
 735.5 -176 l 1,5,-1
 846.5 -176 l 1,6,-1
 846.5 -244 l 1,7,-1
 648.5 -244 l 1,0,-1
EndSplineSet
Validated: 524289
EndChar

StartChar: backslash.mlym
Encoding: 92 92 33
Width: 1495
Flags: W
LayerCount: 2
Fore
SplineSet
838 -244 m 1,0,-1
 572 800 l 1,1,-1
 657 800 l 1,2,-1
 923 -244 l 1,3,-1
 838 -244 l 1,0,-1
EndSplineSet
Validated: 1
EndChar

StartChar: bracketright.mlym
Encoding: 93 93 34
Width: 1495
Flags: W
LayerCount: 2
Fore
SplineSet
648.5 -244 m 1,0,-1
 648.5 -176 l 1,1,-1
 759.5 -176 l 1,2,-1
 759.5 732 l 1,3,-1
 648.5 732 l 1,4,-1
 648.5 800 l 1,5,-1
 846.5 800 l 1,6,-1
 846.5 -244 l 1,7,-1
 648.5 -244 l 1,0,-1
EndSplineSet
Validated: 524289
EndChar

StartChar: asciicircum.mlym
Encoding: 94 94 35
Width: 1495
Flags: W
LayerCount: 2
Fore
SplineSet
501 268 m 1,0,-1
 726 719 l 1,1,-1
 776 719 l 1,2,-1
 994 268 l 1,3,-1
 915 268 l 1,4,-1
 751 627 l 1,5,-1
 580 268 l 1,6,-1
 501 268 l 1,0,-1
EndSplineSet
Validated: 1
EndChar

StartChar: underscore.mlym
Encoding: 95 95 36
Width: 1495
Flags: W
LayerCount: 2
Fore
SplineSet
523.5 -154 m 1,0,-1
 523.5 -90 l 1,1,-1
 971.5 -90 l 1,2,-1
 971.5 -154 l 1,3,-1
 523.5 -154 l 1,0,-1
EndSplineSet
Validated: 524289
EndChar

StartChar: braceleft.mlym
Encoding: 123 123 37
Width: 1495
Flags: W
LayerCount: 2
Fore
SplineSet
897.5 -244 m 1,0,1
 847.5 -243 847.5 -243 808 -225.5 c 128,-1,2
 768.5 -208 768.5 -208 746 -169.5 c 128,-1,3
 723.5 -131 723.5 -131 723.5 -70 c 2,4,-1
 723.5 127 l 2,5,6
 723.5 189 723.5 189 691 214.5 c 128,-1,7
 658.5 240 658.5 240 597.5 240 c 1,8,-1
 597.5 315 l 1,9,10
 659.5 315 659.5 315 691.5 341 c 128,-1,11
 723.5 367 723.5 367 723.5 428 c 2,12,-1
 723.5 626 l 2,13,14
 723.5 688 723.5 688 746 725.5 c 128,-1,15
 768.5 763 768.5 763 808 781 c 128,-1,16
 847.5 799 847.5 799 897.5 800 c 1,17,-1
 897.5 727 l 1,18,19
 857.5 726 857.5 726 835 708 c 128,-1,20
 812.5 690 812.5 690 812.5 631 c 2,21,-1
 812.5 431 l 2,22,23
 812.5 367 812.5 367 783 330 c 128,-1,24
 753.5 293 753.5 293 697.5 281 c 1,25,-1
 697.5 275 l 1,26,27
 753.5 263 753.5 263 783 225.5 c 128,-1,28
 812.5 188 812.5 188 812.5 125 c 2,29,-1
 812.5 -76 l 2,30,31
 812.5 -115 812.5 -115 822.5 -135.5 c 128,-1,32
 832.5 -156 832.5 -156 852 -163 c 128,-1,33
 871.5 -170 871.5 -170 897.5 -171 c 1,34,-1
 897.5 -244 l 1,0,1
EndSplineSet
Validated: 524289
EndChar

StartChar: bar.mlym
Encoding: 124 124 38
Width: 1495
Flags: W
LayerCount: 2
Fore
SplineSet
711 -244 m 1,0,-1
 711 800 l 1,1,-1
 784 800 l 1,2,-1
 784 -244 l 1,3,-1
 711 -244 l 1,0,-1
EndSplineSet
Validated: 1
EndChar

StartChar: braceright.mlym
Encoding: 125 125 39
Width: 1495
Flags: W
LayerCount: 2
Fore
SplineSet
598 800 m 1,0,1
 648 799 648 799 687.5 781 c 128,-1,2
 727 763 727 763 749.5 725.5 c 128,-1,3
 772 688 772 688 772 626 c 2,4,-1
 772 428 l 2,5,6
 772 367 772 367 804 341.5 c 128,-1,7
 836 316 836 316 897 316 c 1,8,-1
 897 240 l 1,9,10
 836 240 836 240 804 214.5 c 128,-1,11
 772 189 772 189 772 128 c 2,12,-1
 772 -70 l 2,13,14
 772 -131 772 -131 749.5 -169.5 c 128,-1,15
 727 -208 727 -208 687.5 -225.5 c 128,-1,16
 648 -243 648 -243 598 -244 c 1,17,-1
 598 -171 l 1,18,19
 638 -169 638 -169 660.5 -151 c 128,-1,20
 683 -133 683 -133 683 -75 c 2,21,-1
 683 125 l 2,22,23
 683 189 683 189 712.5 226 c 128,-1,24
 742 263 742 263 797 275 c 1,25,-1
 797 281 l 1,26,27
 742 293 742 293 712.5 330 c 128,-1,28
 683 367 683 367 683 431 c 2,29,-1
 683 631 l 2,30,31
 683 670 683 670 673 690.5 c 128,-1,32
 663 711 663 711 644 719 c 128,-1,33
 625 727 625 727 598 727 c 1,34,-1
 598 800 l 1,0,1
EndSplineSet
Validated: 1
EndChar

StartChar: asciitilde.mlym
Encoding: 126 126 40
Width: 1495
Flags: W
LayerCount: 2
Fore
SplineSet
732 319 m 0,0,1
 696 335 696 335 674 341 c 128,-1,2
 652 347 652 347 629 347 c 0,3,4
 599 347 599 347 568 329.5 c 128,-1,5
 537 312 537 312 512 287 c 1,6,-1
 512 365 l 1,7,8
 537 391 537 391 567 404.5 c 128,-1,9
 597 418 597 418 632 418 c 0,10,11
 661 418 661 418 689.5 412 c 128,-1,12
 718 406 718 406 760 388 c 0,13,14
 800 371 800 371 822 365 c 128,-1,15
 844 359 844 359 872 359 c 0,16,17
 902 359 902 359 929.5 375.5 c 128,-1,18
 957 392 957 392 983 418 c 1,19,-1
 983 339 l 1,20,21
 958 314 958 314 929 300.5 c 128,-1,22
 900 287 900 287 863 287 c 0,23,24
 835 287 835 287 806 293.5 c 128,-1,25
 777 300 777 300 732 319 c 0,0,1
EndSplineSet
Validated: 1
EndChar

StartChar: A
Encoding: 65 65 41
Width: 1495
Flags: W
AnchorPoint: "Anchor-0" 566 0 basechar 0
LayerCount: 2
Fore
SplineSet
367 566 m 0,0,1
 411 566 411 566 458.5 558 c 128,-1,2
 506 550 506 550 546 533 c 0,3,4
 551 531 551 531 558 525.5 c 128,-1,5
 565 520 565 520 570 518 c 0,6,7
 625 504 625 504 655 480 c 128,-1,8
 685 456 685 456 697.5 427.5 c 128,-1,9
 710 399 710 399 710 368 c 0,10,11
 710 344 710 344 702 323 c 128,-1,12
 694 302 694 302 674.5 285 c 128,-1,13
 655 268 655 268 622 253 c 1,14,-1
 626 256 l 1,15,16
 670 242 670 242 695.5 211 c 128,-1,17
 721 180 721 180 721 136 c 0,18,19
 721 97 721 97 701.5 63 c 128,-1,20
 682 29 682 29 641 8.5 c 128,-1,21
 600 -12 600 -12 533 -12 c 0,22,23
 457 -12 457 -12 406.5 21 c 128,-1,24
 356 54 356 54 331 110 c 128,-1,25
 306 166 306 166 306 235 c 0,26,27
 306 291 306 291 323 342 c 128,-1,28
 340 393 340 393 375.5 437 c 128,-1,29
 411 481 411 481 468 515 c 0,30,31
 473 518 473 518 478 521 c 128,-1,32
 483 524 483 524 488 527 c 0,33,34
 524 545 524 545 568 555.5 c 128,-1,35
 612 566 612 566 669 566 c 0,36,37
 737 566 737 566 782 549 c 128,-1,38
 827 532 827 532 857.5 504.5 c 128,-1,39
 888 477 888 477 910 444 c 1,40,-1
 936 247 l 1,41,-1
 936 0 l 1,42,-1
 849 0 l 1,43,-1
 849 281 l 2,44,45
 849 355 849 355 837 393 c 128,-1,46
 825 431 825 431 800 454 c 0,47,48
 778 474 778 474 746 486.5 c 128,-1,49
 714 499 714 499 657 499 c 0,50,51
 630 499 630 499 605.5 495.5 c 128,-1,52
 581 492 581 492 561 486 c 0,53,54
 514 472 514 472 481 444 c 128,-1,55
 448 416 448 416 428 380 c 128,-1,56
 408 344 408 344 399 307.5 c 128,-1,57
 390 271 390 271 390 239 c 0,58,59
 390 151 390 151 427 103 c 128,-1,60
 464 55 464 55 534 55 c 0,61,62
 586 55 586 55 611.5 76 c 128,-1,63
 637 97 637 97 637 138 c 0,64,65
 637 175 637 175 608.5 196.5 c 128,-1,66
 580 218 580 218 519 218 c 2,67,-1
 500 218 l 1,68,-1
 500 288 l 1,69,-1
 514 288 l 2,70,71
 576 288 576 288 601 310 c 128,-1,72
 626 332 626 332 626 369 c 0,73,74
 626 416 626 416 593.5 444.5 c 128,-1,75
 561 473 561 473 497 484 c 0,76,77
 458 494 458 494 428 495.5 c 128,-1,78
 398 497 398 497 374 497 c 0,79,80
 291 497 291 497 236.5 467.5 c 128,-1,81
 182 438 182 438 155 387.5 c 128,-1,82
 128 337 128 337 128 273 c 0,83,84
 128 221 128 221 143 180 c 128,-1,85
 158 139 158 139 185.5 108 c 128,-1,86
 213 77 213 77 250 54 c 1,87,-1
 200 -9 l 1,88,89
 157 16 157 16 120.5 55.5 c 128,-1,90
 84 95 84 95 61.5 150.5 c 128,-1,91
 39 206 39 206 39 277 c 0,92,93
 39 339 39 339 59 391.5 c 128,-1,94
 79 444 79 444 120 483 c 128,-1,95
 161 522 161 522 222.5 544 c 128,-1,96
 284 566 284 566 367 566 c 0,0,1
1243 -12 m 0,97,98
 1179 -12 1179 -12 1136 17 c 128,-1,99
 1093 46 1093 46 1071.5 93.5 c 128,-1,100
 1050 141 1050 141 1050 196 c 0,101,102
 1050 291 1050 291 1101 347.5 c 128,-1,103
 1152 404 1152 404 1238 404 c 0,104,105
 1294 404 1294 404 1335.5 375 c 128,-1,106
 1377 346 1377 346 1401 301 c 128,-1,107
 1425 256 1425 256 1427 206 c 1,108,-1
 1402 209 l 1,109,110
 1395 240 1395 240 1375.5 268.5 c 128,-1,111
 1356 297 1356 297 1325.5 315.5 c 128,-1,112
 1295 334 1295 334 1255 334 c 0,113,114
 1192 334 1192 334 1163 296.5 c 128,-1,115
 1134 259 1134 259 1134 198 c 0,116,117
 1134 157 1134 157 1145.5 125 c 128,-1,118
 1157 93 1157 93 1181 75.5 c 128,-1,119
 1205 58 1205 58 1244 58 c 0,120,121
 1285 58 1285 58 1313.5 77 c 128,-1,122
 1342 96 1342 96 1357.5 138 c 128,-1,123
 1373 180 1373 180 1373 248 c 0,124,125
 1373 259 1373 259 1371.5 271.5 c 128,-1,126
 1370 284 1370 284 1368 298 c 0,127,128
 1367 306 1367 306 1366 316 c 128,-1,129
 1365 326 1365 326 1363 335 c 0,130,131
 1355 373 1355 373 1327.5 409.5 c 128,-1,132
 1300 446 1300 446 1251 470 c 128,-1,133
 1202 494 1202 494 1127 494 c 0,134,135
 1084 494 1084 494 1049.5 484 c 128,-1,136
 1015 474 1015 474 989 451 c 0,137,138
 973 436 973 436 961 415.5 c 128,-1,139
 949 395 949 395 942.5 365 c 128,-1,140
 936 335 936 335 936 289 c 2,141,-1
 936 204 l 1,142,-1
 884 454 l 1,143,144
 909 486 909 486 941 511.5 c 128,-1,145
 973 537 973 537 1018 551.5 c 128,-1,146
 1063 566 1063 566 1127 566 c 0,147,148
 1209 566 1209 566 1270.5 542 c 128,-1,149
 1332 518 1332 518 1373.5 474.5 c 128,-1,150
 1415 431 1415 431 1435.5 372 c 128,-1,151
 1456 313 1456 313 1456 242 c 0,152,153
 1456 153 1456 153 1428 96.5 c 128,-1,154
 1400 40 1400 40 1352 14 c 128,-1,155
 1304 -12 1304 -12 1243 -12 c 0,97,98
EndSplineSet
Validated: 1048581
EndChar

StartChar: B
Encoding: 66 66 42
Width: 1495
Flags: W
LayerCount: 2
Fore
SplineSet
934 617 m 0,0,1
 934 583 934 583 920 557.5 c 128,-1,2
 906 532 906 532 885 512.5 c 128,-1,3
 864 493 864 493 843 477 c 128,-1,4
 822 461 822 461 808 445.5 c 128,-1,5
 794 430 794 430 794 412 c 0,6,7
 794 399 794 399 800.5 388 c 128,-1,8
 807 377 807 377 826 362.5 c 128,-1,9
 845 348 845 348 882 323 c 0,10,11
 918 299 918 299 944 275 c 128,-1,12
 970 251 970 251 984 222 c 128,-1,13
 998 193 998 193 998 153 c 0,14,15
 998 96 998 96 974.5 60 c 128,-1,16
 951 24 951 24 909 7 c 128,-1,17
 867 -10 867 -10 812 -10 c 0,18,19
 765 -10 765 -10 729 -1 c 128,-1,20
 693 8 693 8 667 24 c 1,21,-1
 667 103 l 1,22,23
 684 93 684 93 707 83 c 128,-1,24
 730 73 730 73 756.5 67 c 128,-1,25
 783 61 783 61 809 61 c 0,26,27
 864 61 864 61 888 84 c 128,-1,28
 912 107 912 107 912 147 c 0,29,30
 912 171 912 171 903.5 189.5 c 128,-1,31
 895 208 895 208 874.5 226 c 128,-1,32
 854 244 854 244 818 267 c 0,33,34
 776 294 776 294 752.5 315.5 c 128,-1,35
 729 337 729 337 719 359 c 128,-1,36
 709 381 709 381 709 407 c 0,37,38
 709 438 709 438 722.5 460 c 128,-1,39
 736 482 736 482 756.5 498.5 c 128,-1,40
 777 515 777 515 797.5 531 c 128,-1,41
 818 547 818 547 831.5 566 c 128,-1,42
 845 585 845 585 845 612 c 0,43,44
 845 654 845 654 809.5 673 c 128,-1,45
 774 692 774 692 718 692 c 0,46,47
 683 692 683 692 652.5 682.5 c 128,-1,48
 622 673 622 673 603.5 650 c 128,-1,49
 585 627 585 627 585 584 c 2,50,-1
 585 0 l 1,51,-1
 497 0 l 1,52,-1
 497 584 l 2,53,54
 497 651 497 651 526 690.5 c 128,-1,55
 555 730 555 730 605 747.5 c 128,-1,56
 655 765 655 765 718 765 c 0,57,58
 783 765 783 765 831.5 748.5 c 128,-1,59
 880 732 880 732 907 699.5 c 128,-1,60
 934 667 934 667 934 617 c 0,0,1
EndSplineSet
Validated: 1
EndChar

StartChar: C
Encoding: 67 67 43
Width: 1495
Flags: W
LayerCount: 2
Fore
SplineSet
787.5 737 m 4,0,1
 807.5 737 807.5 737 823 723.5 c 132,-1,2
 838.5 710 838.5 710 838.5 681 c 4,3,4
 838.5 653 838.5 653 823 639 c 132,-1,5
 807.5 625 807.5 625 787.5 625 c 4,6,7
 765.5 625 765.5 625 750.5 639 c 132,-1,8
 735.5 653 735.5 653 735.5 681 c 4,9,10
 735.5 710 735.5 710 750.5 723.5 c 132,-1,11
 765.5 737 765.5 737 787.5 737 c 4,0,1
803.5 -10 m 0,12,13
 685.5 -10 685.5 -10 620.5 57 c 128,-1,14
 555.5 124 555.5 124 555.5 245 c 0,15,16
 555.5 325 555.5 325 584.5 380.5 c 128,-1,17
 613.5 436 613.5 436 667.5 465 c 1,18,-1
 534.5 465 l 1,19,-1
 534.5 537 l 1,20,-1
 960.5 537 l 1,21,-1
 960.5 465 l 1,22,-1
 847.5 465 l 2,23,24
 753.5 465 753.5 465 700 411.5 c 128,-1,25
 646.5 358 646.5 358 646.5 252 c 0,26,27
 646.5 165 646.5 165 689.5 114.5 c 128,-1,28
 732.5 64 732.5 64 812.5 64 c 0,29,30
 849.5 64 849.5 64 883.5 73.5 c 128,-1,31
 917.5 83 917.5 83 949.5 99 c 1,32,-1
 949.5 21 l 1,33,34
 920.5 5 920.5 5 885.5 -2.5 c 128,-1,35
 850.5 -10 850.5 -10 803.5 -10 c 0,12,13
EndSplineSet
Validated: 524289
EndChar

StartChar: D
Encoding: 68 68 44
Width: 1495
Flags: W
AnchorPoint: "Anchor-0" 667.5 0 basechar 0
LayerCount: 2
Fore
SplineSet
793.5 566 m 0,0,1
 865.5 566 865.5 566 914 545.5 c 128,-1,2
 962.5 525 962.5 525 987 490 c 128,-1,3
 1011.5 455 1011.5 455 1011.5 411 c 0,4,5
 1011.5 363 1011.5 363 987.5 329.5 c 128,-1,6
 963.5 296 963.5 296 909.5 274 c 1,7,-1
 905.5 280 l 1,8,9
 962.5 264 962.5 264 992.5 227.5 c 128,-1,10
 1022.5 191 1022.5 191 1022.5 143 c 0,11,12
 1022.5 70 1022.5 70 972.5 29.5 c 128,-1,13
 922.5 -11 922.5 -11 833.5 -11 c 0,14,15
 797.5 -11 797.5 -11 771.5 -7.5 c 128,-1,16
 745.5 -4 745.5 -4 725.5 0 c 1,17,-1
 743.5 69 l 1,18,19
 765.5 65 765.5 65 785.5 62 c 128,-1,20
 805.5 59 805.5 59 826.5 59 c 0,21,22
 878.5 59 878.5 59 907 78.5 c 128,-1,23
 935.5 98 935.5 98 935.5 144 c 0,24,25
 935.5 163 935.5 163 928.5 180 c 128,-1,26
 921.5 197 921.5 197 905.5 210 c 0,27,28
 889.5 224 889.5 224 865.5 232 c 128,-1,29
 841.5 240 841.5 240 788.5 240 c 2,30,-1
 742.5 240 l 1,31,-1
 742.5 310 l 1,32,-1
 787.5 310 l 2,33,34
 825.5 310 825.5 310 854.5 317 c 128,-1,35
 883.5 324 883.5 324 900.5 341 c 0,36,37
 912.5 352 912.5 352 918.5 367 c 128,-1,38
 924.5 382 924.5 382 924.5 403 c 0,39,40
 924.5 448 924.5 448 889.5 471 c 128,-1,41
 854.5 494 854.5 494 791.5 494 c 0,42,43
 710.5 494 710.5 494 659.5 457.5 c 128,-1,44
 608.5 421 608.5 421 584.5 358.5 c 128,-1,45
 560.5 296 560.5 296 560.5 217 c 0,46,47
 560.5 165 560.5 165 566.5 111 c 128,-1,48
 572.5 57 572.5 57 585.5 9 c 1,49,-1
 503.5 -4 l 1,50,51
 488.5 45 488.5 45 480.5 106 c 128,-1,52
 472.5 167 472.5 167 472.5 219 c 0,53,54
 472.5 322 472.5 322 508 400 c 128,-1,55
 543.5 478 543.5 478 615 522 c 128,-1,56
 686.5 566 686.5 566 793.5 566 c 0,0,1
EndSplineSet
Validated: 1572869
EndChar

StartChar: E
Encoding: 69 69 45
Width: 1495
Flags: W
LayerCount: 2
Fore
SplineSet
947 0 m 1,0,-1
 548 0 l 1,1,-1
 548 714 l 1,2,-1
 947 714 l 1,3,-1
 947 635 l 1,4,-1
 638 635 l 1,5,-1
 638 412 l 1,6,-1
 929 412 l 1,7,-1
 929 334 l 1,8,-1
 638 334 l 1,9,-1
 638 79 l 1,10,-1
 947 79 l 1,11,-1
 947 0 l 1,0,-1
EndSplineSet
Validated: 1
EndChar

StartChar: F
Encoding: 70 70 46
Width: 1495
Flags: W
LayerCount: 2
Fore
SplineSet
638 0 m 1,0,-1
 548 0 l 1,1,-1
 548 714 l 1,2,-1
 947 714 l 1,3,-1
 947 635 l 1,4,-1
 638 635 l 1,5,-1
 638 382 l 1,6,-1
 928 382 l 1,7,-1
 928 303 l 1,8,-1
 638 303 l 1,9,-1
 638 0 l 1,0,-1
EndSplineSet
Validated: 1
EndChar

StartChar: G
Encoding: 71 71 47
Width: 1495
Flags: W
LayerCount: 2
Fore
SplineSet
730 546 m 0,0,1
 783 546 783 546 825.5 526 c 128,-1,2
 868 506 868 506 898 465 c 1,3,-1
 903 465 l 1,4,-1
 915 536 l 1,5,-1
 985 536 l 1,6,-1
 985 -9 l 2,7,8
 985 -85 985 -85 959 -136.5 c 128,-1,9
 933 -188 933 -188 880 -214 c 128,-1,10
 827 -240 827 -240 745 -240 c 0,11,12
 687 -240 687 -240 638.5 -231.5 c 128,-1,13
 590 -223 590 -223 552 -206 c 1,14,-1
 552 -125 l 1,15,16
 590 -145 590 -145 641 -156 c 128,-1,17
 692 -167 692 -167 750 -167 c 0,18,19
 819 -167 819 -167 858.5 -126.5 c 128,-1,20
 898 -86 898 -86 898 -16 c 2,21,-1
 898 5 l 2,22,23
 898 17 898 17 899 39.5 c 128,-1,24
 900 62 900 62 901 71 c 1,25,-1
 897 71 l 1,26,27
 869 30 869 30 827.5 10 c 128,-1,28
 786 -10 786 -10 731 -10 c 0,29,30
 627 -10 627 -10 568.5 63 c 128,-1,31
 510 136 510 136 510 267 c 0,32,33
 510 395 510 395 568.5 470.5 c 128,-1,34
 627 546 627 546 730 546 c 0,0,1
742 472 m 0,35,36
 697 472 697 472 665.5 448 c 128,-1,37
 634 424 634 424 617.5 378 c 128,-1,38
 601 332 601 332 601 266 c 0,39,40
 601 167 601 167 637.5 114.5 c 128,-1,41
 674 62 674 62 744 62 c 0,42,43
 785 62 785 62 814 72.5 c 128,-1,44
 843 83 843 83 862 105.5 c 128,-1,45
 881 128 881 128 890 163 c 128,-1,46
 899 198 899 198 899 246 c 2,47,-1
 899 267 l 2,48,49
 899 340 899 340 882.5 385 c 128,-1,50
 866 430 866 430 831 451 c 128,-1,51
 796 472 796 472 742 472 c 0,35,36
753 737 m 0,52,53
 773 737 773 737 788.5 723.5 c 128,-1,54
 804 710 804 710 804 681 c 0,55,56
 804 653 804 653 788.5 639 c 128,-1,57
 773 625 773 625 753 625 c 0,58,59
 731 625 731 625 716 639 c 128,-1,60
 701 653 701 653 701 681 c 0,61,62
 701 710 701 710 716 723.5 c 128,-1,63
 731 737 731 737 753 737 c 0,52,53
EndSplineSet
Validated: 1
EndChar

StartChar: H
Encoding: 72 72 48
Width: 1495
Flags: W
AnchorPoint: "Anchor-0" 619 0 basechar 0
LayerCount: 2
Fore
SplineSet
396 346 m 4,0,1
 464 346 464 346 507.5 320.5 c 132,-1,2
 551 295 551 295 572.5 255.5 c 132,-1,3
 594 216 594 216 594 173 c 4,4,5
 594 133 594 133 581 102 c 132,-1,6
 568 71 568 71 549 57 c 5,7,-1
 524 70 l 5,8,-1
 821 70 l 1,9,-1
 836 0 l 1,10,-1
 495 0 l 5,11,-1
 466 52 l 5,12,13
 486 72 486 72 498 96.5 c 132,-1,14
 510 121 510 121 510 158 c 4,15,16
 510 212 510 212 481 244 c 132,-1,17
 452 276 452 276 396 276 c 4,18,19
 361 276 361 276 335.5 260.5 c 132,-1,20
 310 245 310 245 296.5 220 c 132,-1,21
 283 195 283 195 283 164 c 4,22,23
 283 130 283 130 297 102 c 132,-1,24
 311 74 311 74 342 51 c 5,25,-1
 296 -7 l 5,26,27
 254 24 254 24 226.5 66.5 c 132,-1,28
 199 109 199 109 199 166 c 4,29,30
 199 219 199 219 223.5 259.5 c 132,-1,31
 248 300 248 300 292.5 323 c 132,-1,32
 337 346 337 346 396 346 c 4,0,1
1001 566 m 0,33,34
 1076 566 1076 566 1131.5 544 c 128,-1,35
 1187 522 1187 522 1223.5 483 c 128,-1,36
 1260 444 1260 444 1278 392 c 128,-1,37
 1296 340 1296 340 1296 281 c 0,38,39
 1296 211 1296 211 1275 156.5 c 128,-1,40
 1254 102 1254 102 1218 61 c 128,-1,41
 1182 20 1182 20 1135 -9 c 1,42,-1
 1085 54 l 1,43,44
 1118 74 1118 74 1146 104 c 128,-1,45
 1174 134 1174 134 1190.5 176 c 128,-1,46
 1207 218 1207 218 1207 271 c 0,47,48
 1207 337 1207 337 1182.5 387 c 128,-1,49
 1158 437 1158 437 1112 465.5 c 128,-1,50
 1066 494 1066 494 999 494 c 0,51,52
 933 494 933 494 886 464.5 c 128,-1,53
 839 435 839 435 814 385 c 128,-1,54
 789 335 789 335 789 273 c 0,55,56
 789 222 789 222 802.5 183 c 128,-1,57
 816 144 816 144 841.5 113.5 c 128,-1,58
 867 83 867 83 902 59 c 1,59,-1
 864 0 l 1,60,-1
 831 0 l 1,61,-1
 783 64 l 2,62,63
 762 89 762 89 743 120 c 128,-1,64
 724 151 724 151 712 190.5 c 128,-1,65
 700 230 700 230 700 278 c 0,66,67
 700 339 700 339 719.5 391.5 c 128,-1,68
 739 444 739 444 777.5 483 c 128,-1,69
 816 522 816 522 872 544 c 128,-1,70
 928 566 928 566 1001 566 c 0,33,34
EndSplineSet
Validated: 1048581
EndChar

StartChar: I
Encoding: 73 73 49
Width: 1495
Flags: W
LayerCount: 2
Fore
SplineSet
848 756 m 1,0,1
 839 742 839 742 822 722 c 0,2,3
 805 702 805 702 784.5 680.5 c 0,4,5
 764 659 764 659 743.5 639.5 c 0,6,7
 723 620 723 620 705 606 c 1,8,-1
 647 606 l 1,9,-1
 647 618 l 1,10,11
 662 637 662 637 679.5 663 c 0,12,13
 697 689 697 689 714 716.5 c 0,14,15
 731 744 731 744 742 766 c 1,16,-1
 848 766 l 1,17,-1
 848 756 l 1,0,1
744 0 m 5,18,-1
 656 0 l 5,19,-1
 656 536 l 5,20,-1
 744 536 l 5,21,-1
 744 0 l 5,18,-1
EndSplineSet
Validated: 1
EndChar

StartChar: J
Encoding: 74 74 50
Width: 1495
Flags: W
LayerCount: 2
Fore
SplineSet
697 -8 m 4,0,1
 642 -8 642 -8 598 4 c 132,-1,2
 554 16 554 16 520 33 c 5,3,-1
 551 103 l 5,4,5
 581 89 581 89 617.5 77 c 132,-1,6
 654 65 654 65 695 65 c 4,7,8
 752 65 752 65 782 94.5 c 132,-1,9
 812 124 812 124 812 190 c 6,10,-1
 812 329 l 5,11,-1
 608 329 l 5,12,-1
 608 395 l 5,13,-1
 812 395 l 5,14,-1
 812 499 l 6,15,16
 812 539 812 539 821.5 565.5 c 132,-1,17
 831 592 831 592 846.5 608 c 132,-1,18
 862 624 862 624 880 635 c 5,19,-1
 496 635 l 5,20,-1
 496 715 l 5,21,-1
 999 715 l 5,22,-1
 999 641 l 5,23,24
 970 634 970 634 948 617.5 c 132,-1,25
 926 601 926 601 913 572.5 c 132,-1,26
 900 544 900 544 900 500 c 6,27,-1
 900 395 l 5,28,-1
 996 395 l 5,29,-1
 996 329 l 5,30,-1
 900 329 l 5,31,-1
 900 181 l 6,32,33
 900 121 900 121 875 79 c 132,-1,34
 850 37 850 37 804 14.5 c 132,-1,35
 758 -8 758 -8 697 -8 c 4,0,1
EndSplineSet
Validated: 1
EndChar

StartChar: K
Encoding: 75 75 51
Width: 1495
Flags: W
LayerCount: 2
Fore
SplineSet
727.5 737 m 4,0,1
 747.5 737 747.5 737 763 723.5 c 132,-1,2
 778.5 710 778.5 710 778.5 681 c 4,3,4
 778.5 653 778.5 653 763 639 c 132,-1,5
 747.5 625 747.5 625 727.5 625 c 4,6,7
 705.5 625 705.5 625 690.5 639 c 132,-1,8
 675.5 653 675.5 653 675.5 681 c 4,9,10
 675.5 710 675.5 710 690.5 723.5 c 132,-1,11
 705.5 737 705.5 737 727.5 737 c 4,0,1
614.5 363 m 2,12,13
 614.5 347 614.5 347 613 321 c 128,-1,14
 611.5 295 611.5 295 610.5 276 c 1,15,-1
 614.5 276 l 1,16,17
 620.5 284 620.5 284 632.5 299 c 128,-1,18
 644.5 314 644.5 314 657 329.5 c 128,-1,19
 669.5 345 669.5 345 678.5 355 c 2,20,-1
 849.5 536 l 1,21,-1
 952.5 536 l 1,22,-1
 735.5 307 l 1,23,-1
 967.5 0 l 1,24,-1
 861.5 0 l 1,25,-1
 675.5 250 l 1,26,-1
 614.5 197 l 1,27,-1
 614.5 0 l 1,28,-1
 527.5 0 l 1,29,-1
 527.5 536 l 1,30,-1
 614.5 536 l 1,31,-1
 614.5 363 l 2,12,13
EndSplineSet
Validated: 524289
EndChar

StartChar: L
Encoding: 76 76 52
Width: 1495
Flags: W
LayerCount: 2
Fore
SplineSet
798 723 m 0,0,1
 853 723 853 723 897 711 c 128,-1,2
 941 699 941 699 975 682 c 1,3,-1
 944 612 l 1,4,5
 914 626 914 626 877.5 638 c 128,-1,6
 841 650 841 650 800 650 c 0,7,8
 743 650 743 650 713 620.5 c 128,-1,9
 683 591 683 591 683 525 c 2,10,-1
 683 386 l 1,11,-1
 887 386 l 1,12,-1
 887 320 l 1,13,-1
 683 320 l 1,14,-1
 683 216 l 2,15,16
 683 176 683 176 673.5 149.5 c 128,-1,17
 664 123 664 123 648.5 107 c 128,-1,18
 633 91 633 91 615 80 c 1,19,-1
 999 80 l 1,20,-1
 999 0 l 1,21,-1
 496 0 l 1,22,-1
 496 74 l 1,23,24
 525 81 525 81 547 97.5 c 128,-1,25
 569 114 569 114 582 142.5 c 128,-1,26
 595 171 595 171 595 215 c 2,27,-1
 595 320 l 1,28,-1
 499 320 l 1,29,-1
 499 386 l 1,30,-1
 595 386 l 1,31,-1
 595 534 l 2,32,33
 595 594 595 594 620 636 c 128,-1,34
 645 678 645 678 691 700.5 c 128,-1,35
 737 723 737 723 798 723 c 0,0,1
EndSplineSet
Validated: 1
EndChar

StartChar: M
Encoding: 77 77 53
Width: 1495
Flags: W
LayerCount: 2
Fore
SplineSet
951 546 m 0,0,1
 1042 546 1042 546 1087 499.5 c 128,-1,2
 1132 453 1132 453 1132 349 c 2,3,-1
 1132 0 l 1,4,-1
 1045 0 l 1,5,-1
 1045 345 l 2,6,7
 1045 408 1045 408 1018.5 440 c 128,-1,8
 992 472 992 472 936 472 c 0,9,10
 858 472 858 472 824.5 427 c 128,-1,11
 791 382 791 382 791 296 c 2,12,-1
 791 0 l 1,13,-1
 704 0 l 1,14,-1
 704 345 l 2,15,16
 704 387 704 387 692 415.5 c 128,-1,17
 680 444 680 444 656 458 c 128,-1,18
 632 472 632 472 594 472 c 0,19,20
 540 472 540 472 509 449.5 c 128,-1,21
 478 427 478 427 464.5 384 c 128,-1,22
 451 341 451 341 451 278 c 2,23,-1
 451 0 l 1,24,-1
 363 0 l 1,25,-1
 363 536 l 1,26,-1
 434 536 l 1,27,-1
 447 463 l 1,28,-1
 452 463 l 1,29,30
 469 491 469 491 493.5 509.5 c 128,-1,31
 518 528 518 528 548 537 c 128,-1,32
 578 546 578 546 610 546 c 0,33,34
 672 546 672 546 713.5 524 c 128,-1,35
 755 502 755 502 774 456 c 1,36,-1
 779 456 l 1,37,38
 806 502 806 502 852.5 524 c 128,-1,39
 899 546 899 546 951 546 c 0,0,1
758 737 m 0,40,41
 778 737 778 737 793.5 723.5 c 128,-1,42
 809 710 809 710 809 681 c 0,43,44
 809 653 809 653 793.5 639 c 128,-1,45
 778 625 778 625 758 625 c 0,46,47
 736 625 736 625 721 639 c 128,-1,48
 706 653 706 653 706 681 c 0,49,50
 706 710 706 710 721 723.5 c 128,-1,51
 736 737 736 737 758 737 c 0,40,41
EndSplineSet
Validated: 1
EndChar

StartChar: N
Encoding: 78 78 54
Width: 1495
Flags: W
LayerCount: 2
Fore
SplineSet
721.5 737 m 4,0,1
 741.5 737 741.5 737 757 723.5 c 132,-1,2
 772.5 710 772.5 710 772.5 681 c 4,3,4
 772.5 653 772.5 653 757 639 c 132,-1,5
 741.5 625 741.5 625 721.5 625 c 4,6,7
 699.5 625 699.5 625 684.5 639 c 132,-1,8
 669.5 653 669.5 653 669.5 681 c 4,9,10
 669.5 710 669.5 710 684.5 723.5 c 132,-1,11
 699.5 737 699.5 737 721.5 737 c 4,0,1
779.5 546 m 0,12,13
 875.5 546 875.5 546 924.5 499.5 c 128,-1,14
 973.5 453 973.5 453 973.5 349 c 2,15,-1
 973.5 0 l 1,16,-1
 886.5 0 l 1,17,-1
 886.5 343 l 2,18,19
 886.5 408 886.5 408 857.5 440 c 128,-1,20
 828.5 472 828.5 472 766.5 472 c 0,21,22
 677.5 472 677.5 472 643.5 422 c 128,-1,23
 609.5 372 609.5 372 609.5 278 c 2,24,-1
 609.5 0 l 1,25,-1
 521.5 0 l 1,26,-1
 521.5 536 l 1,27,-1
 592.5 536 l 1,28,-1
 605.5 463 l 1,29,-1
 610.5 463 l 1,30,31
 628.5 491 628.5 491 655 509.5 c 128,-1,32
 681.5 528 681.5 528 713.5 537 c 128,-1,33
 745.5 546 745.5 546 779.5 546 c 0,12,13
EndSplineSet
Validated: 524289
EndChar

StartChar: O
Encoding: 79 79 55
Width: 1495
Flags: W
LayerCount: 2
Fore
SplineSet
995.5 269 m 256,0,1
 995.5 180 995.5 180 965 117.5 c 128,-1,2
 934.5 55 934.5 55 878.5 22.5 c 128,-1,3
 822.5 -10 822.5 -10 745.5 -10 c 0,4,5
 674.5 -10 674.5 -10 619 22.5 c 128,-1,6
 563.5 55 563.5 55 531.5 117.5 c 128,-1,7
 499.5 180 499.5 180 499.5 269 c 0,8,9
 499.5 402 499.5 402 566.5 474 c 128,-1,10
 633.5 546 633.5 546 748.5 546 c 0,11,12
 821.5 546 821.5 546 877 513.5 c 128,-1,13
 932.5 481 932.5 481 964 419.5 c 128,-1,14
 995.5 358 995.5 358 995.5 269 c 256,0,1
747.5 63 m 256,15,16
 798.5 63 798.5 63 832 83 c 128,-1,17
 865.5 103 865.5 103 883 142.5 c 128,-1,18
 900.5 182 900.5 182 903.5 239 c 1,19,-1
 590.5 239 l 1,20,21
 593.5 182 593.5 182 611.5 142.5 c 128,-1,22
 629.5 103 629.5 103 663 83 c 128,-1,23
 696.5 63 696.5 63 747.5 63 c 256,15,16
746.5 472 m 0,24,25
 672.5 472 672.5 472 635.5 431.5 c 128,-1,26
 598.5 391 598.5 391 591.5 312 c 1,27,-1
 903.5 312 l 1,28,29
 898.5 365 898.5 365 880 400.5 c 128,-1,30
 861.5 436 861.5 436 828.5 454 c 128,-1,31
 795.5 472 795.5 472 746.5 472 c 0,24,25
EndSplineSet
Validated: 524289
EndChar

StartChar: P
Encoding: 80 80 56
Width: 1495
Flags: W
LayerCount: 2
Fore
SplineSet
628.5 744 m 4,0,1
 648.5 744 648.5 744 664 730.5 c 132,-1,2
 679.5 717 679.5 717 679.5 688 c 4,3,4
 679.5 660 679.5 660 664 646 c 132,-1,5
 648.5 632 648.5 632 628.5 632 c 4,6,7
 606.5 632 606.5 632 591.5 646 c 132,-1,8
 576.5 660 576.5 660 576.5 688 c 4,9,10
 576.5 717 576.5 717 591.5 730.5 c 132,-1,11
 606.5 744 606.5 744 628.5 744 c 4,0,1
766.5 546 m 0,12,13
 826.5 546 826.5 546 873.5 521 c 128,-1,14
 920.5 496 920.5 496 947.5 446.5 c 128,-1,15
 974.5 397 974.5 397 974.5 323 c 0,16,17
 974.5 252 974.5 252 947.5 193 c 128,-1,18
 920.5 134 920.5 134 871.5 90.5 c 128,-1,19
 822.5 47 822.5 47 755.5 21 c 128,-1,20
 688.5 -5 688.5 -5 608.5 -10 c 1,21,-1
 608.5 -240 l 1,22,-1
 520.5 -240 l 1,23,-1
 520.5 536 l 1,24,-1
 592.5 536 l 1,25,-1
 604.5 463 l 1,26,-1
 608.5 463 l 1,27,28
 623.5 486 623.5 486 644.5 505 c 128,-1,29
 665.5 524 665.5 524 695.5 535 c 128,-1,30
 725.5 546 725.5 546 766.5 546 c 0,12,13
748.5 472 m 0,31,32
 698.5 472 698.5 472 667.5 451.5 c 128,-1,33
 636.5 431 636.5 431 622.5 390 c 128,-1,34
 608.5 349 608.5 349 608.5 286 c 2,35,-1
 608.5 62 l 1,36,37
 673.5 70 673.5 70 724 91.5 c 128,-1,38
 774.5 113 774.5 113 810.5 146.5 c 128,-1,39
 846.5 180 846.5 180 865 224 c 128,-1,40
 883.5 268 883.5 268 883.5 321 c 0,41,42
 883.5 367 883.5 367 867.5 400.5 c 128,-1,43
 851.5 434 851.5 434 821.5 453 c 128,-1,44
 791.5 472 791.5 472 748.5 472 c 0,31,32
EndSplineSet
Validated: 524289
EndChar

StartChar: Q
Encoding: 81 81 57
Width: 1495
Flags: W
LayerCount: 2
Fore
SplineSet
998.5 -5 m 1,0,1
 978.5 -5 978.5 -5 959.5 2 c 128,-1,2
 940.5 9 940.5 9 926.5 26 c 1,3,-1
 926.5 291 l 5,4,5
 898.5 266 898.5 266 861.5 250.5 c 132,-1,6
 824.5 235 824.5 235 774.5 235 c 4,7,8
 732.5 235 732.5 235 683.5 258 c 132,-1,9
 634.5 281 634.5 281 592.5 318 c 132,-1,10
 550.5 355 550.5 355 522.5 401 c 132,-1,11
 494.5 447 494.5 447 494.5 493 c 4,12,13
 494.5 541 494.5 541 512 578 c 132,-1,14
 529.5 615 529.5 615 559.5 640.5 c 132,-1,15
 589.5 666 589.5 666 630 679 c 132,-1,16
 670.5 692 670.5 692 716.5 692 c 4,17,18
 750.5 692 750.5 692 780.5 684 c 4,19,20
 829.5 671 829.5 671 836.5 662.5 c 4,21,22
 871.5 622 871.5 622 885 631.5 c 4,23,24
 888.5 634 888.5 634 926.5 718 c 5,25,-1
 924.5 717 l 5,26,-1
 1000.5 717 l 6,27,-1
 998.5 -5 l 1,0,1
717.5 292 m 4,28,29
 755.5 292 755.5 292 791.5 304.5 c 132,-1,30
 827.5 317 827.5 317 857.5 340 c 5,31,-1
 624.5 580 l 5,32,33
 597.5 556 597.5 556 582.5 521.5 c 132,-1,34
 567.5 487 567.5 487 567.5 442 c 4,35,36
 567.5 406 567.5 406 579 378 c 132,-1,37
 590.5 350 590.5 350 610.5 331 c 132,-1,38
 630.5 312 630.5 312 658 302 c 132,-1,39
 685.5 292 685.5 292 717.5 292 c 4,28,29
926.5 571 m 5,40,41
 891.5 598 891.5 598 854 613.5 c 132,-1,42
 816.5 629 816.5 629 767.5 629 c 4,43,44
 695.5 629 695.5 629 644.5 596 c 5,45,-1
 875.5 356 l 5,46,47
 891.5 371 891.5 371 904.5 389 c 132,-1,48
 917.5 407 917.5 407 926.5 427 c 5,49,-1
 926.5 571 l 5,40,41
EndSplineSet
Validated: 524325
EndChar

StartChar: R
Encoding: 82 82 58
Width: 1495
Flags: W
LayerCount: 2
Fore
SplineSet
765 744 m 4,0,1
 785 744 785 744 800.5 730.5 c 132,-1,2
 816 717 816 717 816 688 c 4,3,4
 816 660 816 660 800.5 646 c 132,-1,5
 785 632 785 632 765 632 c 4,6,7
 743 632 743 632 728 646 c 132,-1,8
 713 660 713 660 713 688 c 4,9,10
 713 717 713 717 728 730.5 c 132,-1,11
 743 744 743 744 765 744 c 4,0,1
841 546 m 0,12,13
 856 546 856 546 873.5 544.5 c 128,-1,14
 891 543 891 543 904 540 c 1,15,-1
 893 459 l 1,16,17
 880 462 880 462 864.5 464 c 128,-1,18
 849 466 849 466 835 466 c 0,19,20
 804 466 804 466 776 453 c 128,-1,21
 748 440 748 440 726 416.5 c 128,-1,22
 704 393 704 393 691.5 360 c 128,-1,23
 679 327 679 327 679 286 c 2,24,-1
 679 0 l 1,25,-1
 591 0 l 1,26,-1
 591 536 l 1,27,-1
 663 536 l 1,28,-1
 673 438 l 1,29,-1
 677 438 l 1,30,31
 694 468 694 468 718 492.5 c 128,-1,32
 742 517 742 517 773 531.5 c 128,-1,33
 804 546 804 546 841 546 c 0,12,13
EndSplineSet
Validated: 1
EndChar

StartChar: S
Encoding: 83 83 59
Width: 1495
Flags: W
LayerCount: 2
Fore
SplineSet
764 744 m 4,0,1
 784 744 784 744 799.5 730.5 c 132,-1,2
 815 717 815 717 815 688 c 4,3,4
 815 660 815 660 799.5 646 c 132,-1,5
 784 632 784 632 764 632 c 4,6,7
 742 632 742 632 727 646 c 132,-1,8
 712 660 712 660 712 688 c 4,9,10
 712 717 712 717 727 730.5 c 132,-1,11
 742 744 742 744 764 744 c 4,0,1
939 148 m 0,12,13
 939 96 939 96 913 61 c 128,-1,14
 887 26 887 26 839 8 c 128,-1,15
 791 -10 791 -10 725 -10 c 0,16,17
 669 -10 669 -10 628.5 -1 c 128,-1,18
 588 8 588 8 557 24 c 1,19,-1
 557 104 l 1,20,21
 589 88 589 88 634.5 74.5 c 128,-1,22
 680 61 680 61 727 61 c 0,23,24
 794 61 794 61 824 82.5 c 128,-1,25
 854 104 854 104 854 140 c 0,26,27
 854 160 854 160 843 176 c 128,-1,28
 832 192 832 192 803.5 208 c 128,-1,29
 775 224 775 224 722 244 c 0,30,31
 670 264 670 264 633 284 c 128,-1,32
 596 304 596 304 576 332 c 128,-1,33
 556 360 556 360 556 404 c 0,34,35
 556 472 556 472 611.5 509 c 128,-1,36
 667 546 667 546 757 546 c 0,37,38
 806 546 806 546 848.5 536.5 c 128,-1,39
 891 527 891 527 928 510 c 1,40,-1
 898 440 l 1,41,42
 864 454 864 454 827 464 c 128,-1,43
 790 474 790 474 751 474 c 0,44,45
 697 474 697 474 668.5 456.5 c 128,-1,46
 640 439 640 439 640 409 c 0,47,48
 640 387 640 387 653 371.5 c 128,-1,49
 666 356 666 356 696.5 341.5 c 128,-1,50
 727 327 727 327 778 307 c 0,51,52
 829 288 829 288 865 268 c 128,-1,53
 901 248 901 248 920 219.5 c 128,-1,54
 939 191 939 191 939 148 c 0,12,13
EndSplineSet
Validated: 1
EndChar

StartChar: T
Encoding: 84 84 60
Width: 1495
Flags: W
AnchorPoint: "Anchor-0" 748.5 0 basechar 0
LayerCount: 2
Fore
SplineSet
747.5 -12 m 0,0,1
 682.5 -12 682.5 -12 636.5 16 c 128,-1,2
 590.5 44 590.5 44 567 96 c 128,-1,3
 543.5 148 543.5 148 543.5 219 c 0,4,5
 543.5 285 543.5 285 565.5 338.5 c 128,-1,6
 587.5 392 587.5 392 625.5 434 c 128,-1,7
 663.5 476 663.5 476 711.5 504 c 1,8,-1
 726.5 520 l 1,9,10
 770.5 545 770.5 545 817 555.5 c 128,-1,11
 863.5 566 863.5 566 918.5 566 c 0,12,13
 993.5 566 993.5 566 1049 544 c 128,-1,14
 1104.5 522 1104.5 522 1141.5 483 c 128,-1,15
 1178.5 444 1178.5 444 1197 392 c 128,-1,16
 1215.5 340 1215.5 340 1215.5 281 c 0,17,18
 1215.5 211 1215.5 211 1194.5 156.5 c 128,-1,19
 1173.5 102 1173.5 102 1137.5 61 c 128,-1,20
 1101.5 20 1101.5 20 1054.5 -9 c 1,21,-1
 1005.5 54 l 1,22,23
 1038.5 74 1038.5 74 1066 103.5 c 128,-1,24
 1093.5 133 1093.5 133 1110 174.5 c 128,-1,25
 1126.5 216 1126.5 216 1126.5 271 c 0,26,27
 1126.5 337 1126.5 337 1101.5 388 c 128,-1,28
 1076.5 439 1076.5 439 1028 468 c 128,-1,29
 979.5 497 979.5 497 908.5 497 c 0,30,31
 878.5 497 878.5 497 853 494 c 128,-1,32
 827.5 491 827.5 491 802.5 482 c 2,33,-1
 771.5 467 l 2,34,35
 733.5 449 733.5 449 701.5 414 c 128,-1,36
 669.5 379 669.5 379 650.5 330.5 c 128,-1,37
 631.5 282 631.5 282 631.5 221 c 0,38,39
 631.5 157 631.5 157 648 121.5 c 128,-1,40
 664.5 86 664.5 86 691 72 c 128,-1,41
 717.5 58 717.5 58 747.5 58 c 0,42,43
 778.5 58 778.5 58 805 71.5 c 128,-1,44
 831.5 85 831.5 85 847.5 120.5 c 128,-1,45
 863.5 156 863.5 156 863.5 221 c 0,46,47
 863.5 277 863.5 277 844.5 327 c 128,-1,48
 825.5 377 825.5 377 792.5 415 c 128,-1,49
 759.5 453 759.5 453 715.5 473 c 2,50,-1
 694.5 483 l 2,51,52
 671.5 491 671.5 491 649.5 494 c 128,-1,53
 627.5 497 627.5 497 599.5 497 c 0,54,55
 524.5 497 524.5 497 473 468 c 128,-1,56
 421.5 439 421.5 439 395 388.5 c 128,-1,57
 368.5 338 368.5 338 368.5 273 c 0,58,59
 368.5 221 368.5 221 383.5 180 c 128,-1,60
 398.5 139 398.5 139 426 108 c 128,-1,61
 453.5 77 453.5 77 490.5 54 c 1,62,-1
 440.5 -9 l 1,63,64
 397.5 16 397.5 16 361 55.5 c 128,-1,65
 324.5 95 324.5 95 302 150.5 c 128,-1,66
 279.5 206 279.5 206 279.5 277 c 0,67,68
 279.5 339 279.5 339 300 391.5 c 128,-1,69
 320.5 444 320.5 444 360.5 483 c 128,-1,70
 400.5 522 400.5 522 458.5 544 c 128,-1,71
 516.5 566 516.5 566 591.5 566 c 0,72,73
 640.5 566 640.5 566 682 556 c 128,-1,74
 723.5 546 723.5 546 764.5 523 c 1,75,-1
 789.5 503 l 1,76,77
 859.5 463 859.5 463 905.5 389 c 128,-1,78
 951.5 315 951.5 315 951.5 219 c 0,79,80
 951.5 148 951.5 148 928 96 c 128,-1,81
 904.5 44 904.5 44 859 16 c 128,-1,82
 813.5 -12 813.5 -12 747.5 -12 c 0,0,1
EndSplineSet
Validated: 1572869
EndChar

StartChar: U
Encoding: 85 85 61
Width: 1495
Flags: W
LayerCount: 2
Fore
SplineSet
970.5 536 m 1,0,-1
 970.5 0 l 1,1,-1
 898.5 0 l 1,2,-1
 885.5 71 l 1,3,-1
 881.5 71 l 1,4,5
 864.5 43 864.5 43 837.5 25 c 128,-1,6
 810.5 7 810.5 7 778.5 -1.5 c 128,-1,7
 746.5 -10 746.5 -10 711.5 -10 c 0,8,9
 647.5 -10 647.5 -10 604 10.5 c 128,-1,10
 560.5 31 560.5 31 538.5 74 c 128,-1,11
 516.5 117 516.5 117 516.5 185 c 2,12,-1
 516.5 536 l 1,13,-1
 605.5 536 l 1,14,-1
 605.5 191 l 2,15,16
 605.5 127 605.5 127 634.5 95 c 128,-1,17
 663.5 63 663.5 63 724.5 63 c 0,18,19
 784.5 63 784.5 63 819 85.5 c 128,-1,20
 853.5 108 853.5 108 868 151.5 c 128,-1,21
 882.5 195 882.5 195 882.5 257 c 2,22,-1
 882.5 536 l 1,23,-1
 970.5 536 l 1,0,-1
885.5 -116 m 0,24,25
 885.5 -138 885.5 -138 897.5 -149.5 c 128,-1,26
 909.5 -161 909.5 -161 930.5 -161 c 0,27,28
 947.5 -161 947.5 -161 959 -158.5 c 128,-1,29
 970.5 -156 970.5 -156 978.5 -155 c 1,30,-1
 978.5 -211 l 1,31,32
 964.5 -215 964.5 -215 950.5 -217.5 c 128,-1,33
 936.5 -220 936.5 -220 916.5 -220 c 0,34,35
 863.5 -220 863.5 -220 838.5 -195 c 128,-1,36
 813.5 -170 813.5 -170 813.5 -126 c 0,37,38
 813.5 -97 813.5 -97 828 -70 c 128,-1,39
 842.5 -43 842.5 -43 864 -21 c 128,-1,40
 885.5 1 885.5 1 905.5 15 c 1,41,-1
 953.5 0 l 1,42,43
 919.5 -32 919.5 -32 902.5 -58.5 c 128,-1,44
 885.5 -85 885.5 -85 885.5 -116 c 0,24,25
EndSplineSet
Validated: 524293
EndChar

StartChar: V
Encoding: 86 86 62
Width: 1495
Flags: W
LayerCount: 2
Fore
SplineSet
735.5 737 m 4,0,1
 755.5 737 755.5 737 771 723.5 c 132,-1,2
 786.5 710 786.5 710 786.5 681 c 4,3,4
 786.5 653 786.5 653 771 639 c 132,-1,5
 755.5 625 755.5 625 735.5 625 c 4,6,7
 713.5 625 713.5 625 698.5 639 c 132,-1,8
 683.5 653 683.5 653 683.5 681 c 4,9,10
 683.5 710 683.5 710 698.5 723.5 c 132,-1,11
 713.5 737 713.5 737 735.5 737 c 4,0,1
694.5 0 m 1,12,-1
 504.5 536 l 1,13,-1
 595.5 536 l 1,14,-1
 692.5 247 l 2,15,16
 700.5 223 700.5 223 712.5 190 c 128,-1,17
 724.5 157 724.5 157 735 125.5 c 128,-1,18
 745.5 94 745.5 94 750.5 74 c 1,19,-1
 754.5 74 l 1,20,21
 811.5 137 811.5 137 844 206.5 c 128,-1,22
 876.5 276 876.5 276 890 357.5 c 128,-1,23
 903.5 439 903.5 439 903.5 536 c 1,24,-1
 990.5 536 l 1,25,26
 990.5 431 990.5 431 972.5 340.5 c 128,-1,27
 954.5 250 954.5 250 911 166.5 c 128,-1,28
 867.5 83 867.5 83 789.5 0 c 1,29,-1
 694.5 0 l 1,12,-1
EndSplineSet
Validated: 524289
EndChar

StartChar: W
Encoding: 87 87 63
Width: 1495
Flags: W
LayerCount: 2
Fore
SplineSet
603.5 -10 m 0,0,1
 541.5 -10 541.5 -10 499 24 c 128,-1,2
 456.5 58 456.5 58 434.5 119 c 128,-1,3
 412.5 180 412.5 180 412.5 260 c 0,4,5
 412.5 322 412.5 322 424 467 c 128,-1,6
 435.5 612 435.5 612 454.5 652 c 5,7,-1
 340.5 652 l 5,8,-1
 340.5 725 l 5,9,-1
 1154.5 725 l 5,10,-1
 1154.5 652 l 5,11,-1
 1040.5 652 l 5,12,13
 1060.5 612 1060.5 612 1071.5 467 c 128,-1,14
 1082.5 322 1082.5 322 1082.5 260 c 0,15,16
 1082.5 180 1082.5 180 1060.5 119 c 128,-1,17
 1038.5 58 1038.5 58 996 24 c 128,-1,18
 953.5 -10 953.5 -10 891.5 -10 c 0,19,20
 836.5 -10 836.5 -10 801.5 15.5 c 128,-1,21
 766.5 41 766.5 41 749.5 100 c 1,22,-1
 744.5 100 l 1,23,24
 734.5 61 734.5 61 715.5 36.5 c 128,-1,25
 696.5 12 696.5 12 668.5 1 c 128,-1,26
 640.5 -10 640.5 -10 603.5 -10 c 0,0,1
609.5 63 m 0,27,28
 642.5 63 642.5 63 664 80 c 128,-1,29
 685.5 97 685.5 97 695.5 126.5 c 128,-1,30
 705.5 156 705.5 156 705.5 193 c 2,31,-1
 705.5 344 l 1,32,-1
 789.5 344 l 1,33,-1
 789.5 193 l 2,34,35
 789.5 152 789.5 152 801 122.5 c 128,-1,36
 812.5 93 812.5 93 833.5 78 c 128,-1,37
 854.5 63 854.5 63 884.5 63 c 0,38,39
 918.5 63 918.5 63 943 85 c 128,-1,40
 967.5 107 967.5 107 981 151 c 128,-1,41
 994.5 195 994.5 195 994.5 259 c 0,42,43
 994.5 322 994.5 322 983.5 467 c 128,-1,44
 972.5 612 972.5 612 952.5 652 c 5,45,-1
 543.5 652 l 5,46,47
 524.5 612 524.5 612 512.5 467 c 128,-1,48
 500.5 322 500.5 322 500.5 259 c 0,49,50
 500.5 162 500.5 162 530.5 112.5 c 128,-1,51
 560.5 63 560.5 63 609.5 63 c 0,27,28
EndSplineSet
Validated: 524289
EndChar

StartChar: X
Encoding: 88 88 64
Width: 1495
Flags: W
LayerCount: 2
Fore
SplineSet
738.5 722 m 0,0,1
 758.5 722 758.5 722 774 708.5 c 128,-1,2
 789.5 695 789.5 695 789.5 666 c 0,3,4
 789.5 638 789.5 638 774 624 c 128,-1,5
 758.5 610 758.5 610 738.5 610 c 0,6,7
 716.5 610 716.5 610 701.5 624 c 128,-1,8
 686.5 638 686.5 638 686.5 666 c 0,9,10
 686.5 695 686.5 695 701.5 708.5 c 128,-1,11
 716.5 722 716.5 722 738.5 722 c 0,0,1
918.5 574 m 1,12,-1
 968.5 523 l 1,13,-1
 798.5 353 l 1,14,-1
 967.5 183 l 1,15,-1
 917.5 132 l 1,16,-1
 746.5 301 l 1,17,-1
 579.5 132 l 1,18,-1
 527.5 183 l 1,19,-1
 696.5 353 l 1,20,-1
 526.5 522 l 1,21,-1
 578.5 574 l 1,22,-1
 747.5 403 l 1,23,-1
 918.5 574 l 1,12,-1
EndSplineSet
Validated: 524289
EndChar

StartChar: Y
Encoding: 89 89 65
Width: 1495
Flags: W
LayerCount: 2
Fore
SplineSet
751 744 m 4,0,1
 771 744 771 744 786.5 730.5 c 132,-1,2
 802 717 802 717 802 688 c 4,3,4
 802 660 802 660 786.5 646 c 132,-1,5
 771 632 771 632 751 632 c 4,6,7
 729 632 729 632 714 646 c 132,-1,8
 699 660 699 660 699 688 c 4,9,10
 699 717 699 717 714 730.5 c 132,-1,11
 729 744 729 744 751 744 c 4,0,1
493 536 m 1,12,-1
 587 536 l 1,13,-1
 703 231 l 2,14,15
 713 204 713 204 721.5 179 c 128,-1,16
 730 154 730 154 737 130.5 c 128,-1,17
 744 107 744 107 748 85 c 1,18,-1
 752 85 l 1,19,20
 758 110 758 110 771 150.5 c 128,-1,21
 784 191 784 191 798 232 c 2,22,-1
 907 536 l 1,23,-1
 1002 536 l 1,24,-1
 771 -74 l 2,25,26
 752 -124 752 -124 726.5 -161.5 c 128,-1,27
 701 -199 701 -199 664.5 -219.5 c 128,-1,28
 628 -240 628 -240 576 -240 c 0,29,30
 552 -240 552 -240 534 -237.5 c 128,-1,31
 516 -235 516 -235 503 -232 c 1,32,-1
 503 -162 l 1,33,34
 514 -164 514 -164 529.5 -166 c 128,-1,35
 545 -168 545 -168 562 -168 c 0,36,37
 593 -168 593 -168 615.5 -156.5 c 128,-1,38
 638 -145 638 -145 654 -123.5 c 128,-1,39
 670 -102 670 -102 681 -73 c 2,40,-1
 709 -2 l 1,41,-1
 493 536 l 1,12,-1
EndSplineSet
Validated: 1
EndChar

StartChar: Z
Encoding: 90 90 66
Width: 1495
Flags: W
LayerCount: 2
Fore
SplineSet
536.5 0 m 1,0,-1
 536.5 56 l 1,1,-1
 839.5 499 l 1,2,-1
 547.5 499 l 1,3,-1
 547.5 572 l 1,4,-1
 950.5 572 l 1,5,-1
 950.5 515 l 1,6,-1
 647.5 73 l 1,7,-1
 958.5 73 l 1,8,-1
 958.5 0 l 1,9,-1
 536.5 0 l 1,0,-1
752.5 773 m 0,10,11
 772.5 773 772.5 773 788 759.5 c 128,-1,12
 803.5 746 803.5 746 803.5 717 c 0,13,14
 803.5 689 803.5 689 788 675 c 128,-1,15
 772.5 661 772.5 661 752.5 661 c 0,16,17
 730.5 661 730.5 661 715.5 675 c 128,-1,18
 700.5 689 700.5 689 700.5 717 c 0,19,20
 700.5 746 700.5 746 715.5 759.5 c 128,-1,21
 730.5 773 730.5 773 752.5 773 c 0,10,11
EndSplineSet
Validated: 524289
EndChar

StartChar: a
Encoding: 97 97 67
Width: 1495
Flags: W
LayerCount: 2
Fore
SplineSet
772.5 545 m 0,0,1
 870.5 545 870.5 545 917.5 502 c 128,-1,2
 964.5 459 964.5 459 964.5 365 c 2,3,-1
 964.5 0 l 1,4,-1
 900.5 0 l 1,5,-1
 883.5 76 l 1,6,-1
 879.5 76 l 1,7,8
 856.5 47 856.5 47 832 27.5 c 128,-1,9
 807.5 8 807.5 8 776 -1 c 128,-1,10
 744.5 -10 744.5 -10 699.5 -10 c 0,11,12
 651.5 -10 651.5 -10 613 7 c 128,-1,13
 574.5 24 574.5 24 552.5 59.5 c 128,-1,14
 530.5 95 530.5 95 530.5 149 c 0,15,16
 530.5 229 530.5 229 593.5 272.5 c 128,-1,17
 656.5 316 656.5 316 787.5 320 c 2,18,-1
 878.5 323 l 1,19,-1
 878.5 355 l 2,20,21
 878.5 422 878.5 422 849.5 448 c 128,-1,22
 820.5 474 820.5 474 767.5 474 c 0,23,24
 725.5 474 725.5 474 687.5 461.5 c 128,-1,25
 649.5 449 649.5 449 616.5 433 c 1,26,-1
 589.5 499 l 1,27,28
 624.5 518 624.5 518 672.5 531.5 c 128,-1,29
 720.5 545 720.5 545 772.5 545 c 0,0,1
798.5 259 m 2,30,31
 698.5 255 698.5 255 660 227 c 128,-1,32
 621.5 199 621.5 199 621.5 148 c 0,33,34
 621.5 103 621.5 103 649 82 c 128,-1,35
 676.5 61 676.5 61 719.5 61 c 0,36,37
 787.5 61 787.5 61 832.5 98.5 c 128,-1,38
 877.5 136 877.5 136 877.5 214 c 2,39,-1
 877.5 262 l 1,40,-1
 798.5 259 l 2,30,31
EndSplineSet
Validated: 524289
EndChar

StartChar: b
Encoding: 98 98 68
Width: 1495
Flags: W
AnchorPoint: "Anchor-0" 627 0 basechar 0
LayerCount: 2
Fore
SplineSet
489 566 m 0,0,1
 573 566 573 566 623 539 c 128,-1,2
 673 512 673 512 707 469 c 1,3,-1
 727 428 l 1,4,-1
 739 266 l 1,5,-1
 739 0 l 1,6,-1
 653 0 l 1,7,-1
 653 306 l 2,8,9
 653 365 653 365 642.5 400 c 128,-1,10
 632 435 632 435 609 456 c 0,11,12
 588 475 588 475 560.5 484.5 c 128,-1,13
 533 494 533 494 488 494 c 0,14,15
 416 494 416 494 363.5 460.5 c 128,-1,16
 311 427 311 427 282.5 369.5 c 128,-1,17
 254 312 254 312 254 239 c 2,18,-1
 254 228 l 2,19,20
 254 172 254 172 269 134 c 128,-1,21
 284 96 284 96 310.5 77 c 128,-1,22
 337 58 337 58 373 58 c 0,23,24
 398 58 398 58 417 69.5 c 128,-1,25
 436 81 436 81 447 103 c 128,-1,26
 458 125 458 125 458 157 c 0,27,28
 458 207 458 207 432 232.5 c 128,-1,29
 406 258 406 258 364 258 c 0,30,31
 325 258 325 258 290 238 c 128,-1,32
 255 218 255 218 226 186 c 1,33,-1
 211 248 l 1,34,35
 240 284 240 284 285 306 c 128,-1,36
 330 328 330 328 379 328 c 0,37,38
 427 328 427 328 463.5 309 c 128,-1,39
 500 290 500 290 520.5 253.5 c 128,-1,40
 541 217 541 217 541 165 c 0,41,42
 541 110 541 110 520 70 c 128,-1,43
 499 30 499 30 461 9 c 128,-1,44
 423 -12 423 -12 371 -12 c 256,45,46
 319 -12 319 -12 273.5 14 c 128,-1,47
 228 40 228 40 200.5 96 c 128,-1,48
 173 152 173 152 173 241 c 0,49,50
 173 347 173 347 215.5 419 c 128,-1,51
 258 491 258 491 329.5 528.5 c 128,-1,52
 401 566 401 566 489 566 c 0,0,1
1322 554 m 5,53,-1
 1322 0 l 5,54,-1
 952 0 l 1,55,-1
 916 54 l 1,56,57
 944 81 944 81 968.5 112.5 c 128,-1,58
 993 144 993 144 1009 187 c 128,-1,59
 1025 230 1025 230 1025 292 c 0,60,61
 1025 350 1025 350 1006 395.5 c 128,-1,62
 987 441 987 441 952.5 467.5 c 128,-1,63
 918 494 918 494 871 494 c 0,64,65
 830 494 830 494 804 479.5 c 128,-1,66
 778 465 778 465 761 436 c 0,67,68
 749 414 749 414 744 382 c 128,-1,69
 739 350 739 350 739 285 c 2,70,-1
 739 0 l 1,71,-1
 653 0 l 1,72,-1
 653 258 l 1,73,-1
 702 422 l 1,74,-1
 697 477 l 1,75,76
 727 524 727 524 769 545 c 128,-1,77
 811 566 811 566 872 566 c 0,78,79
 949 566 949 566 1003 529.5 c 128,-1,80
 1057 493 1057 493 1085 431 c 128,-1,81
 1113 369 1113 369 1113 292 c 0,82,83
 1113 236 1113 236 1101 194 c 128,-1,84
 1089 152 1089 152 1070 120 c 128,-1,85
 1051 88 1051 88 1028 61 c 1,86,-1
 1008 70 l 1,87,-1
 1236 70 l 5,88,-1
 1236 554 l 5,89,-1
 1322 554 l 5,53,-1
EndSplineSet
Validated: 1048581
EndChar

StartChar: c
Encoding: 99 99 69
Width: 1495
Flags: W
AnchorPoint: "Anchor-1" 747.5 536 basechar 0
AnchorPoint: "Anchor-0" 747.5 0 basechar 0
LayerCount: 2
Fore
SplineSet
803.5 -10 m 0,0,1
 685.5 -10 685.5 -10 620.5 57 c 128,-1,2
 555.5 124 555.5 124 555.5 245 c 0,3,4
 555.5 325 555.5 325 584.5 380.5 c 128,-1,5
 613.5 436 613.5 436 667.5 465 c 1,6,-1
 534.5 465 l 1,7,-1
 534.5 537 l 1,8,-1
 960.5 537 l 1,9,-1
 960.5 465 l 1,10,-1
 847.5 465 l 2,11,12
 753.5 465 753.5 465 700 411.5 c 128,-1,13
 646.5 358 646.5 358 646.5 252 c 0,14,15
 646.5 165 646.5 165 689.5 114.5 c 128,-1,16
 732.5 64 732.5 64 812.5 64 c 0,17,18
 849.5 64 849.5 64 883.5 73.5 c 128,-1,19
 917.5 83 917.5 83 949.5 99 c 1,20,-1
 949.5 21 l 1,21,22
 920.5 5 920.5 5 885.5 -2.5 c 128,-1,23
 850.5 -10 850.5 -10 803.5 -10 c 0,0,1
EndSplineSet
Validated: 524289
EndChar

StartChar: d
Encoding: 100 100 70
Width: 1495
Flags: W
AnchorPoint: "Anchor-0" 599 0 basechar 0
LayerCount: 2
Fore
SplineSet
732 -12 m 0,0,1
 688 -12 688 -12 652 2.5 c 128,-1,2
 616 17 616 17 591 47 c 0,3,4
 578 63 578 63 566 85 c 128,-1,5
 554 107 554 107 547 146 c 128,-1,6
 540 185 540 185 540 251 c 2,7,-1
 540 285 l 2,8,9
 540 340 540 340 535 381.5 c 128,-1,10
 530 423 530 423 513 448 c 0,11,12
 500 469 500 469 477 481.5 c 128,-1,13
 454 494 454 494 410 494 c 256,14,15
 366 494 366 494 332.5 468.5 c 128,-1,16
 299 443 299 443 281 397 c 128,-1,17
 263 351 263 351 263 289 c 0,18,19
 263 233 263 233 278.5 188 c 128,-1,20
 294 143 294 143 321 109.5 c 128,-1,21
 348 76 348 76 383 51 c 1,22,-1
 330 -11 l 1,23,24
 280 29 280 29 245 73 c 128,-1,25
 210 117 210 117 192.5 171 c 128,-1,26
 175 225 175 225 175 292 c 0,27,28
 175 378 175 378 204 439.5 c 128,-1,29
 233 501 233 501 287 533.5 c 128,-1,30
 341 566 341 566 414 566 c 0,31,32
 471 566 471 566 510 549.5 c 128,-1,33
 549 533 549 533 575 503 c 0,34,35
 594 481 594 481 605.5 454.5 c 128,-1,36
 617 428 617 428 622 393 c 128,-1,37
 627 358 627 358 627 308 c 2,38,-1
 627 259 l 2,39,40
 627 189 627 189 634.5 152 c 128,-1,41
 642 115 642 115 660 94 c 0,42,43
 674 78 674 78 694 69 c 128,-1,44
 714 60 714 60 744 60 c 0,45,46
 772 60 772 60 793 70 c 128,-1,47
 814 80 814 80 828 97 c 0,48,49
 845 118 845 118 853 151 c 128,-1,50
 861 184 861 184 861 245 c 2,51,-1
 861 554 l 1,52,-1
 947 554 l 1,53,-1
 947 262 l 2,54,55
 947 206 947 206 951.5 173.5 c 128,-1,56
 956 141 956 141 969 118 c 0,57,58
 986 89 986 89 1012.5 74.5 c 128,-1,59
 1039 60 1039 60 1075 60 c 0,60,61
 1121 60 1121 60 1156.5 86.5 c 128,-1,62
 1192 113 1192 113 1212 159 c 128,-1,63
 1232 205 1232 205 1232 263 c 0,64,65
 1232 324 1232 324 1216 368.5 c 128,-1,66
 1200 413 1200 413 1172.5 445.5 c 128,-1,67
 1145 478 1145 478 1112 500 c 1,68,-1
 1170 563 l 1,69,70
 1213 528 1213 528 1247 486.5 c 128,-1,71
 1281 445 1281 445 1300.5 390.5 c 128,-1,72
 1320 336 1320 336 1320 263 c 0,73,74
 1320 187 1320 187 1291 124.5 c 128,-1,75
 1262 62 1262 62 1206.5 25 c 128,-1,76
 1151 -12 1151 -12 1071 -12 c 0,77,78
 1006 -12 1006 -12 967 13.5 c 128,-1,79
 928 39 928 39 900 82 c 1,80,-1
 905 81 l 1,81,82
 877 34 877 34 834 11 c 128,-1,83
 791 -12 791 -12 732 -12 c 0,0,1
EndSplineSet
Validated: 1048581
EndChar

StartChar: e
Encoding: 101 101 71
Width: 1495
Flags: W
LayerCount: 2
Fore
SplineSet
755.5 546 m 0,0,1
 824.5 546 824.5 546 874 516 c 128,-1,2
 923.5 486 923.5 486 950 431.5 c 128,-1,3
 976.5 377 976.5 377 976.5 304 c 2,4,-1
 976.5 251 l 1,5,-1
 609.5 251 l 1,6,7
 611.5 160 611.5 160 656 112.5 c 128,-1,8
 700.5 65 700.5 65 780.5 65 c 0,9,10
 831.5 65 831.5 65 871 74.5 c 128,-1,11
 910.5 84 910.5 84 952.5 102 c 1,12,-1
 952.5 25 l 1,13,14
 911.5 7 911.5 7 871.5 -1.5 c 128,-1,15
 831.5 -10 831.5 -10 776.5 -10 c 0,16,17
 700.5 -10 700.5 -10 642 21 c 128,-1,18
 583.5 52 583.5 52 551 113.5 c 128,-1,19
 518.5 175 518.5 175 518.5 264 c 0,20,21
 518.5 352 518.5 352 548 415 c 128,-1,22
 577.5 478 577.5 478 631 512 c 128,-1,23
 684.5 546 684.5 546 755.5 546 c 0,0,1
754.5 474 m 0,24,25
 691.5 474 691.5 474 655 433.5 c 128,-1,26
 618.5 393 618.5 393 611.5 321 c 1,27,-1
 884.5 321 l 1,28,29
 884.5 367 884.5 367 870.5 401 c 128,-1,30
 856.5 435 856.5 435 828 454.5 c 128,-1,31
 799.5 474 799.5 474 754.5 474 c 0,24,25
EndSplineSet
Validated: 524289
EndChar

StartChar: f
Encoding: 102 102 72
Width: 1495
Flags: W
AnchorPoint: "Anchor-0" 628.5 0 basechar 0
LayerCount: 2
Fore
SplineSet
427.5 346 m 0,0,1
 495.5 346 495.5 346 539 320.5 c 128,-1,2
 582.5 295 582.5 295 604 255.5 c 128,-1,3
 625.5 216 625.5 216 625.5 173 c 0,4,5
 625.5 133 625.5 133 612.5 102 c 128,-1,6
 599.5 71 599.5 71 580.5 57 c 1,7,-1
 555.5 70 l 1,8,-1
 832.5 70 l 1,9,-1
 832.5 0 l 1,10,-1
 526.5 0 l 1,11,-1
 497.5 52 l 1,12,13
 517.5 72 517.5 72 529.5 96.5 c 128,-1,14
 541.5 121 541.5 121 541.5 158 c 0,15,16
 541.5 212 541.5 212 512.5 244 c 128,-1,17
 483.5 276 483.5 276 427.5 276 c 0,18,19
 392.5 276 392.5 276 367 260.5 c 128,-1,20
 341.5 245 341.5 245 328 220 c 128,-1,21
 314.5 195 314.5 195 314.5 164 c 0,22,23
 314.5 130 314.5 130 328.5 101.5 c 128,-1,24
 342.5 73 342.5 73 373.5 51 c 1,25,-1
 327.5 -7 l 1,26,27
 284.5 23 284.5 23 257.5 66 c 128,-1,28
 230.5 109 230.5 109 230.5 166 c 0,29,30
 230.5 219 230.5 219 255 259.5 c 128,-1,31
 279.5 300 279.5 300 324 323 c 128,-1,32
 368.5 346 368.5 346 427.5 346 c 0,0,1
1014.5 566 m 0,33,34
 1076.5 566 1076.5 566 1122.5 549 c 128,-1,35
 1168.5 532 1168.5 532 1199.5 501 c 0,36,37
 1233.5 468 1233.5 468 1249 419 c 128,-1,38
 1264.5 370 1264.5 370 1264.5 292 c 2,39,-1
 1264.5 0 l 1,40,-1
 771.5 0 l 1,41,-1
 771.5 292 l 2,42,43
 771.5 347 771.5 347 778.5 385.5 c 128,-1,44
 785.5 424 785.5 424 800 452 c 128,-1,45
 814.5 480 814.5 480 836.5 502 c 0,46,47
 867.5 532 867.5 532 912 549 c 128,-1,48
 956.5 566 956.5 566 1014.5 566 c 0,33,34
1015.5 494 m 0,49,50
 978.5 494 978.5 494 950 482.5 c 128,-1,51
 921.5 471 921.5 471 901.5 451 c 0,52,53
 880.5 429 880.5 429 869 391.5 c 128,-1,54
 857.5 354 857.5 354 857.5 279 c 2,55,-1
 857.5 70 l 1,56,-1
 1178.5 70 l 1,57,-1
 1178.5 271 l 2,58,59
 1178.5 345 1178.5 345 1166.5 387 c 128,-1,60
 1154.5 429 1154.5 429 1132.5 451 c 0,61,62
 1112.5 471 1112.5 471 1084.5 482.5 c 128,-1,63
 1056.5 494 1056.5 494 1015.5 494 c 0,49,50
EndSplineSet
Validated: 1572869
EndChar

StartChar: g
Encoding: 103 103 73
Width: 1495
Flags: W
LayerCount: 2
Fore
SplineSet
730 546 m 0,0,1
 783 546 783 546 825.5 526 c 128,-1,2
 868 506 868 506 898 465 c 1,3,-1
 903 465 l 1,4,-1
 915 536 l 1,5,-1
 985 536 l 1,6,-1
 985 -9 l 2,7,8
 985 -85 985 -85 959 -136.5 c 128,-1,9
 933 -188 933 -188 880 -214 c 128,-1,10
 827 -240 827 -240 745 -240 c 0,11,12
 687 -240 687 -240 638.5 -231.5 c 128,-1,13
 590 -223 590 -223 552 -206 c 1,14,-1
 552 -125 l 1,15,16
 590 -145 590 -145 641 -156 c 128,-1,17
 692 -167 692 -167 750 -167 c 0,18,19
 819 -167 819 -167 858.5 -126.5 c 128,-1,20
 898 -86 898 -86 898 -16 c 2,21,-1
 898 5 l 2,22,23
 898 17 898 17 899 39.5 c 128,-1,24
 900 62 900 62 901 71 c 1,25,-1
 897 71 l 1,26,27
 869 30 869 30 827.5 10 c 128,-1,28
 786 -10 786 -10 731 -10 c 0,29,30
 627 -10 627 -10 568.5 63 c 128,-1,31
 510 136 510 136 510 267 c 0,32,33
 510 395 510 395 568.5 470.5 c 128,-1,34
 627 546 627 546 730 546 c 0,0,1
742 472 m 0,35,36
 697 472 697 472 665.5 448 c 128,-1,37
 634 424 634 424 617.5 378 c 128,-1,38
 601 332 601 332 601 266 c 0,39,40
 601 167 601 167 637.5 114.5 c 128,-1,41
 674 62 674 62 744 62 c 0,42,43
 785 62 785 62 814 72.5 c 128,-1,44
 843 83 843 83 862 105.5 c 128,-1,45
 881 128 881 128 890 163 c 128,-1,46
 899 198 899 198 899 246 c 2,47,-1
 899 267 l 2,48,49
 899 340 899 340 882.5 385 c 128,-1,50
 866 430 866 430 831 451 c 128,-1,51
 796 472 796 472 742 472 c 0,35,36
EndSplineSet
Validated: 1
EndChar

StartChar: h
Encoding: 104 104 74
Width: 1495
Flags: W
LayerCount: 2
Fore
SplineSet
609.5 537 m 2,0,1
 609.5 518 609.5 518 608 498 c 128,-1,2
 606.5 478 606.5 478 604.5 462 c 1,3,-1
 610.5 462 l 1,4,5
 627.5 490 627.5 490 653.5 508 c 128,-1,6
 679.5 526 679.5 526 711.5 535.5 c 128,-1,7
 743.5 545 743.5 545 777.5 545 c 0,8,9
 842.5 545 842.5 545 886 524.5 c 128,-1,10
 929.5 504 929.5 504 951.5 461 c 128,-1,11
 973.5 418 973.5 418 973.5 349 c 2,12,-1
 973.5 0 l 1,13,-1
 886.5 0 l 1,14,-1
 886.5 343 l 2,15,16
 886.5 408 886.5 408 857.5 440 c 128,-1,17
 828.5 472 828.5 472 766.5 472 c 0,18,19
 706.5 472 706.5 472 672.5 449.5 c 128,-1,20
 638.5 427 638.5 427 624 383.5 c 128,-1,21
 609.5 340 609.5 340 609.5 277 c 2,22,-1
 609.5 0 l 1,23,-1
 521.5 0 l 1,24,-1
 521.5 760 l 1,25,-1
 609.5 760 l 1,26,-1
 609.5 537 l 2,0,1
EndSplineSet
Validated: 524289
EndChar

StartChar: i
Encoding: 105 105 75
Width: 1495
Flags: W
LayerCount: 2
Fore
SplineSet
791 536 m 1,0,-1
 791 0 l 1,1,-1
 703 0 l 1,2,-1
 703 536 l 1,3,-1
 791 536 l 1,0,-1
748 737 m 0,4,5
 768 737 768 737 783.5 723.5 c 128,-1,6
 799 710 799 710 799 681 c 0,7,8
 799 653 799 653 783.5 639 c 128,-1,9
 768 625 768 625 748 625 c 0,10,11
 726 625 726 625 711 639 c 128,-1,12
 696 653 696 653 696 681 c 0,13,14
 696 710 696 710 711 723.5 c 128,-1,15
 726 737 726 737 748 737 c 0,4,5
EndSplineSet
Validated: 513
Substitution2: "Single Substitution lookup 66 subtable" dotlessi
Substitution2: "Single Substitution lookup 65 subtable" dotlessi
EndChar

StartChar: j
Encoding: 106 106 76
Width: 1495
Flags: W
AnchorPoint: "Anchor-1" 747.5 536 basechar 0
AnchorPoint: "Anchor-0" 747.5 0 basechar 0
LayerCount: 2
Fore
SplineSet
936.5 536 m 1,0,-1
 936.5 470 l 1,1,-1
 825.5 313 l 1,2,-1
 926.5 313 l 1,3,-1
 926.5 243 l 1,4,-1
 775.5 243 l 1,5,-1
 652.5 68 l 1,6,-1
 943.5 68 l 1,7,-1
 943.5 0 l 1,8,-1
 551.5 0 l 1,9,-1
 551.5 58 l 1,10,-1
 681.5 243 l 1,11,-1
 569.5 243 l 1,12,-1
 569.5 313 l 1,13,-1
 730.5 313 l 1,14,-1
 839.5 468 l 1,15,-1
 568.5 468 l 1,16,-1
 568.5 536 l 1,17,-1
 936.5 536 l 1,0,-1
EndSplineSet
Validated: 524801
Substitution2: "Single Substitution lookup 66 subtable" uni0237
Substitution2: "Single Substitution lookup 65 subtable" uni0237
EndChar

StartChar: k
Encoding: 107 107 77
Width: 1495
Flags: W
LayerCount: 2
Fore
SplineSet
614.5 363 m 2,0,1
 614.5 347 614.5 347 613 321 c 128,-1,2
 611.5 295 611.5 295 610.5 276 c 1,3,-1
 614.5 276 l 1,4,5
 620.5 284 620.5 284 632.5 299 c 128,-1,6
 644.5 314 644.5 314 657 329.5 c 128,-1,7
 669.5 345 669.5 345 678.5 355 c 2,8,-1
 849.5 536 l 1,9,-1
 952.5 536 l 1,10,-1
 735.5 307 l 1,11,-1
 967.5 0 l 1,12,-1
 861.5 0 l 1,13,-1
 675.5 250 l 1,14,-1
 614.5 197 l 1,15,-1
 614.5 0 l 1,16,-1
 527.5 0 l 1,17,-1
 527.5 760 l 1,18,-1
 614.5 760 l 1,19,-1
 614.5 363 l 2,0,1
EndSplineSet
Validated: 524289
EndChar

StartChar: l
Encoding: 108 108 78
Width: 1495
Flags: W
AnchorPoint: "Anchor-0" 651 0 basechar 0
LayerCount: 2
Fore
SplineSet
1110 554 m 1,0,-1
 1110 0 l 1,1,-1
 385 0 l 1,2,-1
 385 313 l 2,3,4
 385 387 385 387 401.5 431 c 128,-1,5
 418 475 418 475 448 504 c 0,6,7
 480 535 480 535 524.5 550.5 c 128,-1,8
 569 566 569 566 627 566 c 0,9,10
 687 566 687 566 731.5 551 c 128,-1,11
 776 536 776 536 805 507 c 0,12,13
 837 476 837 476 851.5 429.5 c 128,-1,14
 866 383 866 383 866 322 c 2,15,-1
 866 222 l 1,16,-1
 471 222 l 1,17,-1
 471 70 l 1,18,-1
 1024 70 l 1,19,-1
 1024 554 l 1,20,-1
 1110 554 l 1,0,-1
626 496 m 0,21,22
 545 496 545 496 508 454.5 c 128,-1,23
 471 413 471 413 471 321 c 2,24,-1
 471 292 l 1,25,-1
 780 292 l 1,26,-1
 780 320 l 2,27,28
 780 415 780 415 743 455.5 c 128,-1,29
 706 496 706 496 626 496 c 0,21,22
EndSplineSet
Validated: 1048577
EndChar

StartChar: m
Encoding: 109 109 79
Width: 1495
Flags: W
AnchorPoint: "Anchor-0" 666 0 basechar 0
LayerCount: 2
Fore
SplineSet
740 566 m 0,0,1
 819 566 819 566 875.5 547.5 c 128,-1,2
 932 529 932 529 969 494 c 0,3,4
 997 469 997 469 1014.5 437 c 128,-1,5
 1032 405 1032 405 1040.5 363 c 128,-1,6
 1049 321 1049 321 1049 266 c 2,7,-1
 1049 0 l 1,8,-1
 446 0 l 1,9,-1
 446 268 l 2,10,11
 446 320 446 320 454.5 361.5 c 128,-1,12
 463 403 463 403 480.5 435.5 c 128,-1,13
 498 468 498 468 524 493 c 0,14,15
 561 528 561 528 613.5 547 c 128,-1,16
 666 566 666 566 740 566 c 0,0,1
693 495 m 0,17,18
 651 495 651 495 619 474 c 128,-1,19
 587 453 587 453 567 418 c 0,20,21
 551 390 551 390 541.5 349.5 c 128,-1,22
 532 309 532 309 532 249 c 2,23,-1
 532 68 l 1,24,-1
 537 68 l 1,25,26
 605 119 605 119 658 175 c 128,-1,27
 711 231 711 231 741.5 289 c 128,-1,28
 772 347 772 347 772 402 c 0,29,30
 772 430 772 430 763.5 450.5 c 128,-1,31
 755 471 755 471 738 483 c 128,-1,32
 721 495 721 495 693 495 c 0,17,18
858 393 m 0,33,34
 858 334 858 334 831 277 c 128,-1,35
 804 220 804 220 754 162.5 c 128,-1,36
 704 105 704 105 635 45 c 1,37,-1
 633 65 l 1,38,39
 662 67 662 67 690 68.5 c 128,-1,40
 718 70 718 70 746 70 c 2,41,-1
 963 70 l 1,42,-1
 963 249 l 2,43,44
 963 323 963 323 948.5 372 c 128,-1,45
 934 421 934 421 901 450.5 c 128,-1,46
 868 480 868 480 814 494 c 1,47,-1
 816 501 l 1,48,49
 835 479 835 479 846.5 454.5 c 128,-1,50
 858 430 858 430 858 393 c 0,33,34
EndSplineSet
Validated: 1048581
EndChar

StartChar: n
Encoding: 110 110 80
Width: 1495
Flags: W
AnchorPoint: "Anchor-0" 638 0 basechar 0
LayerCount: 2
Fore
SplineSet
580 566 m 0,0,1
 626 566 626 566 659 552.5 c 128,-1,2
 692 539 692 539 715 516.5 c 128,-1,3
 738 494 738 494 754 465 c 1,4,-1
 741 466 l 1,5,6
 772 518 772 518 815 542 c 128,-1,7
 858 566 858 566 922 566 c 0,8,9
 999 566 999 566 1053 529.5 c 128,-1,10
 1107 493 1107 493 1135.5 431 c 128,-1,11
 1164 369 1164 369 1164 292 c 0,12,13
 1164 226 1164 226 1146 173 c 128,-1,14
 1128 120 1128 120 1093.5 75.5 c 128,-1,15
 1059 31 1059 31 1009 -8 c 1,16,-1
 955 53 l 1,17,18
 990 78 990 78 1017.5 111.5 c 128,-1,19
 1045 145 1045 145 1060.5 189.5 c 128,-1,20
 1076 234 1076 234 1076 292 c 256,21,22
 1076 350 1076 350 1057 395.5 c 128,-1,23
 1038 441 1038 441 1003 467.5 c 128,-1,24
 968 494 968 494 921 494 c 0,25,26
 880 494 880 494 853.5 479.5 c 128,-1,27
 827 465 827 465 811 436 c 0,28,29
 798 414 798 414 794 382 c 128,-1,30
 790 350 790 350 790 291 c 2,31,-1
 790 0 l 1,32,-1
 704 0 l 1,33,-1
 704 291 l 2,34,35
 704 348 704 348 700 381 c 128,-1,36
 696 414 696 414 682 436 c 0,37,38
 665 465 665 465 639 479.5 c 128,-1,39
 613 494 613 494 576 494 c 0,40,41
 530 494 530 494 494.5 467.5 c 128,-1,42
 459 441 459 441 439 395.5 c 128,-1,43
 419 350 419 350 419 292 c 0,44,45
 419 232 419 232 435.5 187 c 128,-1,46
 452 142 452 142 479 110 c 128,-1,47
 506 78 506 78 539 55 c 1,48,-1
 481 -8 l 1,49,50
 438 27 438 27 404 68.5 c 128,-1,51
 370 110 370 110 350.5 164.5 c 128,-1,52
 331 219 331 219 331 292 c 0,53,54
 331 373 331 373 361.5 434.5 c 128,-1,55
 392 496 392 496 448 531 c 128,-1,56
 504 566 504 566 580 566 c 0,0,1
EndSplineSet
Validated: 1048581
EndChar

StartChar: o
Encoding: 111 111 81
Width: 1495
Flags: W
LayerCount: 2
Fore
SplineSet
995.5 269 m 0,0,1
 995.5 202 995.5 202 978 150.5 c 128,-1,2
 960.5 99 960.5 99 928 63 c 128,-1,3
 895.5 27 895.5 27 849 8.5 c 128,-1,4
 802.5 -10 802.5 -10 745.5 -10 c 0,5,6
 692.5 -10 692.5 -10 647.5 8.5 c 128,-1,7
 602.5 27 602.5 27 569.5 63 c 128,-1,8
 536.5 99 536.5 99 518 150.5 c 128,-1,9
 499.5 202 499.5 202 499.5 269 c 0,10,11
 499.5 358 499.5 358 529.5 419.5 c 128,-1,12
 559.5 481 559.5 481 615.5 513.5 c 128,-1,13
 671.5 546 671.5 546 748.5 546 c 0,14,15
 821.5 546 821.5 546 877 513.5 c 128,-1,16
 932.5 481 932.5 481 964 419.5 c 128,-1,17
 995.5 358 995.5 358 995.5 269 c 0,0,1
590.5 269 m 0,18,19
 590.5 206 590.5 206 607 159.5 c 128,-1,20
 623.5 113 623.5 113 658.5 88 c 128,-1,21
 693.5 63 693.5 63 747.5 63 c 256,22,23
 801.5 63 801.5 63 836.5 88 c 128,-1,24
 871.5 113 871.5 113 888 159.5 c 128,-1,25
 904.5 206 904.5 206 904.5 269 c 0,26,27
 904.5 333 904.5 333 887.5 378 c 128,-1,28
 870.5 423 870.5 423 836 447.5 c 128,-1,29
 801.5 472 801.5 472 746.5 472 c 0,30,31
 664.5 472 664.5 472 627.5 418 c 128,-1,32
 590.5 364 590.5 364 590.5 269 c 0,18,19
EndSplineSet
Validated: 524289
EndChar

StartChar: p
Encoding: 112 112 82
Width: 1495
Flags: W
AnchorPoint: "Anchor-0" 660 0 basechar 0
LayerCount: 2
Fore
SplineSet
548 346 m 0,0,1
 616 346 616 346 659.5 320.5 c 128,-1,2
 703 295 703 295 724.5 255.5 c 128,-1,3
 746 216 746 216 746 173 c 0,4,5
 746 133 746 133 733 102 c 128,-1,6
 720 71 720 71 701 57 c 1,7,-1
 676 70 l 1,8,-1
 1058 70 l 1,9,-1
 1058 554 l 1,10,-1
 1144 554 l 1,11,-1
 1144 0 l 1,12,-1
 647 0 l 1,13,-1
 618 52 l 1,14,15
 638 72 638 72 650 96.5 c 128,-1,16
 662 121 662 121 662 158 c 0,17,18
 662 212 662 212 633 244 c 128,-1,19
 604 276 604 276 548 276 c 0,20,21
 513 276 513 276 487.5 260.5 c 128,-1,22
 462 245 462 245 448.5 220 c 128,-1,23
 435 195 435 195 435 164 c 0,24,25
 435 130 435 130 449 102 c 128,-1,26
 463 74 463 74 494 51 c 1,27,-1
 448 -7 l 1,28,29
 406 24 406 24 378.5 66.5 c 128,-1,30
 351 109 351 109 351 166 c 0,31,32
 351 219 351 219 375.5 259.5 c 128,-1,33
 400 300 400 300 444.5 323 c 128,-1,34
 489 346 489 346 548 346 c 0,0,1
EndSplineSet
Validated: 1048581
EndChar

StartChar: q
Encoding: 113 113 83
Width: 1495
Flags: W
AnchorPoint: "Anchor-1" 709.5 765 basechar 0
AnchorPoint: "Anchor-0" 709.5 0 basechar 0
LayerCount: 2
Fore
SplineSet
648.5 765 m 0,0,1
 667.5 765 667.5 765 685.5 761 c 128,-1,2
 703.5 757 703.5 757 713.5 752 c 1,3,-1
 713.5 679 l 1,4,5
 706.5 682 706.5 682 692.5 685.5 c 128,-1,6
 678.5 689 678.5 689 661.5 689 c 0,7,8
 639.5 689 639.5 689 627 676 c 128,-1,9
 614.5 663 614.5 663 614.5 631 c 2,10,-1
 614.5 363 l 2,11,12
 614.5 347 614.5 347 613.5 321 c 128,-1,13
 612.5 295 612.5 295 610.5 276 c 1,14,-1
 614.5 276 l 1,15,16
 620.5 285 620.5 285 632.5 299.5 c 128,-1,17
 644.5 314 644.5 314 657 329.5 c 128,-1,18
 669.5 345 669.5 345 678.5 355 c 2,19,-1
 849.5 536 l 1,20,-1
 952.5 536 l 1,21,-1
 735.5 307 l 1,22,-1
 967.5 0 l 1,23,-1
 861.5 0 l 1,24,-1
 675.5 250 l 1,25,-1
 614.5 197 l 1,26,-1
 614.5 0 l 1,27,-1
 527.5 0 l 1,28,-1
 527.5 625 l 2,29,30
 527.5 765 527.5 765 648.5 765 c 0,0,1
EndSplineSet
Validated: 524289
EndChar

StartChar: r
Encoding: 114 114 84
Width: 1495
Flags: W
AnchorPoint: "Anchor-0" 663.5 0 basechar 0
LayerCount: 2
Fore
SplineSet
743.5 566 m 0,0,1
 826.5 566 826.5 566 889 542 c 128,-1,2
 951.5 518 951.5 518 993 474 c 128,-1,3
 1034.5 430 1034.5 430 1055.5 371 c 128,-1,4
 1076.5 312 1076.5 312 1076.5 242 c 0,5,6
 1076.5 153 1076.5 153 1048.5 96.5 c 128,-1,7
 1020.5 40 1020.5 40 972.5 14 c 128,-1,8
 924.5 -12 924.5 -12 864.5 -12 c 0,9,10
 799.5 -12 799.5 -12 756.5 17 c 128,-1,11
 713.5 46 713.5 46 692 93.5 c 128,-1,12
 670.5 141 670.5 141 670.5 196 c 0,13,14
 670.5 291 670.5 291 721.5 347.5 c 128,-1,15
 772.5 404 772.5 404 858.5 404 c 0,16,17
 914.5 404 914.5 404 956 375 c 128,-1,18
 997.5 346 997.5 346 1021.5 301 c 128,-1,19
 1045.5 256 1045.5 256 1047.5 206 c 1,20,-1
 1022.5 209 l 1,21,22
 1015.5 240 1015.5 240 996 268.5 c 128,-1,23
 976.5 297 976.5 297 946 315.5 c 128,-1,24
 915.5 334 915.5 334 875.5 334 c 0,25,26
 812.5 334 812.5 334 783.5 296.5 c 128,-1,27
 754.5 259 754.5 259 754.5 198 c 0,28,29
 754.5 156 754.5 156 765.5 124.5 c 128,-1,30
 776.5 93 776.5 93 801 75.5 c 128,-1,31
 825.5 58 825.5 58 864.5 58 c 0,32,33
 905.5 58 905.5 58 934 77 c 128,-1,34
 962.5 96 962.5 96 978 138 c 128,-1,35
 993.5 180 993.5 180 993.5 248 c 0,36,37
 993.5 250 993.5 250 992 270 c 128,-1,38
 990.5 290 990.5 290 986.5 310 c 0,39,40
 985.5 315 985.5 315 985.5 323 c 128,-1,41
 985.5 331 985.5 331 983.5 335 c 0,42,43
 974.5 378 974.5 378 944.5 414 c 128,-1,44
 914.5 450 914.5 450 864.5 472 c 128,-1,45
 814.5 494 814.5 494 743.5 494 c 0,46,47
 671.5 494 671.5 494 618.5 468 c 128,-1,48
 565.5 442 565.5 442 536.5 393 c 128,-1,49
 507.5 344 507.5 344 507.5 273 c 0,50,51
 507.5 221 507.5 221 522.5 180 c 128,-1,52
 537.5 139 537.5 139 565 108 c 128,-1,53
 592.5 77 592.5 77 629.5 54 c 1,54,-1
 579.5 -9 l 1,55,56
 536.5 16 536.5 16 500 55.5 c 128,-1,57
 463.5 95 463.5 95 441 150.5 c 128,-1,58
 418.5 206 418.5 206 418.5 277 c 0,59,60
 418.5 333 418.5 333 437.5 385 c 128,-1,61
 456.5 437 456.5 437 496 478 c 128,-1,62
 535.5 519 535.5 519 597 542.5 c 128,-1,63
 658.5 566 658.5 566 743.5 566 c 0,0,1
EndSplineSet
Validated: 1572869
EndChar

StartChar: s
Encoding: 115 115 85
Width: 1495
Flags: W
AnchorPoint: "Anchor-0" 623.5 0 basechar 0
LayerCount: 2
Fore
SplineSet
911.5 566 m 0,0,1
 986.5 566 986.5 566 1045 543 c 128,-1,2
 1103.5 520 1103.5 520 1144.5 477.5 c 128,-1,3
 1185.5 435 1185.5 435 1207 375.5 c 128,-1,4
 1228.5 316 1228.5 316 1228.5 242 c 0,5,6
 1228.5 153 1228.5 153 1200.5 96.5 c 128,-1,7
 1172.5 40 1172.5 40 1124.5 14 c 128,-1,8
 1076.5 -12 1076.5 -12 1016.5 -12 c 0,9,10
 951.5 -12 951.5 -12 908.5 17 c 128,-1,11
 865.5 46 865.5 46 844 93.5 c 128,-1,12
 822.5 141 822.5 141 822.5 196 c 0,13,14
 822.5 291 822.5 291 873.5 347.5 c 128,-1,15
 924.5 404 924.5 404 1010.5 404 c 0,16,17
 1066.5 404 1066.5 404 1108 375 c 128,-1,18
 1149.5 346 1149.5 346 1173.5 301 c 128,-1,19
 1197.5 256 1197.5 256 1200.5 206 c 1,20,-1
 1174.5 209 l 1,21,22
 1167.5 240 1167.5 240 1148 268.5 c 128,-1,23
 1128.5 297 1128.5 297 1098 315.5 c 128,-1,24
 1067.5 334 1067.5 334 1027.5 334 c 0,25,26
 964.5 334 964.5 334 935.5 296.5 c 128,-1,27
 906.5 259 906.5 259 906.5 198 c 0,28,29
 906.5 156 906.5 156 918 124.5 c 128,-1,30
 929.5 93 929.5 93 953.5 75.5 c 128,-1,31
 977.5 58 977.5 58 1016.5 58 c 0,32,33
 1057.5 58 1057.5 58 1086 77 c 128,-1,34
 1114.5 96 1114.5 96 1130 138 c 128,-1,35
 1145.5 180 1145.5 180 1145.5 248 c 0,36,37
 1145.5 250 1145.5 250 1144 270 c 128,-1,38
 1142.5 290 1142.5 290 1138.5 310 c 0,39,40
 1137.5 315 1137.5 315 1139 323 c 128,-1,41
 1140.5 331 1140.5 331 1138.5 334 c 0,42,43
 1127.5 381 1127.5 381 1096 417 c 128,-1,44
 1064.5 453 1064.5 453 1018.5 473.5 c 128,-1,45
 972.5 494 972.5 494 916.5 494 c 0,46,47
 873.5 494 873.5 494 841 485 c 128,-1,48
 808.5 476 808.5 476 786.5 459 c 0,49,50
 749.5 431 749.5 431 734.5 381.5 c 128,-1,51
 719.5 332 719.5 332 719.5 263 c 2,52,-1
 719.5 246 l 2,53,54
 719.5 173 719.5 173 707.5 128 c 128,-1,55
 695.5 83 695.5 83 666.5 51 c 0,56,57
 640.5 21 640.5 21 601.5 4.5 c 128,-1,58
 562.5 -12 562.5 -12 505.5 -12 c 0,59,60
 432.5 -12 432.5 -12 378.5 20.5 c 128,-1,61
 324.5 53 324.5 53 295.5 115 c 128,-1,62
 266.5 177 266.5 177 266.5 263 c 0,63,64
 266.5 331 266.5 331 284 384.5 c 128,-1,65
 301.5 438 301.5 438 336.5 482.5 c 128,-1,66
 371.5 527 371.5 527 421.5 566 c 1,67,-1
 475.5 504 l 1,68,69
 440.5 480 440.5 480 413 446 c 128,-1,70
 385.5 412 385.5 412 370 367 c 128,-1,71
 354.5 322 354.5 322 354.5 265 c 0,72,73
 354.5 203 354.5 203 372.5 157 c 128,-1,74
 390.5 111 390.5 111 424 85.5 c 128,-1,75
 457.5 60 457.5 60 501.5 60 c 0,76,77
 543.5 60 543.5 60 567 72.5 c 128,-1,78
 590.5 85 590.5 85 604.5 106 c 0,79,80
 621.5 132 621.5 132 626.5 176.5 c 128,-1,81
 631.5 221 631.5 221 631.5 265 c 2,82,-1
 631.5 280 l 2,83,84
 631.5 367 631.5 367 653 419.5 c 128,-1,85
 674.5 472 674.5 472 715.5 506 c 0,86,87
 754.5 538 754.5 538 802.5 552 c 128,-1,88
 850.5 566 850.5 566 911.5 566 c 0,0,1
EndSplineSet
Validated: 1572869
EndChar

StartChar: t
Encoding: 116 116 86
Width: 1495
Flags: W
LayerCount: 2
Fore
SplineSet
834 62 m 0,0,1
 854 62 854 62 875 65.5 c 128,-1,2
 896 69 896 69 909 73 c 1,3,-1
 909 6 l 1,4,5
 895 -1 895 -1 869 -5.5 c 128,-1,6
 843 -10 843 -10 819 -10 c 0,7,8
 777 -10 777 -10 741.5 4.5 c 128,-1,9
 706 19 706 19 684 55 c 128,-1,10
 662 91 662 91 662 156 c 2,11,-1
 662 468 l 1,12,-1
 586 468 l 1,13,-1
 586 510 l 1,14,-1
 663 545 l 1,15,-1
 698 659 l 1,16,-1
 750 659 l 1,17,-1
 750 536 l 1,18,-1
 905 536 l 1,19,-1
 905 468 l 1,20,-1
 750 468 l 1,21,-1
 750 158 l 2,22,23
 750 109 750 109 773.5 85.5 c 128,-1,24
 797 62 797 62 834 62 c 0,0,1
EndSplineSet
Validated: 1
EndChar

StartChar: u
Encoding: 117 117 87
Width: 1495
Flags: W
LayerCount: 2
Fore
SplineSet
974.5 536 m 1,0,-1
 974.5 0 l 1,1,-1
 902.5 0 l 1,2,-1
 889.5 71 l 1,3,-1
 885.5 71 l 1,4,5
 868.5 43 868.5 43 841.5 25 c 128,-1,6
 814.5 7 814.5 7 782.5 -1.5 c 128,-1,7
 750.5 -10 750.5 -10 715.5 -10 c 0,8,9
 651.5 -10 651.5 -10 608 10.5 c 128,-1,10
 564.5 31 564.5 31 542.5 74 c 128,-1,11
 520.5 117 520.5 117 520.5 185 c 2,12,-1
 520.5 536 l 1,13,-1
 609.5 536 l 1,14,-1
 609.5 191 l 2,15,16
 609.5 127 609.5 127 638.5 95 c 128,-1,17
 667.5 63 667.5 63 728.5 63 c 0,18,19
 788.5 63 788.5 63 823 85.5 c 128,-1,20
 857.5 108 857.5 108 872 151.5 c 128,-1,21
 886.5 195 886.5 195 886.5 257 c 2,22,-1
 886.5 536 l 1,23,-1
 974.5 536 l 1,0,-1
EndSplineSet
Validated: 524289
EndChar

StartChar: v
Encoding: 118 118 88
Width: 1495
Flags: W
LayerCount: 2
Fore
SplineSet
696.5 0 m 1,0,-1
 493.5 536 l 1,1,-1
 587.5 536 l 1,2,-1
 701.5 220 l 2,3,4
 709.5 198 709.5 198 718.5 171 c 128,-1,5
 727.5 144 727.5 144 734.5 119.5 c 128,-1,6
 741.5 95 741.5 95 744.5 78 c 1,7,-1
 748.5 78 l 1,8,9
 752.5 95 752.5 95 760 120 c 128,-1,10
 767.5 145 767.5 145 777 172 c 128,-1,11
 786.5 199 786.5 199 793.5 220 c 2,12,-1
 907.5 536 l 1,13,-1
 1001.5 536 l 1,14,-1
 797.5 0 l 1,15,-1
 696.5 0 l 1,0,-1
EndSplineSet
Validated: 524289
EndChar

StartChar: w
Encoding: 119 119 89
Width: 1495
Flags: W
AnchorPoint: "Anchor-1" 738 536 basechar 0
AnchorPoint: "Anchor-0" 737 0 basechar 0
LayerCount: 2
Fore
SplineSet
677 766 m 5,0,1
 688 744 688 744 704.5 716.5 c 132,-1,2
 721 689 721 689 739.5 663 c 132,-1,3
 758 637 758 637 773 618 c 5,4,-1
 773 606 l 5,5,-1
 714 606 l 5,6,7
 697 620 697 620 676 639.5 c 132,-1,8
 655 659 655 659 634.5 680.5 c 132,-1,9
 614 702 614 702 597.5 722 c 132,-1,10
 581 742 581 742 572 756 c 5,11,-1
 572 766 l 5,12,-1
 677 766 l 5,0,1
975 541 m 0,13,14
 987 541 987 541 997 539 c 128,-1,15
 1007 537 1007 537 1016 535 c 1,16,-1
 1016 467 l 1,17,18
 1003 472 1003 472 982 472 c 0,19,20
 960 472 960 472 946 452 c 128,-1,21
 932 432 932 432 918 390 c 2,22,-1
 795 0 l 1,23,-1
 678 0 l 1,24,-1
 479 536 l 1,25,-1
 571 536 l 1,26,-1
 698 181 l 2,27,28
 713 139 713 139 723 107.5 c 128,-1,29
 733 76 733 76 735 62 c 1,30,-1
 739 62 l 1,31,32
 743 83 743 83 751 119 c 128,-1,33
 759 155 759 155 770 189 c 2,34,-1
 840 407 l 2,35,36
 857 459 857 459 873.5 488 c 128,-1,37
 890 517 890 517 913.5 529 c 128,-1,38
 937 541 937 541 975 541 c 0,13,14
EndSplineSet
Validated: 1
EndChar

StartChar: x
Encoding: 120 120 90
Width: 1495
Flags: W
LayerCount: 2
Fore
SplineSet
695 274 m 1,0,-1
 510 536 l 1,1,-1
 610 536 l 1,2,-1
 748 334 l 1,3,-1
 885 536 l 1,4,-1
 984 536 l 1,5,-1
 799 274 l 1,6,-1
 994 0 l 1,7,-1
 894 0 l 1,8,-1
 748 214 l 1,9,-1
 600 0 l 1,10,-1
 501 0 l 1,11,-1
 695 274 l 1,0,-1
EndSplineSet
Validated: 1
EndChar

StartChar: y
Encoding: 121 121 91
Width: 1495
Flags: W
AnchorPoint: "Anchor-0" 631.5 0 basechar 0
LayerCount: 2
Fore
SplineSet
892.5 -12 m 0,0,1
 852.5 -12 852.5 -12 809.5 -3 c 128,-1,2
 766.5 6 766.5 6 724.5 29 c 0,3,4
 718.5 32 718.5 32 709 36 c 128,-1,5
 699.5 40 699.5 40 694.5 43 c 0,6,7
 639.5 82 639.5 82 606.5 129 c 128,-1,8
 573.5 176 573.5 176 558.5 229 c 128,-1,9
 543.5 282 543.5 282 543.5 338 c 0,10,11
 543.5 378 543.5 378 553.5 412 c 128,-1,12
 563.5 446 563.5 446 580.5 473 c 2,13,-1
 587.5 484 l 2,14,15
 607.5 511 607.5 511 634 529 c 128,-1,16
 660.5 547 660.5 547 691.5 556.5 c 128,-1,17
 722.5 566 722.5 566 756.5 566 c 0,18,19
 855.5 566 855.5 566 910.5 502.5 c 128,-1,20
 965.5 439 965.5 439 965.5 332 c 0,21,22
 965.5 242 965.5 242 927.5 169.5 c 128,-1,23
 889.5 97 889.5 97 824.5 53 c 0,24,25
 816.5 47 816.5 47 809 42.5 c 128,-1,26
 801.5 38 801.5 38 791.5 33 c 0,27,28
 749.5 9 749.5 9 703.5 -1.5 c 128,-1,29
 657.5 -12 657.5 -12 607.5 -12 c 0,30,31
 527.5 -12 527.5 -12 465 14 c 128,-1,32
 402.5 40 402.5 40 359 86.5 c 128,-1,33
 315.5 133 315.5 133 293 196.5 c 128,-1,34
 270.5 260 270.5 260 270.5 335 c 0,35,36
 270.5 405 270.5 405 297 456.5 c 128,-1,37
 323.5 508 323.5 508 372.5 537 c 128,-1,38
 421.5 566 421.5 566 487.5 566 c 0,39,40
 545.5 566 545.5 566 585.5 545.5 c 128,-1,41
 625.5 525 625.5 525 652.5 490 c 1,42,-1
 593.5 431 l 1,43,44
 580.5 457 580.5 457 555 476.5 c 128,-1,45
 529.5 496 529.5 496 488.5 496 c 0,46,47
 450.5 496 450.5 496 421 478 c 128,-1,48
 391.5 460 391.5 460 374.5 423.5 c 128,-1,49
 357.5 387 357.5 387 357.5 333 c 0,50,51
 357.5 261 357.5 261 386.5 198 c 128,-1,52
 415.5 135 415.5 135 472.5 95.5 c 128,-1,53
 529.5 56 529.5 56 614.5 56 c 0,54,55
 635.5 56 635.5 56 657.5 58.5 c 128,-1,56
 679.5 61 679.5 61 700.5 66 c 0,57,58
 711.5 70 711.5 70 723.5 74 c 128,-1,59
 735.5 78 735.5 78 745.5 82 c 0,60,61
 780.5 100 780.5 100 810.5 134.5 c 128,-1,62
 840.5 169 840.5 169 859.5 219 c 128,-1,63
 878.5 269 878.5 269 878.5 332 c 0,64,65
 878.5 392 878.5 392 861.5 428 c 128,-1,66
 844.5 464 844.5 464 816.5 480 c 128,-1,67
 788.5 496 788.5 496 756.5 496 c 0,68,69
 718.5 496 718.5 496 690 477 c 128,-1,70
 661.5 458 661.5 458 646 421.5 c 128,-1,71
 630.5 385 630.5 385 630.5 332 c 256,72,73
 630.5 279 630.5 279 647 228.5 c 128,-1,74
 663.5 178 663.5 178 694 139 c 128,-1,75
 724.5 100 724.5 100 765.5 78 c 0,76,77
 775.5 74 775.5 74 783.5 73.5 c 128,-1,78
 791.5 73 791.5 73 801.5 69 c 0,79,80
 818.5 64 818.5 64 842.5 60 c 128,-1,81
 866.5 56 866.5 56 892.5 56 c 0,82,83
 975.5 56 975.5 56 1029.5 90 c 128,-1,84
 1083.5 124 1083.5 124 1110.5 182 c 128,-1,85
 1137.5 240 1137.5 240 1137.5 312 c 0,86,87
 1137.5 371 1137.5 371 1118.5 424 c 128,-1,88
 1099.5 477 1099.5 477 1064.5 519 c 1,89,-1
 1133.5 566 l 1,90,91
 1179.5 512 1179.5 512 1202 447.5 c 128,-1,92
 1224.5 383 1224.5 383 1224.5 314 c 0,93,94
 1224.5 243 1224.5 243 1203 183 c 128,-1,95
 1181.5 123 1181.5 123 1139 79.5 c 128,-1,96
 1096.5 36 1096.5 36 1034.5 12 c 128,-1,97
 972.5 -12 972.5 -12 892.5 -12 c 0,0,1
EndSplineSet
Validated: 1572869
EndChar

StartChar: z
Encoding: 122 122 92
Width: 1495
Flags: W
LayerCount: 2
Fore
SplineSet
943.5 0 m 1,0,-1
 551.5 0 l 1,1,-1
 551.5 58 l 1,2,-1
 839.5 468 l 1,3,-1
 568.5 468 l 1,4,-1
 568.5 536 l 1,5,-1
 936.5 536 l 1,6,-1
 936.5 470 l 1,7,-1
 652.5 68 l 1,8,-1
 943.5 68 l 1,9,-1
 943.5 0 l 1,0,-1
EndSplineSet
Validated: 524289
EndChar

StartChar: at
Encoding: 64 64 93
Width: 1495
Flags: W
LayerCount: 2
Fore
SplineSet
1139 357 m 0,0,1
 1139 311 1139 311 1128.5 267 c 128,-1,2
 1118 223 1118 223 1096 187.5 c 128,-1,3
 1074 152 1074 152 1042 130.5 c 128,-1,4
 1010 109 1010 109 966 109 c 0,5,6
 920 109 920 109 893.5 135.5 c 128,-1,7
 867 162 867 162 861 196 c 1,8,-1
 856 196 l 1,9,10
 838 159 838 159 803 134 c 128,-1,11
 768 109 768 109 715 109 c 0,12,13
 639 109 639 109 597.5 160 c 128,-1,14
 556 211 556 211 556 295 c 0,15,16
 556 361 556 361 582 411.5 c 128,-1,17
 608 462 608 462 655.5 491 c 128,-1,18
 703 520 703 520 768 520 c 0,19,20
 812 520 812 520 854.5 512.5 c 128,-1,21
 897 505 897 505 921 496 c 1,22,-1
 911 293 l 2,23,24
 910 275 910 275 910 267.5 c 128,-1,25
 910 260 910 260 910 257 c 0,26,27
 910 205 910 205 928.5 188 c 128,-1,28
 947 171 947 171 972 171 c 0,29,30
 1003 171 1003 171 1024.5 196.5 c 128,-1,31
 1046 222 1046 222 1057.5 264.5 c 128,-1,32
 1069 307 1069 307 1069 358 c 0,33,34
 1069 451 1069 451 1031.5 515.5 c 128,-1,35
 994 580 994 580 928.5 614 c 128,-1,36
 863 648 863 648 780 648 c 0,37,38
 695 648 695 648 629 621 c 128,-1,39
 563 594 563 594 518.5 545 c 128,-1,40
 474 496 474 496 451 429.5 c 128,-1,41
 428 363 428 363 428 283 c 0,42,43
 428 185 428 185 463 116.5 c 128,-1,44
 498 48 498 48 565.5 12.5 c 128,-1,45
 633 -23 633 -23 731 -23 c 0,46,47
 792 -23 792 -23 847.5 -9.5 c 128,-1,48
 903 4 903 4 946 20 c 1,49,-1
 946 -48 l 1,50,51
 903 -66 903 -66 849.5 -77.5 c 128,-1,52
 796 -89 796 -89 731 -89 c 0,53,54
 613 -89 613 -89 529 -45 c 128,-1,55
 445 -1 445 -1 400.5 81.5 c 128,-1,56
 356 164 356 164 356 280 c 0,57,58
 356 373 356 373 385 452.5 c 128,-1,59
 414 532 414 532 469 590.5 c 128,-1,60
 524 649 524 649 602.5 681.5 c 128,-1,61
 681 714 681 714 780 714 c 0,62,63
 858 714 858 714 923.5 689.5 c 128,-1,64
 989 665 989 665 1037.5 618.5 c 128,-1,65
 1086 572 1086 572 1112.5 506 c 128,-1,66
 1139 440 1139 440 1139 357 c 0,0,1
634 293 m 0,67,68
 634 229 634 229 659.5 200 c 128,-1,69
 685 171 685 171 728 171 c 0,70,71
 784 171 784 171 808.5 213 c 128,-1,72
 833 255 833 255 837 322 c 2,73,-1
 843 447 l 1,74,75
 830 451 830 451 810 454 c 128,-1,76
 790 457 790 457 769 457 c 0,77,78
 720 457 720 457 690 433 c 128,-1,79
 660 409 660 409 647 371.5 c 128,-1,80
 634 334 634 334 634 293 c 0,67,68
EndSplineSet
Validated: 1
EndChar

StartChar: ampersand
Encoding: 38 38 94
Width: 1495
Flags: W
LayerCount: 2
Fore
SplineSet
660 725 m 0,0,1
 714 725 714 725 752.5 706.5 c 128,-1,2
 791 688 791 688 812 654 c 128,-1,3
 833 620 833 620 833 571 c 0,4,5
 833 508 833 508 792.5 464 c 128,-1,6
 752 420 752 420 690 384 c 1,7,-1
 883 198 l 1,8,9
 909 229 909 229 925.5 269.5 c 128,-1,10
 942 310 942 310 953 357 c 1,11,-1
 1042 357 l 1,12,13
 1026 293 1026 293 1002 238 c 128,-1,14
 978 183 978 183 940 142 c 1,15,-1
 1086 0 l 1,16,-1
 967 0 l 1,17,-1
 880 84 l 1,18,19
 849 56 849 56 813 35 c 128,-1,20
 777 14 777 14 733.5 2 c 128,-1,21
 690 -10 690 -10 634 -10 c 0,22,23
 565 -10 565 -10 514.5 12.5 c 128,-1,24
 464 35 464 35 436.5 79 c 128,-1,25
 409 123 409 123 409 186 c 0,26,27
 409 237 409 237 427.5 274 c 128,-1,28
 446 311 446 311 481 340 c 128,-1,29
 516 369 516 369 563 396 c 1,30,31
 542 420 542 420 522 446 c 128,-1,32
 502 472 502 472 489 502.5 c 128,-1,33
 476 533 476 533 476 569 c 0,34,35
 476 618 476 618 498 653 c 128,-1,36
 520 688 520 688 561.5 706.5 c 128,-1,37
 603 725 603 725 660 725 c 0,0,1
616 341 m 1,38,39
 580 320 580 320 554.5 298.5 c 128,-1,40
 529 277 529 277 515 251 c 128,-1,41
 501 225 501 225 501 189 c 0,42,43
 501 134 501 134 538 101 c 128,-1,44
 575 68 575 68 637 68 c 0,45,46
 701 68 701 68 747 89 c 128,-1,47
 793 110 793 110 824 139 c 1,48,-1
 616 341 l 1,38,39
657 653 m 0,49,50
 615 653 615 653 588.5 631 c 128,-1,51
 562 609 562 609 562 570 c 0,52,53
 562 534 562 534 581 503.5 c 128,-1,54
 600 473 600 473 636 436 c 1,55,56
 695 470 695 470 720.5 500.5 c 128,-1,57
 746 531 746 531 746 571 c 0,58,59
 746 607 746 607 722 630 c 128,-1,60
 698 653 698 653 657 653 c 0,49,50
EndSplineSet
Validated: 1
EndChar

StartChar: dollar
Encoding: 36 36 95
Width: 1495
Flags: W
LayerCount: 2
Fore
SplineSet
711.5 49 m 1,0,1
 656.5 50 656.5 50 604.5 58.5 c 128,-1,2
 552.5 67 552.5 67 520.5 82 c 1,3,-1
 520.5 167 l 1,4,5
 554.5 151 554.5 151 607.5 139 c 128,-1,6
 660.5 127 660.5 127 711.5 126 c 1,7,-1
 711.5 328 l 1,8,9
 645.5 346 645.5 346 603.5 369.5 c 128,-1,10
 561.5 393 561.5 393 541 427 c 128,-1,11
 520.5 461 520.5 461 520.5 508 c 0,12,13
 520.5 557 520.5 557 544 592 c 128,-1,14
 567.5 627 567.5 627 610.5 647.5 c 128,-1,15
 653.5 668 653.5 668 711.5 671 c 1,16,-1
 711.5 759 l 1,17,-1
 775.5 759 l 1,18,-1
 775.5 672 l 1,19,20
 828.5 671 828.5 671 872 660.5 c 128,-1,21
 915.5 650 915.5 650 951.5 635 c 1,22,-1
 924.5 561 l 1,23,24
 892.5 574 892.5 574 854 583.5 c 128,-1,25
 815.5 593 815.5 593 775.5 596 c 1,26,-1
 775.5 395 l 1,27,28
 841.5 376 841.5 376 885.5 354.5 c 128,-1,29
 929.5 333 929.5 333 952 301.5 c 128,-1,30
 974.5 270 974.5 270 974.5 220 c 0,31,32
 974.5 150 974.5 150 922.5 106.5 c 128,-1,33
 870.5 63 870.5 63 775.5 53 c 1,34,-1
 775.5 -58 l 1,35,-1
 711.5 -58 l 1,36,-1
 711.5 49 l 1,0,1
775.5 131 m 1,37,38
 834.5 137 834.5 137 861.5 158.5 c 128,-1,39
 888.5 180 888.5 180 888.5 214 c 0,40,41
 888.5 239 888.5 239 878.5 255.5 c 128,-1,42
 868.5 272 868.5 272 844 284 c 128,-1,43
 819.5 296 819.5 296 775.5 307 c 1,44,-1
 775.5 131 l 1,37,38
711.5 594 m 1,45,46
 675.5 592 675.5 592 652.5 581.5 c 128,-1,47
 629.5 571 629.5 571 618 554 c 128,-1,48
 606.5 537 606.5 537 606.5 515 c 0,49,50
 606.5 489 606.5 489 616 470.5 c 128,-1,51
 625.5 452 625.5 452 648.5 439.5 c 128,-1,52
 671.5 427 671.5 427 711.5 417 c 1,53,-1
 711.5 594 l 1,45,46
EndSplineSet
Validated: 524289
EndChar

StartChar: grave
Encoding: 96 96 96
Width: 1495
Flags: W
LayerCount: 2
Fore
SplineSet
752 766 m 1,0,1
 763 744 763 744 779.5 716.5 c 128,-1,2
 796 689 796 689 814.5 663 c 128,-1,3
 833 637 833 637 848 618 c 1,4,-1
 848 606 l 1,5,-1
 789 606 l 1,6,7
 772 620 772 620 751 639.5 c 128,-1,8
 730 659 730 659 709.5 680.5 c 128,-1,9
 689 702 689 702 672.5 722 c 128,-1,10
 656 742 656 742 647 756 c 1,11,-1
 647 766 l 1,12,-1
 752 766 l 1,0,1
EndSplineSet
Validated: 1
EndChar

StartChar: uni0080
Encoding: 128 128 97
Width: 1495
Flags: W
LayerCount: 2
Fore
SplineSet
542 85 m 0,0,1
 542 103 542 103 557.5 118 c 128,-1,2
 573 133 573 133 601 144.5 c 128,-1,3
 629 156 629 156 666.5 162.5 c 128,-1,4
 704 169 704 169 747 169 c 0,5,6
 791 169 791 169 828.5 162.5 c 128,-1,7
 866 156 866 156 893.5 144.5 c 128,-1,8
 921 133 921 133 937 118 c 128,-1,9
 953 103 953 103 953 85 c 0,10,11
 953 68 953 68 937 53 c 128,-1,12
 921 38 921 38 893.5 27 c 128,-1,13
 866 16 866 16 828.5 9.5 c 128,-1,14
 791 3 791 3 747 3 c 0,15,16
 704 3 704 3 666.5 9.5 c 128,-1,17
 629 16 629 16 601 27 c 128,-1,18
 573 38 573 38 557.5 53 c 128,-1,19
 542 68 542 68 542 85 c 0,0,1
622 85 m 256,20,21
 622 74 622 74 631.5 64.5 c 128,-1,22
 641 55 641 55 658 48.5 c 128,-1,23
 675 42 675 42 698 38 c 128,-1,24
 721 34 721 34 747 34 c 0,25,26
 774 34 774 34 796.5 38 c 128,-1,27
 819 42 819 42 836 48.5 c 128,-1,28
 853 55 853 55 862.5 64.5 c 128,-1,29
 872 74 872 74 872 85 c 256,30,31
 872 96 872 96 862.5 105.5 c 128,-1,32
 853 115 853 115 836 122 c 128,-1,33
 819 129 819 129 796.5 133 c 128,-1,34
 774 137 774 137 747 137 c 0,35,36
 721 137 721 137 698 133 c 128,-1,37
 675 129 675 129 658 122 c 128,-1,38
 641 115 641 115 631.5 105.5 c 128,-1,39
 622 96 622 96 622 85 c 256,20,21
542 272 m 0,40,41
 542 290 542 290 557.5 305 c 128,-1,42
 573 320 573 320 601 331.5 c 128,-1,43
 629 343 629 343 666.5 349 c 128,-1,44
 704 355 704 355 747 355 c 0,45,46
 791 355 791 355 828.5 349 c 128,-1,47
 866 343 866 343 893.5 331.5 c 128,-1,48
 921 320 921 320 937 305 c 128,-1,49
 953 290 953 290 953 272 c 0,50,51
 953 255 953 255 937 240 c 128,-1,52
 921 225 921 225 893.5 214 c 128,-1,53
 866 203 866 203 828.5 196 c 128,-1,54
 791 189 791 189 747 189 c 0,55,56
 704 189 704 189 666.5 196 c 128,-1,57
 629 203 629 203 601 214 c 128,-1,58
 573 225 573 225 557.5 240 c 128,-1,59
 542 255 542 255 542 272 c 0,40,41
622 272 m 256,60,61
 622 261 622 261 631.5 251.5 c 128,-1,62
 641 242 641 242 658 235 c 128,-1,63
 675 228 675 228 698 224 c 128,-1,64
 721 220 721 220 747 220 c 0,65,66
 774 220 774 220 796.5 224 c 128,-1,67
 819 228 819 228 836 235 c 128,-1,68
 853 242 853 242 862.5 251.5 c 128,-1,69
 872 261 872 261 872 272 c 256,70,71
 872 283 872 283 862.5 292.5 c 128,-1,72
 853 302 853 302 836 309 c 128,-1,73
 819 316 819 316 796.5 320 c 128,-1,74
 774 324 774 324 747 324 c 0,75,76
 721 324 721 324 698 320 c 128,-1,77
 675 316 675 316 658 309 c 128,-1,78
 641 302 641 302 631.5 292.5 c 128,-1,79
 622 283 622 283 622 272 c 256,60,61
542 461 m 256,80,81
 542 478 542 478 557.5 493.5 c 128,-1,82
 573 509 573 509 601 520 c 128,-1,83
 629 531 629 531 666.5 537.5 c 128,-1,84
 704 544 704 544 747 544 c 0,85,86
 791 544 791 544 828.5 537.5 c 128,-1,87
 866 531 866 531 893.5 520 c 128,-1,88
 921 509 921 509 937 493.5 c 128,-1,89
 953 478 953 478 953 461 c 256,90,91
 953 444 953 444 937 429 c 128,-1,92
 921 414 921 414 893.5 402.5 c 128,-1,93
 866 391 866 391 828.5 384.5 c 128,-1,94
 791 378 791 378 747 378 c 0,95,96
 704 378 704 378 666.5 384.5 c 128,-1,97
 629 391 629 391 601 402.5 c 128,-1,98
 573 414 573 414 557.5 429 c 128,-1,99
 542 444 542 444 542 461 c 256,80,81
622 461 m 256,100,101
 622 450 622 450 631.5 440.5 c 128,-1,102
 641 431 641 431 658 424 c 128,-1,103
 675 417 675 417 698 413 c 128,-1,104
 721 409 721 409 747 409 c 0,105,106
 774 409 774 409 796.5 413 c 128,-1,107
 819 417 819 417 836 424 c 128,-1,108
 853 431 853 431 862.5 440.5 c 128,-1,109
 872 450 872 450 872 461 c 256,110,111
 872 472 872 472 862.5 481.5 c 128,-1,112
 853 491 853 491 836 498 c 128,-1,113
 819 505 819 505 796.5 509 c 128,-1,114
 774 513 774 513 747 513 c 0,115,116
 721 513 721 513 698 509 c 128,-1,117
 675 505 675 505 658 498 c 128,-1,118
 641 491 641 491 631.5 481.5 c 128,-1,119
 622 472 622 472 622 461 c 256,100,101
542 648 m 256,120,121
 542 665 542 665 557.5 680.5 c 128,-1,122
 573 696 573 696 601 707 c 128,-1,123
 629 718 629 718 666.5 724.5 c 128,-1,124
 704 731 704 731 747 731 c 0,125,126
 791 731 791 731 828.5 724.5 c 128,-1,127
 866 718 866 718 893.5 707 c 128,-1,128
 921 696 921 696 937 680.5 c 128,-1,129
 953 665 953 665 953 648 c 256,130,131
 953 631 953 631 937 616 c 128,-1,132
 921 601 921 601 893.5 589.5 c 128,-1,133
 866 578 866 578 828.5 571.5 c 128,-1,134
 791 565 791 565 747 565 c 0,135,136
 704 565 704 565 666.5 571.5 c 128,-1,137
 629 578 629 578 601 589.5 c 128,-1,138
 573 601 573 601 557.5 616 c 128,-1,139
 542 631 542 631 542 648 c 256,120,121
622 648 m 0,140,141
 622 637 622 637 631.5 627.5 c 128,-1,142
 641 618 641 618 658 611 c 128,-1,143
 675 604 675 604 698 600 c 128,-1,144
 721 596 721 596 747 596 c 0,145,146
 774 596 774 596 796.5 600 c 128,-1,147
 819 604 819 604 836 611 c 128,-1,148
 853 618 853 618 862.5 627.5 c 128,-1,149
 872 637 872 637 872 648 c 0,150,151
 872 658 872 658 862.5 668 c 128,-1,152
 853 678 853 678 836 685 c 128,-1,153
 819 692 819 692 796.5 696 c 128,-1,154
 774 700 774 700 747 700 c 0,155,156
 721 700 721 700 698 696 c 128,-1,157
 675 692 675 692 658 685 c 128,-1,158
 641 678 641 678 631.5 668 c 128,-1,159
 622 658 622 658 622 648 c 0,140,141
EndSplineSet
Validated: 1
EndChar

StartChar: uni0081
Encoding: 129 129 98
Width: 1495
Flags: W
LayerCount: 2
Fore
SplineSet
542 85 m 0,0,1
 542 103 542 103 557.5 118 c 128,-1,2
 573 133 573 133 601 144.5 c 128,-1,3
 629 156 629 156 666.5 162.5 c 128,-1,4
 704 169 704 169 747 169 c 0,5,6
 791 169 791 169 828.5 162.5 c 128,-1,7
 866 156 866 156 893.5 144.5 c 128,-1,8
 921 133 921 133 937 118 c 128,-1,9
 953 103 953 103 953 85 c 0,10,11
 953 68 953 68 937 53 c 128,-1,12
 921 38 921 38 893.5 27 c 128,-1,13
 866 16 866 16 828.5 9.5 c 128,-1,14
 791 3 791 3 747 3 c 0,15,16
 704 3 704 3 666.5 9.5 c 128,-1,17
 629 16 629 16 601 27 c 128,-1,18
 573 38 573 38 557.5 53 c 128,-1,19
 542 68 542 68 542 85 c 0,0,1
542 272 m 0,20,21
 542 290 542 290 557.5 305 c 128,-1,22
 573 320 573 320 601 331.5 c 128,-1,23
 629 343 629 343 666.5 349 c 128,-1,24
 704 355 704 355 747 355 c 0,25,26
 791 355 791 355 828.5 349 c 128,-1,27
 866 343 866 343 893.5 331.5 c 128,-1,28
 921 320 921 320 937 305 c 128,-1,29
 953 290 953 290 953 272 c 0,30,31
 953 255 953 255 937 240 c 128,-1,32
 921 225 921 225 893.5 214 c 128,-1,33
 866 203 866 203 828.5 196 c 128,-1,34
 791 189 791 189 747 189 c 0,35,36
 704 189 704 189 666.5 196 c 128,-1,37
 629 203 629 203 601 214 c 128,-1,38
 573 225 573 225 557.5 240 c 128,-1,39
 542 255 542 255 542 272 c 0,20,21
622 272 m 256,40,41
 622 261 622 261 631.5 251.5 c 128,-1,42
 641 242 641 242 658 235 c 128,-1,43
 675 228 675 228 698 224 c 128,-1,44
 721 220 721 220 747 220 c 0,45,46
 774 220 774 220 796.5 224 c 128,-1,47
 819 228 819 228 836 235 c 128,-1,48
 853 242 853 242 862.5 251.5 c 128,-1,49
 872 261 872 261 872 272 c 256,50,51
 872 283 872 283 862.5 292.5 c 128,-1,52
 853 302 853 302 836 309 c 128,-1,53
 819 316 819 316 796.5 320 c 128,-1,54
 774 324 774 324 747 324 c 0,55,56
 721 324 721 324 698 320 c 128,-1,57
 675 316 675 316 658 309 c 128,-1,58
 641 302 641 302 631.5 292.5 c 128,-1,59
 622 283 622 283 622 272 c 256,40,41
542 461 m 256,60,61
 542 478 542 478 557.5 493.5 c 128,-1,62
 573 509 573 509 601 520 c 128,-1,63
 629 531 629 531 666.5 537.5 c 128,-1,64
 704 544 704 544 747 544 c 0,65,66
 791 544 791 544 828.5 537.5 c 128,-1,67
 866 531 866 531 893.5 520 c 128,-1,68
 921 509 921 509 937 493.5 c 128,-1,69
 953 478 953 478 953 461 c 256,70,71
 953 444 953 444 937 429 c 128,-1,72
 921 414 921 414 893.5 402.5 c 128,-1,73
 866 391 866 391 828.5 384.5 c 128,-1,74
 791 378 791 378 747 378 c 0,75,76
 704 378 704 378 666.5 384.5 c 128,-1,77
 629 391 629 391 601 402.5 c 128,-1,78
 573 414 573 414 557.5 429 c 128,-1,79
 542 444 542 444 542 461 c 256,60,61
622 461 m 256,80,81
 622 450 622 450 631.5 440.5 c 128,-1,82
 641 431 641 431 658 424 c 128,-1,83
 675 417 675 417 698 413 c 128,-1,84
 721 409 721 409 747 409 c 0,85,86
 774 409 774 409 796.5 413 c 128,-1,87
 819 417 819 417 836 424 c 128,-1,88
 853 431 853 431 862.5 440.5 c 128,-1,89
 872 450 872 450 872 461 c 256,90,91
 872 472 872 472 862.5 481.5 c 128,-1,92
 853 491 853 491 836 498 c 128,-1,93
 819 505 819 505 796.5 509 c 128,-1,94
 774 513 774 513 747 513 c 0,95,96
 721 513 721 513 698 509 c 128,-1,97
 675 505 675 505 658 498 c 128,-1,98
 641 491 641 491 631.5 481.5 c 128,-1,99
 622 472 622 472 622 461 c 256,80,81
542 648 m 256,100,101
 542 665 542 665 557.5 680.5 c 128,-1,102
 573 696 573 696 601 707 c 128,-1,103
 629 718 629 718 666.5 724.5 c 128,-1,104
 704 731 704 731 747 731 c 0,105,106
 791 731 791 731 828.5 724.5 c 128,-1,107
 866 718 866 718 893.5 707 c 128,-1,108
 921 696 921 696 937 680.5 c 128,-1,109
 953 665 953 665 953 648 c 256,110,111
 953 631 953 631 937 616 c 128,-1,112
 921 601 921 601 893.5 589.5 c 128,-1,113
 866 578 866 578 828.5 571.5 c 128,-1,114
 791 565 791 565 747 565 c 0,115,116
 704 565 704 565 666.5 571.5 c 128,-1,117
 629 578 629 578 601 589.5 c 128,-1,118
 573 601 573 601 557.5 616 c 128,-1,119
 542 631 542 631 542 648 c 256,100,101
622 648 m 0,120,121
 622 637 622 637 631.5 627.5 c 128,-1,122
 641 618 641 618 658 611 c 128,-1,123
 675 604 675 604 698 600 c 128,-1,124
 721 596 721 596 747 596 c 0,125,126
 774 596 774 596 796.5 600 c 128,-1,127
 819 604 819 604 836 611 c 128,-1,128
 853 618 853 618 862.5 627.5 c 128,-1,129
 872 637 872 637 872 648 c 0,130,131
 872 658 872 658 862.5 668 c 128,-1,132
 853 678 853 678 836 685 c 128,-1,133
 819 692 819 692 796.5 696 c 128,-1,134
 774 700 774 700 747 700 c 0,135,136
 721 700 721 700 698 696 c 128,-1,137
 675 692 675 692 658 685 c 128,-1,138
 641 678 641 678 631.5 668 c 128,-1,139
 622 658 622 658 622 648 c 0,120,121
EndSplineSet
Validated: 1
EndChar

StartChar: uni0082
Encoding: 130 130 99
Width: 1495
Flags: W
LayerCount: 2
Fore
SplineSet
542 85 m 0,0,1
 542 103 542 103 557.5 118 c 128,-1,2
 573 133 573 133 601 144.5 c 128,-1,3
 629 156 629 156 666.5 162.5 c 128,-1,4
 704 169 704 169 747 169 c 0,5,6
 791 169 791 169 828.5 162.5 c 128,-1,7
 866 156 866 156 893.5 144.5 c 128,-1,8
 921 133 921 133 937 118 c 128,-1,9
 953 103 953 103 953 85 c 0,10,11
 953 68 953 68 937 53 c 128,-1,12
 921 38 921 38 893.5 27 c 128,-1,13
 866 16 866 16 828.5 9.5 c 128,-1,14
 791 3 791 3 747 3 c 0,15,16
 704 3 704 3 666.5 9.5 c 128,-1,17
 629 16 629 16 601 27 c 128,-1,18
 573 38 573 38 557.5 53 c 128,-1,19
 542 68 542 68 542 85 c 0,0,1
622 85 m 256,20,21
 622 74 622 74 631.5 64.5 c 128,-1,22
 641 55 641 55 658 48.5 c 128,-1,23
 675 42 675 42 698 38 c 128,-1,24
 721 34 721 34 747 34 c 0,25,26
 774 34 774 34 796.5 38 c 128,-1,27
 819 42 819 42 836 48.5 c 128,-1,28
 853 55 853 55 862.5 64.5 c 128,-1,29
 872 74 872 74 872 85 c 256,30,31
 872 96 872 96 862.5 105.5 c 128,-1,32
 853 115 853 115 836 122 c 128,-1,33
 819 129 819 129 796.5 133 c 128,-1,34
 774 137 774 137 747 137 c 0,35,36
 721 137 721 137 698 133 c 128,-1,37
 675 129 675 129 658 122 c 128,-1,38
 641 115 641 115 631.5 105.5 c 128,-1,39
 622 96 622 96 622 85 c 256,20,21
542 272 m 0,40,41
 542 290 542 290 557.5 305 c 128,-1,42
 573 320 573 320 601 331.5 c 128,-1,43
 629 343 629 343 666.5 349 c 128,-1,44
 704 355 704 355 747 355 c 0,45,46
 791 355 791 355 828.5 349 c 128,-1,47
 866 343 866 343 893.5 331.5 c 128,-1,48
 921 320 921 320 937 305 c 128,-1,49
 953 290 953 290 953 272 c 0,50,51
 953 255 953 255 937 240 c 128,-1,52
 921 225 921 225 893.5 214 c 128,-1,53
 866 203 866 203 828.5 196 c 128,-1,54
 791 189 791 189 747 189 c 0,55,56
 704 189 704 189 666.5 196 c 128,-1,57
 629 203 629 203 601 214 c 128,-1,58
 573 225 573 225 557.5 240 c 128,-1,59
 542 255 542 255 542 272 c 0,40,41
542 461 m 256,60,61
 542 478 542 478 557.5 493.5 c 128,-1,62
 573 509 573 509 601 520 c 128,-1,63
 629 531 629 531 666.5 537.5 c 128,-1,64
 704 544 704 544 747 544 c 0,65,66
 791 544 791 544 828.5 537.5 c 128,-1,67
 866 531 866 531 893.5 520 c 128,-1,68
 921 509 921 509 937 493.5 c 128,-1,69
 953 478 953 478 953 461 c 256,70,71
 953 444 953 444 937 429 c 128,-1,72
 921 414 921 414 893.5 402.5 c 128,-1,73
 866 391 866 391 828.5 384.5 c 128,-1,74
 791 378 791 378 747 378 c 0,75,76
 704 378 704 378 666.5 384.5 c 128,-1,77
 629 391 629 391 601 402.5 c 128,-1,78
 573 414 573 414 557.5 429 c 128,-1,79
 542 444 542 444 542 461 c 256,60,61
622 461 m 256,80,81
 622 450 622 450 631.5 440.5 c 128,-1,82
 641 431 641 431 658 424 c 128,-1,83
 675 417 675 417 698 413 c 128,-1,84
 721 409 721 409 747 409 c 0,85,86
 774 409 774 409 796.5 413 c 128,-1,87
 819 417 819 417 836 424 c 128,-1,88
 853 431 853 431 862.5 440.5 c 128,-1,89
 872 450 872 450 872 461 c 256,90,91
 872 472 872 472 862.5 481.5 c 128,-1,92
 853 491 853 491 836 498 c 128,-1,93
 819 505 819 505 796.5 509 c 128,-1,94
 774 513 774 513 747 513 c 0,95,96
 721 513 721 513 698 509 c 128,-1,97
 675 505 675 505 658 498 c 128,-1,98
 641 491 641 491 631.5 481.5 c 128,-1,99
 622 472 622 472 622 461 c 256,80,81
542 648 m 256,100,101
 542 665 542 665 557.5 680.5 c 128,-1,102
 573 696 573 696 601 707 c 128,-1,103
 629 718 629 718 666.5 724.5 c 128,-1,104
 704 731 704 731 747 731 c 0,105,106
 791 731 791 731 828.5 724.5 c 128,-1,107
 866 718 866 718 893.5 707 c 128,-1,108
 921 696 921 696 937 680.5 c 128,-1,109
 953 665 953 665 953 648 c 256,110,111
 953 631 953 631 937 616 c 128,-1,112
 921 601 921 601 893.5 589.5 c 128,-1,113
 866 578 866 578 828.5 571.5 c 128,-1,114
 791 565 791 565 747 565 c 0,115,116
 704 565 704 565 666.5 571.5 c 128,-1,117
 629 578 629 578 601 589.5 c 128,-1,118
 573 601 573 601 557.5 616 c 128,-1,119
 542 631 542 631 542 648 c 256,100,101
622 648 m 0,120,121
 622 637 622 637 631.5 627.5 c 128,-1,122
 641 618 641 618 658 611 c 128,-1,123
 675 604 675 604 698 600 c 128,-1,124
 721 596 721 596 747 596 c 0,125,126
 774 596 774 596 796.5 600 c 128,-1,127
 819 604 819 604 836 611 c 128,-1,128
 853 618 853 618 862.5 627.5 c 128,-1,129
 872 637 872 637 872 648 c 0,130,131
 872 658 872 658 862.5 668 c 128,-1,132
 853 678 853 678 836 685 c 128,-1,133
 819 692 819 692 796.5 696 c 128,-1,134
 774 700 774 700 747 700 c 0,135,136
 721 700 721 700 698 696 c 128,-1,137
 675 692 675 692 658 685 c 128,-1,138
 641 678 641 678 631.5 668 c 128,-1,139
 622 658 622 658 622 648 c 0,120,121
EndSplineSet
Validated: 1
EndChar

StartChar: uni0083
Encoding: 131 131 100
Width: 1495
Flags: W
LayerCount: 2
Fore
SplineSet
542 85 m 0,0,1
 542 103 542 103 557.5 118 c 128,-1,2
 573 133 573 133 601 144.5 c 128,-1,3
 629 156 629 156 666.5 162.5 c 128,-1,4
 704 169 704 169 747 169 c 0,5,6
 791 169 791 169 828.5 162.5 c 128,-1,7
 866 156 866 156 893.5 144.5 c 128,-1,8
 921 133 921 133 937 118 c 128,-1,9
 953 103 953 103 953 85 c 0,10,11
 953 68 953 68 937 53 c 128,-1,12
 921 38 921 38 893.5 27 c 128,-1,13
 866 16 866 16 828.5 9.5 c 128,-1,14
 791 3 791 3 747 3 c 0,15,16
 704 3 704 3 666.5 9.5 c 128,-1,17
 629 16 629 16 601 27 c 128,-1,18
 573 38 573 38 557.5 53 c 128,-1,19
 542 68 542 68 542 85 c 0,0,1
542 272 m 0,20,21
 542 290 542 290 557.5 305 c 128,-1,22
 573 320 573 320 601 331.5 c 128,-1,23
 629 343 629 343 666.5 349 c 128,-1,24
 704 355 704 355 747 355 c 0,25,26
 791 355 791 355 828.5 349 c 128,-1,27
 866 343 866 343 893.5 331.5 c 128,-1,28
 921 320 921 320 937 305 c 128,-1,29
 953 290 953 290 953 272 c 0,30,31
 953 255 953 255 937 240 c 128,-1,32
 921 225 921 225 893.5 214 c 128,-1,33
 866 203 866 203 828.5 196 c 128,-1,34
 791 189 791 189 747 189 c 0,35,36
 704 189 704 189 666.5 196 c 128,-1,37
 629 203 629 203 601 214 c 128,-1,38
 573 225 573 225 557.5 240 c 128,-1,39
 542 255 542 255 542 272 c 0,20,21
542 461 m 256,40,41
 542 478 542 478 557.5 493.5 c 128,-1,42
 573 509 573 509 601 520 c 128,-1,43
 629 531 629 531 666.5 537.5 c 128,-1,44
 704 544 704 544 747 544 c 0,45,46
 791 544 791 544 828.5 537.5 c 128,-1,47
 866 531 866 531 893.5 520 c 128,-1,48
 921 509 921 509 937 493.5 c 128,-1,49
 953 478 953 478 953 461 c 256,50,51
 953 444 953 444 937 429 c 128,-1,52
 921 414 921 414 893.5 402.5 c 128,-1,53
 866 391 866 391 828.5 384.5 c 128,-1,54
 791 378 791 378 747 378 c 0,55,56
 704 378 704 378 666.5 384.5 c 128,-1,57
 629 391 629 391 601 402.5 c 128,-1,58
 573 414 573 414 557.5 429 c 128,-1,59
 542 444 542 444 542 461 c 256,40,41
622 461 m 256,60,61
 622 450 622 450 631.5 440.5 c 128,-1,62
 641 431 641 431 658 424 c 128,-1,63
 675 417 675 417 698 413 c 128,-1,64
 721 409 721 409 747 409 c 0,65,66
 774 409 774 409 796.5 413 c 128,-1,67
 819 417 819 417 836 424 c 128,-1,68
 853 431 853 431 862.5 440.5 c 128,-1,69
 872 450 872 450 872 461 c 256,70,71
 872 472 872 472 862.5 481.5 c 128,-1,72
 853 491 853 491 836 498 c 128,-1,73
 819 505 819 505 796.5 509 c 128,-1,74
 774 513 774 513 747 513 c 0,75,76
 721 513 721 513 698 509 c 128,-1,77
 675 505 675 505 658 498 c 128,-1,78
 641 491 641 491 631.5 481.5 c 128,-1,79
 622 472 622 472 622 461 c 256,60,61
542 648 m 256,80,81
 542 665 542 665 557.5 680.5 c 128,-1,82
 573 696 573 696 601 707 c 128,-1,83
 629 718 629 718 666.5 724.5 c 128,-1,84
 704 731 704 731 747 731 c 0,85,86
 791 731 791 731 828.5 724.5 c 128,-1,87
 866 718 866 718 893.5 707 c 128,-1,88
 921 696 921 696 937 680.5 c 128,-1,89
 953 665 953 665 953 648 c 256,90,91
 953 631 953 631 937 616 c 128,-1,92
 921 601 921 601 893.5 589.5 c 128,-1,93
 866 578 866 578 828.5 571.5 c 128,-1,94
 791 565 791 565 747 565 c 0,95,96
 704 565 704 565 666.5 571.5 c 128,-1,97
 629 578 629 578 601 589.5 c 128,-1,98
 573 601 573 601 557.5 616 c 128,-1,99
 542 631 542 631 542 648 c 256,80,81
622 648 m 0,100,101
 622 637 622 637 631.5 627.5 c 128,-1,102
 641 618 641 618 658 611 c 128,-1,103
 675 604 675 604 698 600 c 128,-1,104
 721 596 721 596 747 596 c 0,105,106
 774 596 774 596 796.5 600 c 128,-1,107
 819 604 819 604 836 611 c 128,-1,108
 853 618 853 618 862.5 627.5 c 128,-1,109
 872 637 872 637 872 648 c 0,110,111
 872 658 872 658 862.5 668 c 128,-1,112
 853 678 853 678 836 685 c 128,-1,113
 819 692 819 692 796.5 696 c 128,-1,114
 774 700 774 700 747 700 c 0,115,116
 721 700 721 700 698 696 c 128,-1,117
 675 692 675 692 658 685 c 128,-1,118
 641 678 641 678 631.5 668 c 128,-1,119
 622 658 622 658 622 648 c 0,100,101
EndSplineSet
Validated: 1
EndChar

StartChar: uni0084
Encoding: 132 132 101
Width: 1495
Flags: W
LayerCount: 2
Fore
SplineSet
542 85 m 0,0,1
 542 103 542 103 557.5 118 c 128,-1,2
 573 133 573 133 601 144.5 c 128,-1,3
 629 156 629 156 666.5 162.5 c 128,-1,4
 704 169 704 169 747 169 c 0,5,6
 791 169 791 169 828.5 162.5 c 128,-1,7
 866 156 866 156 893.5 144.5 c 128,-1,8
 921 133 921 133 937 118 c 128,-1,9
 953 103 953 103 953 85 c 0,10,11
 953 68 953 68 937 53 c 128,-1,12
 921 38 921 38 893.5 27 c 128,-1,13
 866 16 866 16 828.5 9.5 c 128,-1,14
 791 3 791 3 747 3 c 0,15,16
 704 3 704 3 666.5 9.5 c 128,-1,17
 629 16 629 16 601 27 c 128,-1,18
 573 38 573 38 557.5 53 c 128,-1,19
 542 68 542 68 542 85 c 0,0,1
622 85 m 256,20,21
 622 74 622 74 631.5 64.5 c 128,-1,22
 641 55 641 55 658 48.5 c 128,-1,23
 675 42 675 42 698 38 c 128,-1,24
 721 34 721 34 747 34 c 0,25,26
 774 34 774 34 796.5 38 c 128,-1,27
 819 42 819 42 836 48.5 c 128,-1,28
 853 55 853 55 862.5 64.5 c 128,-1,29
 872 74 872 74 872 85 c 256,30,31
 872 96 872 96 862.5 105.5 c 128,-1,32
 853 115 853 115 836 122 c 128,-1,33
 819 129 819 129 796.5 133 c 128,-1,34
 774 137 774 137 747 137 c 0,35,36
 721 137 721 137 698 133 c 128,-1,37
 675 129 675 129 658 122 c 128,-1,38
 641 115 641 115 631.5 105.5 c 128,-1,39
 622 96 622 96 622 85 c 256,20,21
542 272 m 0,40,41
 542 290 542 290 557.5 305 c 128,-1,42
 573 320 573 320 601 331.5 c 128,-1,43
 629 343 629 343 666.5 349 c 128,-1,44
 704 355 704 355 747 355 c 0,45,46
 791 355 791 355 828.5 349 c 128,-1,47
 866 343 866 343 893.5 331.5 c 128,-1,48
 921 320 921 320 937 305 c 128,-1,49
 953 290 953 290 953 272 c 0,50,51
 953 255 953 255 937 240 c 128,-1,52
 921 225 921 225 893.5 214 c 128,-1,53
 866 203 866 203 828.5 196 c 128,-1,54
 791 189 791 189 747 189 c 0,55,56
 704 189 704 189 666.5 196 c 128,-1,57
 629 203 629 203 601 214 c 128,-1,58
 573 225 573 225 557.5 240 c 128,-1,59
 542 255 542 255 542 272 c 0,40,41
622 272 m 256,60,61
 622 261 622 261 631.5 251.5 c 128,-1,62
 641 242 641 242 658 235 c 128,-1,63
 675 228 675 228 698 224 c 128,-1,64
 721 220 721 220 747 220 c 0,65,66
 774 220 774 220 796.5 224 c 128,-1,67
 819 228 819 228 836 235 c 128,-1,68
 853 242 853 242 862.5 251.5 c 128,-1,69
 872 261 872 261 872 272 c 256,70,71
 872 283 872 283 862.5 292.5 c 128,-1,72
 853 302 853 302 836 309 c 128,-1,73
 819 316 819 316 796.5 320 c 128,-1,74
 774 324 774 324 747 324 c 0,75,76
 721 324 721 324 698 320 c 128,-1,77
 675 316 675 316 658 309 c 128,-1,78
 641 302 641 302 631.5 292.5 c 128,-1,79
 622 283 622 283 622 272 c 256,60,61
542 461 m 256,80,81
 542 478 542 478 557.5 493.5 c 128,-1,82
 573 509 573 509 601 520 c 128,-1,83
 629 531 629 531 666.5 537.5 c 128,-1,84
 704 544 704 544 747 544 c 0,85,86
 791 544 791 544 828.5 537.5 c 128,-1,87
 866 531 866 531 893.5 520 c 128,-1,88
 921 509 921 509 937 493.5 c 128,-1,89
 953 478 953 478 953 461 c 256,90,91
 953 444 953 444 937 429 c 128,-1,92
 921 414 921 414 893.5 402.5 c 128,-1,93
 866 391 866 391 828.5 384.5 c 128,-1,94
 791 378 791 378 747 378 c 0,95,96
 704 378 704 378 666.5 384.5 c 128,-1,97
 629 391 629 391 601 402.5 c 128,-1,98
 573 414 573 414 557.5 429 c 128,-1,99
 542 444 542 444 542 461 c 256,80,81
542 648 m 256,100,101
 542 665 542 665 557.5 680.5 c 128,-1,102
 573 696 573 696 601 707 c 128,-1,103
 629 718 629 718 666.5 724.5 c 128,-1,104
 704 731 704 731 747 731 c 0,105,106
 791 731 791 731 828.5 724.5 c 128,-1,107
 866 718 866 718 893.5 707 c 128,-1,108
 921 696 921 696 937 680.5 c 128,-1,109
 953 665 953 665 953 648 c 256,110,111
 953 631 953 631 937 616 c 128,-1,112
 921 601 921 601 893.5 589.5 c 128,-1,113
 866 578 866 578 828.5 571.5 c 128,-1,114
 791 565 791 565 747 565 c 0,115,116
 704 565 704 565 666.5 571.5 c 128,-1,117
 629 578 629 578 601 589.5 c 128,-1,118
 573 601 573 601 557.5 616 c 128,-1,119
 542 631 542 631 542 648 c 256,100,101
622 648 m 0,120,121
 622 637 622 637 631.5 627.5 c 128,-1,122
 641 618 641 618 658 611 c 128,-1,123
 675 604 675 604 698 600 c 128,-1,124
 721 596 721 596 747 596 c 0,125,126
 774 596 774 596 796.5 600 c 128,-1,127
 819 604 819 604 836 611 c 128,-1,128
 853 618 853 618 862.5 627.5 c 128,-1,129
 872 637 872 637 872 648 c 0,130,131
 872 658 872 658 862.5 668 c 128,-1,132
 853 678 853 678 836 685 c 128,-1,133
 819 692 819 692 796.5 696 c 128,-1,134
 774 700 774 700 747 700 c 0,135,136
 721 700 721 700 698 696 c 128,-1,137
 675 692 675 692 658 685 c 128,-1,138
 641 678 641 678 631.5 668 c 128,-1,139
 622 658 622 658 622 648 c 0,120,121
EndSplineSet
Validated: 1
EndChar

StartChar: uni0085
Encoding: 133 133 102
Width: 1495
Flags: W
LayerCount: 2
Fore
SplineSet
542 85 m 0,0,1
 542 103 542 103 557.5 118 c 128,-1,2
 573 133 573 133 601 144.5 c 128,-1,3
 629 156 629 156 666.5 162.5 c 128,-1,4
 704 169 704 169 747 169 c 0,5,6
 791 169 791 169 828.5 162.5 c 128,-1,7
 866 156 866 156 893.5 144.5 c 128,-1,8
 921 133 921 133 937 118 c 128,-1,9
 953 103 953 103 953 85 c 0,10,11
 953 68 953 68 937 53 c 128,-1,12
 921 38 921 38 893.5 27 c 128,-1,13
 866 16 866 16 828.5 9.5 c 128,-1,14
 791 3 791 3 747 3 c 0,15,16
 704 3 704 3 666.5 9.5 c 128,-1,17
 629 16 629 16 601 27 c 128,-1,18
 573 38 573 38 557.5 53 c 128,-1,19
 542 68 542 68 542 85 c 0,0,1
542 272 m 0,20,21
 542 290 542 290 557.5 305 c 128,-1,22
 573 320 573 320 601 331.5 c 128,-1,23
 629 343 629 343 666.5 349 c 128,-1,24
 704 355 704 355 747 355 c 0,25,26
 791 355 791 355 828.5 349 c 128,-1,27
 866 343 866 343 893.5 331.5 c 128,-1,28
 921 320 921 320 937 305 c 128,-1,29
 953 290 953 290 953 272 c 0,30,31
 953 255 953 255 937 240 c 128,-1,32
 921 225 921 225 893.5 214 c 128,-1,33
 866 203 866 203 828.5 196 c 128,-1,34
 791 189 791 189 747 189 c 0,35,36
 704 189 704 189 666.5 196 c 128,-1,37
 629 203 629 203 601 214 c 128,-1,38
 573 225 573 225 557.5 240 c 128,-1,39
 542 255 542 255 542 272 c 0,20,21
622 272 m 256,40,41
 622 261 622 261 631.5 251.5 c 128,-1,42
 641 242 641 242 658 235 c 128,-1,43
 675 228 675 228 698 224 c 128,-1,44
 721 220 721 220 747 220 c 0,45,46
 774 220 774 220 796.5 224 c 128,-1,47
 819 228 819 228 836 235 c 128,-1,48
 853 242 853 242 862.5 251.5 c 128,-1,49
 872 261 872 261 872 272 c 256,50,51
 872 283 872 283 862.5 292.5 c 128,-1,52
 853 302 853 302 836 309 c 128,-1,53
 819 316 819 316 796.5 320 c 128,-1,54
 774 324 774 324 747 324 c 0,55,56
 721 324 721 324 698 320 c 128,-1,57
 675 316 675 316 658 309 c 128,-1,58
 641 302 641 302 631.5 292.5 c 128,-1,59
 622 283 622 283 622 272 c 256,40,41
542 461 m 256,60,61
 542 478 542 478 557.5 493.5 c 128,-1,62
 573 509 573 509 601 520 c 128,-1,63
 629 531 629 531 666.5 537.5 c 128,-1,64
 704 544 704 544 747 544 c 0,65,66
 791 544 791 544 828.5 537.5 c 128,-1,67
 866 531 866 531 893.5 520 c 128,-1,68
 921 509 921 509 937 493.5 c 128,-1,69
 953 478 953 478 953 461 c 256,70,71
 953 444 953 444 937 429 c 128,-1,72
 921 414 921 414 893.5 402.5 c 128,-1,73
 866 391 866 391 828.5 384.5 c 128,-1,74
 791 378 791 378 747 378 c 0,75,76
 704 378 704 378 666.5 384.5 c 128,-1,77
 629 391 629 391 601 402.5 c 128,-1,78
 573 414 573 414 557.5 429 c 128,-1,79
 542 444 542 444 542 461 c 256,60,61
542 648 m 256,80,81
 542 665 542 665 557.5 680.5 c 128,-1,82
 573 696 573 696 601 707 c 128,-1,83
 629 718 629 718 666.5 724.5 c 128,-1,84
 704 731 704 731 747 731 c 0,85,86
 791 731 791 731 828.5 724.5 c 128,-1,87
 866 718 866 718 893.5 707 c 128,-1,88
 921 696 921 696 937 680.5 c 128,-1,89
 953 665 953 665 953 648 c 256,90,91
 953 631 953 631 937 616 c 128,-1,92
 921 601 921 601 893.5 589.5 c 128,-1,93
 866 578 866 578 828.5 571.5 c 128,-1,94
 791 565 791 565 747 565 c 0,95,96
 704 565 704 565 666.5 571.5 c 128,-1,97
 629 578 629 578 601 589.5 c 128,-1,98
 573 601 573 601 557.5 616 c 128,-1,99
 542 631 542 631 542 648 c 256,80,81
622 648 m 0,100,101
 622 637 622 637 631.5 627.5 c 128,-1,102
 641 618 641 618 658 611 c 128,-1,103
 675 604 675 604 698 600 c 128,-1,104
 721 596 721 596 747 596 c 0,105,106
 774 596 774 596 796.5 600 c 128,-1,107
 819 604 819 604 836 611 c 128,-1,108
 853 618 853 618 862.5 627.5 c 128,-1,109
 872 637 872 637 872 648 c 0,110,111
 872 658 872 658 862.5 668 c 128,-1,112
 853 678 853 678 836 685 c 128,-1,113
 819 692 819 692 796.5 696 c 128,-1,114
 774 700 774 700 747 700 c 0,115,116
 721 700 721 700 698 696 c 128,-1,117
 675 692 675 692 658 685 c 128,-1,118
 641 678 641 678 631.5 668 c 128,-1,119
 622 658 622 658 622 648 c 0,100,101
EndSplineSet
Validated: 1
EndChar

StartChar: uni0086
Encoding: 134 134 103
Width: 1495
Flags: W
LayerCount: 2
Fore
SplineSet
542 85 m 0,0,1
 542 103 542 103 557.5 118 c 128,-1,2
 573 133 573 133 601 144.5 c 128,-1,3
 629 156 629 156 666.5 162.5 c 128,-1,4
 704 169 704 169 747 169 c 0,5,6
 791 169 791 169 828.5 162.5 c 128,-1,7
 866 156 866 156 893.5 144.5 c 128,-1,8
 921 133 921 133 937 118 c 128,-1,9
 953 103 953 103 953 85 c 0,10,11
 953 68 953 68 937 53 c 128,-1,12
 921 38 921 38 893.5 27 c 128,-1,13
 866 16 866 16 828.5 9.5 c 128,-1,14
 791 3 791 3 747 3 c 0,15,16
 704 3 704 3 666.5 9.5 c 128,-1,17
 629 16 629 16 601 27 c 128,-1,18
 573 38 573 38 557.5 53 c 128,-1,19
 542 68 542 68 542 85 c 0,0,1
622 85 m 256,20,21
 622 74 622 74 631.5 64.5 c 128,-1,22
 641 55 641 55 658 48.5 c 128,-1,23
 675 42 675 42 698 38 c 128,-1,24
 721 34 721 34 747 34 c 0,25,26
 774 34 774 34 796.5 38 c 128,-1,27
 819 42 819 42 836 48.5 c 128,-1,28
 853 55 853 55 862.5 64.5 c 128,-1,29
 872 74 872 74 872 85 c 256,30,31
 872 96 872 96 862.5 105.5 c 128,-1,32
 853 115 853 115 836 122 c 128,-1,33
 819 129 819 129 796.5 133 c 128,-1,34
 774 137 774 137 747 137 c 0,35,36
 721 137 721 137 698 133 c 128,-1,37
 675 129 675 129 658 122 c 128,-1,38
 641 115 641 115 631.5 105.5 c 128,-1,39
 622 96 622 96 622 85 c 256,20,21
542 272 m 0,40,41
 542 290 542 290 557.5 305 c 128,-1,42
 573 320 573 320 601 331.5 c 128,-1,43
 629 343 629 343 666.5 349 c 128,-1,44
 704 355 704 355 747 355 c 0,45,46
 791 355 791 355 828.5 349 c 128,-1,47
 866 343 866 343 893.5 331.5 c 128,-1,48
 921 320 921 320 937 305 c 128,-1,49
 953 290 953 290 953 272 c 0,50,51
 953 255 953 255 937 240 c 128,-1,52
 921 225 921 225 893.5 214 c 128,-1,53
 866 203 866 203 828.5 196 c 128,-1,54
 791 189 791 189 747 189 c 0,55,56
 704 189 704 189 666.5 196 c 128,-1,57
 629 203 629 203 601 214 c 128,-1,58
 573 225 573 225 557.5 240 c 128,-1,59
 542 255 542 255 542 272 c 0,40,41
542 461 m 256,60,61
 542 478 542 478 557.5 493.5 c 128,-1,62
 573 509 573 509 601 520 c 128,-1,63
 629 531 629 531 666.5 537.5 c 128,-1,64
 704 544 704 544 747 544 c 0,65,66
 791 544 791 544 828.5 537.5 c 128,-1,67
 866 531 866 531 893.5 520 c 128,-1,68
 921 509 921 509 937 493.5 c 128,-1,69
 953 478 953 478 953 461 c 256,70,71
 953 444 953 444 937 429 c 128,-1,72
 921 414 921 414 893.5 402.5 c 128,-1,73
 866 391 866 391 828.5 384.5 c 128,-1,74
 791 378 791 378 747 378 c 0,75,76
 704 378 704 378 666.5 384.5 c 128,-1,77
 629 391 629 391 601 402.5 c 128,-1,78
 573 414 573 414 557.5 429 c 128,-1,79
 542 444 542 444 542 461 c 256,60,61
542 648 m 256,80,81
 542 665 542 665 557.5 680.5 c 128,-1,82
 573 696 573 696 601 707 c 128,-1,83
 629 718 629 718 666.5 724.5 c 128,-1,84
 704 731 704 731 747 731 c 0,85,86
 791 731 791 731 828.5 724.5 c 128,-1,87
 866 718 866 718 893.5 707 c 128,-1,88
 921 696 921 696 937 680.5 c 128,-1,89
 953 665 953 665 953 648 c 256,90,91
 953 631 953 631 937 616 c 128,-1,92
 921 601 921 601 893.5 589.5 c 128,-1,93
 866 578 866 578 828.5 571.5 c 128,-1,94
 791 565 791 565 747 565 c 0,95,96
 704 565 704 565 666.5 571.5 c 128,-1,97
 629 578 629 578 601 589.5 c 128,-1,98
 573 601 573 601 557.5 616 c 128,-1,99
 542 631 542 631 542 648 c 256,80,81
622 648 m 0,100,101
 622 637 622 637 631.5 627.5 c 128,-1,102
 641 618 641 618 658 611 c 128,-1,103
 675 604 675 604 698 600 c 128,-1,104
 721 596 721 596 747 596 c 0,105,106
 774 596 774 596 796.5 600 c 128,-1,107
 819 604 819 604 836 611 c 128,-1,108
 853 618 853 618 862.5 627.5 c 128,-1,109
 872 637 872 637 872 648 c 0,110,111
 872 658 872 658 862.5 668 c 128,-1,112
 853 678 853 678 836 685 c 128,-1,113
 819 692 819 692 796.5 696 c 128,-1,114
 774 700 774 700 747 700 c 0,115,116
 721 700 721 700 698 696 c 128,-1,117
 675 692 675 692 658 685 c 128,-1,118
 641 678 641 678 631.5 668 c 128,-1,119
 622 658 622 658 622 648 c 0,100,101
EndSplineSet
Validated: 1
EndChar

StartChar: uni0087
Encoding: 135 135 104
Width: 1495
Flags: W
LayerCount: 2
Fore
SplineSet
542 85 m 0,0,1
 542 103 542 103 557.5 118 c 128,-1,2
 573 133 573 133 601 144.5 c 128,-1,3
 629 156 629 156 666.5 162.5 c 128,-1,4
 704 169 704 169 747 169 c 0,5,6
 791 169 791 169 828.5 162.5 c 128,-1,7
 866 156 866 156 893.5 144.5 c 128,-1,8
 921 133 921 133 937 118 c 128,-1,9
 953 103 953 103 953 85 c 0,10,11
 953 68 953 68 937 53 c 128,-1,12
 921 38 921 38 893.5 27 c 128,-1,13
 866 16 866 16 828.5 9.5 c 128,-1,14
 791 3 791 3 747 3 c 0,15,16
 704 3 704 3 666.5 9.5 c 128,-1,17
 629 16 629 16 601 27 c 128,-1,18
 573 38 573 38 557.5 53 c 128,-1,19
 542 68 542 68 542 85 c 0,0,1
542 272 m 0,20,21
 542 290 542 290 557.5 305 c 128,-1,22
 573 320 573 320 601 331.5 c 128,-1,23
 629 343 629 343 666.5 349 c 128,-1,24
 704 355 704 355 747 355 c 0,25,26
 791 355 791 355 828.5 349 c 128,-1,27
 866 343 866 343 893.5 331.5 c 128,-1,28
 921 320 921 320 937 305 c 128,-1,29
 953 290 953 290 953 272 c 0,30,31
 953 255 953 255 937 240 c 128,-1,32
 921 225 921 225 893.5 214 c 128,-1,33
 866 203 866 203 828.5 196 c 128,-1,34
 791 189 791 189 747 189 c 0,35,36
 704 189 704 189 666.5 196 c 128,-1,37
 629 203 629 203 601 214 c 128,-1,38
 573 225 573 225 557.5 240 c 128,-1,39
 542 255 542 255 542 272 c 0,20,21
542 461 m 256,40,41
 542 478 542 478 557.5 493.5 c 128,-1,42
 573 509 573 509 601 520 c 128,-1,43
 629 531 629 531 666.5 537.5 c 128,-1,44
 704 544 704 544 747 544 c 0,45,46
 791 544 791 544 828.5 537.5 c 128,-1,47
 866 531 866 531 893.5 520 c 128,-1,48
 921 509 921 509 937 493.5 c 128,-1,49
 953 478 953 478 953 461 c 256,50,51
 953 444 953 444 937 429 c 128,-1,52
 921 414 921 414 893.5 402.5 c 128,-1,53
 866 391 866 391 828.5 384.5 c 128,-1,54
 791 378 791 378 747 378 c 0,55,56
 704 378 704 378 666.5 384.5 c 128,-1,57
 629 391 629 391 601 402.5 c 128,-1,58
 573 414 573 414 557.5 429 c 128,-1,59
 542 444 542 444 542 461 c 256,40,41
542 648 m 256,60,61
 542 665 542 665 557.5 680.5 c 128,-1,62
 573 696 573 696 601 707 c 128,-1,63
 629 718 629 718 666.5 724.5 c 128,-1,64
 704 731 704 731 747 731 c 0,65,66
 791 731 791 731 828.5 724.5 c 128,-1,67
 866 718 866 718 893.5 707 c 128,-1,68
 921 696 921 696 937 680.5 c 128,-1,69
 953 665 953 665 953 648 c 256,70,71
 953 631 953 631 937 616 c 128,-1,72
 921 601 921 601 893.5 589.5 c 128,-1,73
 866 578 866 578 828.5 571.5 c 128,-1,74
 791 565 791 565 747 565 c 0,75,76
 704 565 704 565 666.5 571.5 c 128,-1,77
 629 578 629 578 601 589.5 c 128,-1,78
 573 601 573 601 557.5 616 c 128,-1,79
 542 631 542 631 542 648 c 256,60,61
622 648 m 0,80,81
 622 637 622 637 631.5 627.5 c 128,-1,82
 641 618 641 618 658 611 c 128,-1,83
 675 604 675 604 698 600 c 128,-1,84
 721 596 721 596 747 596 c 0,85,86
 774 596 774 596 796.5 600 c 128,-1,87
 819 604 819 604 836 611 c 128,-1,88
 853 618 853 618 862.5 627.5 c 128,-1,89
 872 637 872 637 872 648 c 0,90,91
 872 658 872 658 862.5 668 c 128,-1,92
 853 678 853 678 836 685 c 128,-1,93
 819 692 819 692 796.5 696 c 128,-1,94
 774 700 774 700 747 700 c 0,95,96
 721 700 721 700 698 696 c 128,-1,97
 675 692 675 692 658 685 c 128,-1,98
 641 678 641 678 631.5 668 c 128,-1,99
 622 658 622 658 622 648 c 0,80,81
EndSplineSet
Validated: 1
EndChar

StartChar: uni0088
Encoding: 136 136 105
Width: 1495
Flags: W
LayerCount: 2
Fore
SplineSet
542 85 m 0,0,1
 542 103 542 103 557.5 118 c 128,-1,2
 573 133 573 133 601 144.5 c 128,-1,3
 629 156 629 156 666.5 162.5 c 128,-1,4
 704 169 704 169 747 169 c 0,5,6
 791 169 791 169 828.5 162.5 c 128,-1,7
 866 156 866 156 893.5 144.5 c 128,-1,8
 921 133 921 133 937 118 c 128,-1,9
 953 103 953 103 953 85 c 0,10,11
 953 68 953 68 937 53 c 128,-1,12
 921 38 921 38 893.5 27 c 128,-1,13
 866 16 866 16 828.5 9.5 c 128,-1,14
 791 3 791 3 747 3 c 0,15,16
 704 3 704 3 666.5 9.5 c 128,-1,17
 629 16 629 16 601 27 c 128,-1,18
 573 38 573 38 557.5 53 c 128,-1,19
 542 68 542 68 542 85 c 0,0,1
622 85 m 256,20,21
 622 74 622 74 631.5 64.5 c 128,-1,22
 641 55 641 55 658 48.5 c 128,-1,23
 675 42 675 42 698 38 c 128,-1,24
 721 34 721 34 747 34 c 0,25,26
 774 34 774 34 796.5 38 c 128,-1,27
 819 42 819 42 836 48.5 c 128,-1,28
 853 55 853 55 862.5 64.5 c 128,-1,29
 872 74 872 74 872 85 c 256,30,31
 872 96 872 96 862.5 105.5 c 128,-1,32
 853 115 853 115 836 122 c 128,-1,33
 819 129 819 129 796.5 133 c 128,-1,34
 774 137 774 137 747 137 c 0,35,36
 721 137 721 137 698 133 c 128,-1,37
 675 129 675 129 658 122 c 128,-1,38
 641 115 641 115 631.5 105.5 c 128,-1,39
 622 96 622 96 622 85 c 256,20,21
542 272 m 0,40,41
 542 290 542 290 557.5 305 c 128,-1,42
 573 320 573 320 601 331.5 c 128,-1,43
 629 343 629 343 666.5 349 c 128,-1,44
 704 355 704 355 747 355 c 0,45,46
 791 355 791 355 828.5 349 c 128,-1,47
 866 343 866 343 893.5 331.5 c 128,-1,48
 921 320 921 320 937 305 c 128,-1,49
 953 290 953 290 953 272 c 0,50,51
 953 255 953 255 937 240 c 128,-1,52
 921 225 921 225 893.5 214 c 128,-1,53
 866 203 866 203 828.5 196 c 128,-1,54
 791 189 791 189 747 189 c 0,55,56
 704 189 704 189 666.5 196 c 128,-1,57
 629 203 629 203 601 214 c 128,-1,58
 573 225 573 225 557.5 240 c 128,-1,59
 542 255 542 255 542 272 c 0,40,41
622 272 m 256,60,61
 622 261 622 261 631.5 251.5 c 128,-1,62
 641 242 641 242 658 235 c 128,-1,63
 675 228 675 228 698 224 c 128,-1,64
 721 220 721 220 747 220 c 0,65,66
 774 220 774 220 796.5 224 c 128,-1,67
 819 228 819 228 836 235 c 128,-1,68
 853 242 853 242 862.5 251.5 c 128,-1,69
 872 261 872 261 872 272 c 256,70,71
 872 283 872 283 862.5 292.5 c 128,-1,72
 853 302 853 302 836 309 c 128,-1,73
 819 316 819 316 796.5 320 c 128,-1,74
 774 324 774 324 747 324 c 0,75,76
 721 324 721 324 698 320 c 128,-1,77
 675 316 675 316 658 309 c 128,-1,78
 641 302 641 302 631.5 292.5 c 128,-1,79
 622 283 622 283 622 272 c 256,60,61
542 461 m 256,80,81
 542 478 542 478 557.5 493.5 c 128,-1,82
 573 509 573 509 601 520 c 128,-1,83
 629 531 629 531 666.5 537.5 c 128,-1,84
 704 544 704 544 747 544 c 0,85,86
 791 544 791 544 828.5 537.5 c 128,-1,87
 866 531 866 531 893.5 520 c 128,-1,88
 921 509 921 509 937 493.5 c 128,-1,89
 953 478 953 478 953 461 c 256,90,91
 953 444 953 444 937 429 c 128,-1,92
 921 414 921 414 893.5 402.5 c 128,-1,93
 866 391 866 391 828.5 384.5 c 128,-1,94
 791 378 791 378 747 378 c 0,95,96
 704 378 704 378 666.5 384.5 c 128,-1,97
 629 391 629 391 601 402.5 c 128,-1,98
 573 414 573 414 557.5 429 c 128,-1,99
 542 444 542 444 542 461 c 256,80,81
622 461 m 256,100,101
 622 450 622 450 631.5 440.5 c 128,-1,102
 641 431 641 431 658 424 c 128,-1,103
 675 417 675 417 698 413 c 128,-1,104
 721 409 721 409 747 409 c 0,105,106
 774 409 774 409 796.5 413 c 128,-1,107
 819 417 819 417 836 424 c 128,-1,108
 853 431 853 431 862.5 440.5 c 128,-1,109
 872 450 872 450 872 461 c 256,110,111
 872 472 872 472 862.5 481.5 c 128,-1,112
 853 491 853 491 836 498 c 128,-1,113
 819 505 819 505 796.5 509 c 128,-1,114
 774 513 774 513 747 513 c 0,115,116
 721 513 721 513 698 509 c 128,-1,117
 675 505 675 505 658 498 c 128,-1,118
 641 491 641 491 631.5 481.5 c 128,-1,119
 622 472 622 472 622 461 c 256,100,101
542 648 m 256,120,121
 542 665 542 665 557.5 680.5 c 128,-1,122
 573 696 573 696 601 707 c 128,-1,123
 629 718 629 718 666.5 724.5 c 128,-1,124
 704 731 704 731 747 731 c 0,125,126
 791 731 791 731 828.5 724.5 c 128,-1,127
 866 718 866 718 893.5 707 c 128,-1,128
 921 696 921 696 937 680.5 c 128,-1,129
 953 665 953 665 953 648 c 256,130,131
 953 631 953 631 937 616 c 128,-1,132
 921 601 921 601 893.5 589.5 c 128,-1,133
 866 578 866 578 828.5 571.5 c 128,-1,134
 791 565 791 565 747 565 c 0,135,136
 704 565 704 565 666.5 571.5 c 128,-1,137
 629 578 629 578 601 589.5 c 128,-1,138
 573 601 573 601 557.5 616 c 128,-1,139
 542 631 542 631 542 648 c 256,120,121
EndSplineSet
Validated: 1
EndChar

StartChar: uni0089
Encoding: 137 137 106
Width: 1495
Flags: W
LayerCount: 2
Fore
SplineSet
542 85 m 0,0,1
 542 103 542 103 557.5 118 c 128,-1,2
 573 133 573 133 601 144.5 c 128,-1,3
 629 156 629 156 666.5 162.5 c 128,-1,4
 704 169 704 169 747 169 c 0,5,6
 791 169 791 169 828.5 162.5 c 128,-1,7
 866 156 866 156 893.5 144.5 c 128,-1,8
 921 133 921 133 937 118 c 128,-1,9
 953 103 953 103 953 85 c 0,10,11
 953 68 953 68 937 53 c 128,-1,12
 921 38 921 38 893.5 27 c 128,-1,13
 866 16 866 16 828.5 9.5 c 128,-1,14
 791 3 791 3 747 3 c 0,15,16
 704 3 704 3 666.5 9.5 c 128,-1,17
 629 16 629 16 601 27 c 128,-1,18
 573 38 573 38 557.5 53 c 128,-1,19
 542 68 542 68 542 85 c 0,0,1
542 272 m 0,20,21
 542 290 542 290 557.5 305 c 128,-1,22
 573 320 573 320 601 331.5 c 128,-1,23
 629 343 629 343 666.5 349 c 128,-1,24
 704 355 704 355 747 355 c 0,25,26
 791 355 791 355 828.5 349 c 128,-1,27
 866 343 866 343 893.5 331.5 c 128,-1,28
 921 320 921 320 937 305 c 128,-1,29
 953 290 953 290 953 272 c 0,30,31
 953 255 953 255 937 240 c 128,-1,32
 921 225 921 225 893.5 214 c 128,-1,33
 866 203 866 203 828.5 196 c 128,-1,34
 791 189 791 189 747 189 c 0,35,36
 704 189 704 189 666.5 196 c 128,-1,37
 629 203 629 203 601 214 c 128,-1,38
 573 225 573 225 557.5 240 c 128,-1,39
 542 255 542 255 542 272 c 0,20,21
622 272 m 256,40,41
 622 261 622 261 631.5 251.5 c 128,-1,42
 641 242 641 242 658 235 c 128,-1,43
 675 228 675 228 698 224 c 128,-1,44
 721 220 721 220 747 220 c 0,45,46
 774 220 774 220 796.5 224 c 128,-1,47
 819 228 819 228 836 235 c 128,-1,48
 853 242 853 242 862.5 251.5 c 128,-1,49
 872 261 872 261 872 272 c 256,50,51
 872 283 872 283 862.5 292.5 c 128,-1,52
 853 302 853 302 836 309 c 128,-1,53
 819 316 819 316 796.5 320 c 128,-1,54
 774 324 774 324 747 324 c 0,55,56
 721 324 721 324 698 320 c 128,-1,57
 675 316 675 316 658 309 c 128,-1,58
 641 302 641 302 631.5 292.5 c 128,-1,59
 622 283 622 283 622 272 c 256,40,41
542 461 m 256,60,61
 542 478 542 478 557.5 493.5 c 128,-1,62
 573 509 573 509 601 520 c 128,-1,63
 629 531 629 531 666.5 537.5 c 128,-1,64
 704 544 704 544 747 544 c 0,65,66
 791 544 791 544 828.5 537.5 c 128,-1,67
 866 531 866 531 893.5 520 c 128,-1,68
 921 509 921 509 937 493.5 c 128,-1,69
 953 478 953 478 953 461 c 256,70,71
 953 444 953 444 937 429 c 128,-1,72
 921 414 921 414 893.5 402.5 c 128,-1,73
 866 391 866 391 828.5 384.5 c 128,-1,74
 791 378 791 378 747 378 c 0,75,76
 704 378 704 378 666.5 384.5 c 128,-1,77
 629 391 629 391 601 402.5 c 128,-1,78
 573 414 573 414 557.5 429 c 128,-1,79
 542 444 542 444 542 461 c 256,60,61
622 461 m 256,80,81
 622 450 622 450 631.5 440.5 c 128,-1,82
 641 431 641 431 658 424 c 128,-1,83
 675 417 675 417 698 413 c 128,-1,84
 721 409 721 409 747 409 c 0,85,86
 774 409 774 409 796.5 413 c 128,-1,87
 819 417 819 417 836 424 c 128,-1,88
 853 431 853 431 862.5 440.5 c 128,-1,89
 872 450 872 450 872 461 c 256,90,91
 872 472 872 472 862.5 481.5 c 128,-1,92
 853 491 853 491 836 498 c 128,-1,93
 819 505 819 505 796.5 509 c 128,-1,94
 774 513 774 513 747 513 c 0,95,96
 721 513 721 513 698 509 c 128,-1,97
 675 505 675 505 658 498 c 128,-1,98
 641 491 641 491 631.5 481.5 c 128,-1,99
 622 472 622 472 622 461 c 256,80,81
542 648 m 256,100,101
 542 665 542 665 557.5 680.5 c 128,-1,102
 573 696 573 696 601 707 c 128,-1,103
 629 718 629 718 666.5 724.5 c 128,-1,104
 704 731 704 731 747 731 c 0,105,106
 791 731 791 731 828.5 724.5 c 128,-1,107
 866 718 866 718 893.5 707 c 128,-1,108
 921 696 921 696 937 680.5 c 128,-1,109
 953 665 953 665 953 648 c 256,110,111
 953 631 953 631 937 616 c 128,-1,112
 921 601 921 601 893.5 589.5 c 128,-1,113
 866 578 866 578 828.5 571.5 c 128,-1,114
 791 565 791 565 747 565 c 0,115,116
 704 565 704 565 666.5 571.5 c 128,-1,117
 629 578 629 578 601 589.5 c 128,-1,118
 573 601 573 601 557.5 616 c 128,-1,119
 542 631 542 631 542 648 c 256,100,101
EndSplineSet
Validated: 1
EndChar

StartChar: uni008A
Encoding: 138 138 107
Width: 1495
Flags: W
LayerCount: 2
Fore
SplineSet
542 85 m 0,0,1
 542 103 542 103 557.5 118 c 128,-1,2
 573 133 573 133 601 144.5 c 128,-1,3
 629 156 629 156 666.5 162.5 c 128,-1,4
 704 169 704 169 747 169 c 0,5,6
 791 169 791 169 828.5 162.5 c 128,-1,7
 866 156 866 156 893.5 144.5 c 128,-1,8
 921 133 921 133 937 118 c 128,-1,9
 953 103 953 103 953 85 c 0,10,11
 953 68 953 68 937 53 c 128,-1,12
 921 38 921 38 893.5 27 c 128,-1,13
 866 16 866 16 828.5 9.5 c 128,-1,14
 791 3 791 3 747 3 c 0,15,16
 704 3 704 3 666.5 9.5 c 128,-1,17
 629 16 629 16 601 27 c 128,-1,18
 573 38 573 38 557.5 53 c 128,-1,19
 542 68 542 68 542 85 c 0,0,1
622 85 m 256,20,21
 622 74 622 74 631.5 64.5 c 128,-1,22
 641 55 641 55 658 48.5 c 128,-1,23
 675 42 675 42 698 38 c 128,-1,24
 721 34 721 34 747 34 c 0,25,26
 774 34 774 34 796.5 38 c 128,-1,27
 819 42 819 42 836 48.5 c 128,-1,28
 853 55 853 55 862.5 64.5 c 128,-1,29
 872 74 872 74 872 85 c 256,30,31
 872 96 872 96 862.5 105.5 c 128,-1,32
 853 115 853 115 836 122 c 128,-1,33
 819 129 819 129 796.5 133 c 128,-1,34
 774 137 774 137 747 137 c 0,35,36
 721 137 721 137 698 133 c 128,-1,37
 675 129 675 129 658 122 c 128,-1,38
 641 115 641 115 631.5 105.5 c 128,-1,39
 622 96 622 96 622 85 c 256,20,21
542 272 m 0,40,41
 542 290 542 290 557.5 305 c 128,-1,42
 573 320 573 320 601 331.5 c 128,-1,43
 629 343 629 343 666.5 349 c 128,-1,44
 704 355 704 355 747 355 c 0,45,46
 791 355 791 355 828.5 349 c 128,-1,47
 866 343 866 343 893.5 331.5 c 128,-1,48
 921 320 921 320 937 305 c 128,-1,49
 953 290 953 290 953 272 c 0,50,51
 953 255 953 255 937 240 c 128,-1,52
 921 225 921 225 893.5 214 c 128,-1,53
 866 203 866 203 828.5 196 c 128,-1,54
 791 189 791 189 747 189 c 0,55,56
 704 189 704 189 666.5 196 c 128,-1,57
 629 203 629 203 601 214 c 128,-1,58
 573 225 573 225 557.5 240 c 128,-1,59
 542 255 542 255 542 272 c 0,40,41
542 461 m 256,60,61
 542 478 542 478 557.5 493.5 c 128,-1,62
 573 509 573 509 601 520 c 128,-1,63
 629 531 629 531 666.5 537.5 c 128,-1,64
 704 544 704 544 747 544 c 0,65,66
 791 544 791 544 828.5 537.5 c 128,-1,67
 866 531 866 531 893.5 520 c 128,-1,68
 921 509 921 509 937 493.5 c 128,-1,69
 953 478 953 478 953 461 c 256,70,71
 953 444 953 444 937 429 c 128,-1,72
 921 414 921 414 893.5 402.5 c 128,-1,73
 866 391 866 391 828.5 384.5 c 128,-1,74
 791 378 791 378 747 378 c 0,75,76
 704 378 704 378 666.5 384.5 c 128,-1,77
 629 391 629 391 601 402.5 c 128,-1,78
 573 414 573 414 557.5 429 c 128,-1,79
 542 444 542 444 542 461 c 256,60,61
622 461 m 256,80,81
 622 450 622 450 631.5 440.5 c 128,-1,82
 641 431 641 431 658 424 c 128,-1,83
 675 417 675 417 698 413 c 128,-1,84
 721 409 721 409 747 409 c 0,85,86
 774 409 774 409 796.5 413 c 128,-1,87
 819 417 819 417 836 424 c 128,-1,88
 853 431 853 431 862.5 440.5 c 128,-1,89
 872 450 872 450 872 461 c 256,90,91
 872 472 872 472 862.5 481.5 c 128,-1,92
 853 491 853 491 836 498 c 128,-1,93
 819 505 819 505 796.5 509 c 128,-1,94
 774 513 774 513 747 513 c 0,95,96
 721 513 721 513 698 509 c 128,-1,97
 675 505 675 505 658 498 c 128,-1,98
 641 491 641 491 631.5 481.5 c 128,-1,99
 622 472 622 472 622 461 c 256,80,81
542 648 m 256,100,101
 542 665 542 665 557.5 680.5 c 128,-1,102
 573 696 573 696 601 707 c 128,-1,103
 629 718 629 718 666.5 724.5 c 128,-1,104
 704 731 704 731 747 731 c 0,105,106
 791 731 791 731 828.5 724.5 c 128,-1,107
 866 718 866 718 893.5 707 c 128,-1,108
 921 696 921 696 937 680.5 c 128,-1,109
 953 665 953 665 953 648 c 256,110,111
 953 631 953 631 937 616 c 128,-1,112
 921 601 921 601 893.5 589.5 c 128,-1,113
 866 578 866 578 828.5 571.5 c 128,-1,114
 791 565 791 565 747 565 c 0,115,116
 704 565 704 565 666.5 571.5 c 128,-1,117
 629 578 629 578 601 589.5 c 128,-1,118
 573 601 573 601 557.5 616 c 128,-1,119
 542 631 542 631 542 648 c 256,100,101
EndSplineSet
Validated: 1
EndChar

StartChar: uni008B
Encoding: 139 139 108
Width: 1495
Flags: W
LayerCount: 2
Fore
SplineSet
542 85 m 0,0,1
 542 103 542 103 557.5 118 c 128,-1,2
 573 133 573 133 601 144.5 c 128,-1,3
 629 156 629 156 666.5 162.5 c 128,-1,4
 704 169 704 169 747 169 c 0,5,6
 791 169 791 169 828.5 162.5 c 128,-1,7
 866 156 866 156 893.5 144.5 c 128,-1,8
 921 133 921 133 937 118 c 128,-1,9
 953 103 953 103 953 85 c 0,10,11
 953 68 953 68 937 53 c 128,-1,12
 921 38 921 38 893.5 27 c 128,-1,13
 866 16 866 16 828.5 9.5 c 128,-1,14
 791 3 791 3 747 3 c 0,15,16
 704 3 704 3 666.5 9.5 c 128,-1,17
 629 16 629 16 601 27 c 128,-1,18
 573 38 573 38 557.5 53 c 128,-1,19
 542 68 542 68 542 85 c 0,0,1
542 272 m 0,20,21
 542 290 542 290 557.5 305 c 128,-1,22
 573 320 573 320 601 331.5 c 128,-1,23
 629 343 629 343 666.5 349 c 128,-1,24
 704 355 704 355 747 355 c 0,25,26
 791 355 791 355 828.5 349 c 128,-1,27
 866 343 866 343 893.5 331.5 c 128,-1,28
 921 320 921 320 937 305 c 128,-1,29
 953 290 953 290 953 272 c 0,30,31
 953 255 953 255 937 240 c 128,-1,32
 921 225 921 225 893.5 214 c 128,-1,33
 866 203 866 203 828.5 196 c 128,-1,34
 791 189 791 189 747 189 c 0,35,36
 704 189 704 189 666.5 196 c 128,-1,37
 629 203 629 203 601 214 c 128,-1,38
 573 225 573 225 557.5 240 c 128,-1,39
 542 255 542 255 542 272 c 0,20,21
542 461 m 256,40,41
 542 478 542 478 557.5 493.5 c 128,-1,42
 573 509 573 509 601 520 c 128,-1,43
 629 531 629 531 666.5 537.5 c 128,-1,44
 704 544 704 544 747 544 c 0,45,46
 791 544 791 544 828.5 537.5 c 128,-1,47
 866 531 866 531 893.5 520 c 128,-1,48
 921 509 921 509 937 493.5 c 128,-1,49
 953 478 953 478 953 461 c 256,50,51
 953 444 953 444 937 429 c 128,-1,52
 921 414 921 414 893.5 402.5 c 128,-1,53
 866 391 866 391 828.5 384.5 c 128,-1,54
 791 378 791 378 747 378 c 0,55,56
 704 378 704 378 666.5 384.5 c 128,-1,57
 629 391 629 391 601 402.5 c 128,-1,58
 573 414 573 414 557.5 429 c 128,-1,59
 542 444 542 444 542 461 c 256,40,41
622 461 m 256,60,61
 622 450 622 450 631.5 440.5 c 128,-1,62
 641 431 641 431 658 424 c 128,-1,63
 675 417 675 417 698 413 c 128,-1,64
 721 409 721 409 747 409 c 0,65,66
 774 409 774 409 796.5 413 c 128,-1,67
 819 417 819 417 836 424 c 128,-1,68
 853 431 853 431 862.5 440.5 c 128,-1,69
 872 450 872 450 872 461 c 256,70,71
 872 472 872 472 862.5 481.5 c 128,-1,72
 853 491 853 491 836 498 c 128,-1,73
 819 505 819 505 796.5 509 c 128,-1,74
 774 513 774 513 747 513 c 0,75,76
 721 513 721 513 698 509 c 128,-1,77
 675 505 675 505 658 498 c 128,-1,78
 641 491 641 491 631.5 481.5 c 128,-1,79
 622 472 622 472 622 461 c 256,60,61
542 648 m 256,80,81
 542 665 542 665 557.5 680.5 c 128,-1,82
 573 696 573 696 601 707 c 128,-1,83
 629 718 629 718 666.5 724.5 c 128,-1,84
 704 731 704 731 747 731 c 0,85,86
 791 731 791 731 828.5 724.5 c 128,-1,87
 866 718 866 718 893.5 707 c 128,-1,88
 921 696 921 696 937 680.5 c 128,-1,89
 953 665 953 665 953 648 c 256,90,91
 953 631 953 631 937 616 c 128,-1,92
 921 601 921 601 893.5 589.5 c 128,-1,93
 866 578 866 578 828.5 571.5 c 128,-1,94
 791 565 791 565 747 565 c 0,95,96
 704 565 704 565 666.5 571.5 c 128,-1,97
 629 578 629 578 601 589.5 c 128,-1,98
 573 601 573 601 557.5 616 c 128,-1,99
 542 631 542 631 542 648 c 256,80,81
EndSplineSet
Validated: 1
EndChar

StartChar: uni008C
Encoding: 140 140 109
Width: 1495
Flags: W
LayerCount: 2
Fore
SplineSet
542 85 m 0,0,1
 542 103 542 103 557.5 118 c 128,-1,2
 573 133 573 133 601 144.5 c 128,-1,3
 629 156 629 156 666.5 162.5 c 128,-1,4
 704 169 704 169 747 169 c 0,5,6
 791 169 791 169 828.5 162.5 c 128,-1,7
 866 156 866 156 893.5 144.5 c 128,-1,8
 921 133 921 133 937 118 c 128,-1,9
 953 103 953 103 953 85 c 0,10,11
 953 68 953 68 937 53 c 128,-1,12
 921 38 921 38 893.5 27 c 128,-1,13
 866 16 866 16 828.5 9.5 c 128,-1,14
 791 3 791 3 747 3 c 0,15,16
 704 3 704 3 666.5 9.5 c 128,-1,17
 629 16 629 16 601 27 c 128,-1,18
 573 38 573 38 557.5 53 c 128,-1,19
 542 68 542 68 542 85 c 0,0,1
622 85 m 256,20,21
 622 74 622 74 631.5 64.5 c 128,-1,22
 641 55 641 55 658 48.5 c 128,-1,23
 675 42 675 42 698 38 c 128,-1,24
 721 34 721 34 747 34 c 0,25,26
 774 34 774 34 796.5 38 c 128,-1,27
 819 42 819 42 836 48.5 c 128,-1,28
 853 55 853 55 862.5 64.5 c 128,-1,29
 872 74 872 74 872 85 c 256,30,31
 872 96 872 96 862.5 105.5 c 128,-1,32
 853 115 853 115 836 122 c 128,-1,33
 819 129 819 129 796.5 133 c 128,-1,34
 774 137 774 137 747 137 c 0,35,36
 721 137 721 137 698 133 c 128,-1,37
 675 129 675 129 658 122 c 128,-1,38
 641 115 641 115 631.5 105.5 c 128,-1,39
 622 96 622 96 622 85 c 256,20,21
542 272 m 0,40,41
 542 290 542 290 557.5 305 c 128,-1,42
 573 320 573 320 601 331.5 c 128,-1,43
 629 343 629 343 666.5 349 c 128,-1,44
 704 355 704 355 747 355 c 0,45,46
 791 355 791 355 828.5 349 c 128,-1,47
 866 343 866 343 893.5 331.5 c 128,-1,48
 921 320 921 320 937 305 c 128,-1,49
 953 290 953 290 953 272 c 0,50,51
 953 255 953 255 937 240 c 128,-1,52
 921 225 921 225 893.5 214 c 128,-1,53
 866 203 866 203 828.5 196 c 128,-1,54
 791 189 791 189 747 189 c 0,55,56
 704 189 704 189 666.5 196 c 128,-1,57
 629 203 629 203 601 214 c 128,-1,58
 573 225 573 225 557.5 240 c 128,-1,59
 542 255 542 255 542 272 c 0,40,41
622 272 m 256,60,61
 622 261 622 261 631.5 251.5 c 128,-1,62
 641 242 641 242 658 235 c 128,-1,63
 675 228 675 228 698 224 c 128,-1,64
 721 220 721 220 747 220 c 0,65,66
 774 220 774 220 796.5 224 c 128,-1,67
 819 228 819 228 836 235 c 128,-1,68
 853 242 853 242 862.5 251.5 c 128,-1,69
 872 261 872 261 872 272 c 256,70,71
 872 283 872 283 862.5 292.5 c 128,-1,72
 853 302 853 302 836 309 c 128,-1,73
 819 316 819 316 796.5 320 c 128,-1,74
 774 324 774 324 747 324 c 0,75,76
 721 324 721 324 698 320 c 128,-1,77
 675 316 675 316 658 309 c 128,-1,78
 641 302 641 302 631.5 292.5 c 128,-1,79
 622 283 622 283 622 272 c 256,60,61
542 461 m 256,80,81
 542 478 542 478 557.5 493.5 c 128,-1,82
 573 509 573 509 601 520 c 128,-1,83
 629 531 629 531 666.5 537.5 c 128,-1,84
 704 544 704 544 747 544 c 0,85,86
 791 544 791 544 828.5 537.5 c 128,-1,87
 866 531 866 531 893.5 520 c 128,-1,88
 921 509 921 509 937 493.5 c 128,-1,89
 953 478 953 478 953 461 c 256,90,91
 953 444 953 444 937 429 c 128,-1,92
 921 414 921 414 893.5 402.5 c 128,-1,93
 866 391 866 391 828.5 384.5 c 128,-1,94
 791 378 791 378 747 378 c 0,95,96
 704 378 704 378 666.5 384.5 c 128,-1,97
 629 391 629 391 601 402.5 c 128,-1,98
 573 414 573 414 557.5 429 c 128,-1,99
 542 444 542 444 542 461 c 256,80,81
542 648 m 256,100,101
 542 665 542 665 557.5 680.5 c 128,-1,102
 573 696 573 696 601 707 c 128,-1,103
 629 718 629 718 666.5 724.5 c 128,-1,104
 704 731 704 731 747 731 c 0,105,106
 791 731 791 731 828.5 724.5 c 128,-1,107
 866 718 866 718 893.5 707 c 128,-1,108
 921 696 921 696 937 680.5 c 128,-1,109
 953 665 953 665 953 648 c 256,110,111
 953 631 953 631 937 616 c 128,-1,112
 921 601 921 601 893.5 589.5 c 128,-1,113
 866 578 866 578 828.5 571.5 c 128,-1,114
 791 565 791 565 747 565 c 0,115,116
 704 565 704 565 666.5 571.5 c 128,-1,117
 629 578 629 578 601 589.5 c 128,-1,118
 573 601 573 601 557.5 616 c 128,-1,119
 542 631 542 631 542 648 c 256,100,101
EndSplineSet
Validated: 1
EndChar

StartChar: uni008D
Encoding: 141 141 110
Width: 1495
Flags: W
LayerCount: 2
Fore
SplineSet
542 85 m 0,0,1
 542 103 542 103 557.5 118 c 128,-1,2
 573 133 573 133 601 144.5 c 128,-1,3
 629 156 629 156 666.5 162.5 c 128,-1,4
 704 169 704 169 747 169 c 0,5,6
 791 169 791 169 828.5 162.5 c 128,-1,7
 866 156 866 156 893.5 144.5 c 128,-1,8
 921 133 921 133 937 118 c 128,-1,9
 953 103 953 103 953 85 c 0,10,11
 953 68 953 68 937 53 c 128,-1,12
 921 38 921 38 893.5 27 c 128,-1,13
 866 16 866 16 828.5 9.5 c 128,-1,14
 791 3 791 3 747 3 c 0,15,16
 704 3 704 3 666.5 9.5 c 128,-1,17
 629 16 629 16 601 27 c 128,-1,18
 573 38 573 38 557.5 53 c 128,-1,19
 542 68 542 68 542 85 c 0,0,1
542 272 m 0,20,21
 542 290 542 290 557.5 305 c 128,-1,22
 573 320 573 320 601 331.5 c 128,-1,23
 629 343 629 343 666.5 349 c 128,-1,24
 704 355 704 355 747 355 c 0,25,26
 791 355 791 355 828.5 349 c 128,-1,27
 866 343 866 343 893.5 331.5 c 128,-1,28
 921 320 921 320 937 305 c 128,-1,29
 953 290 953 290 953 272 c 0,30,31
 953 255 953 255 937 240 c 128,-1,32
 921 225 921 225 893.5 214 c 128,-1,33
 866 203 866 203 828.5 196 c 128,-1,34
 791 189 791 189 747 189 c 0,35,36
 704 189 704 189 666.5 196 c 128,-1,37
 629 203 629 203 601 214 c 128,-1,38
 573 225 573 225 557.5 240 c 128,-1,39
 542 255 542 255 542 272 c 0,20,21
622 272 m 256,40,41
 622 261 622 261 631.5 251.5 c 128,-1,42
 641 242 641 242 658 235 c 128,-1,43
 675 228 675 228 698 224 c 128,-1,44
 721 220 721 220 747 220 c 0,45,46
 774 220 774 220 796.5 224 c 128,-1,47
 819 228 819 228 836 235 c 128,-1,48
 853 242 853 242 862.5 251.5 c 128,-1,49
 872 261 872 261 872 272 c 256,50,51
 872 283 872 283 862.5 292.5 c 128,-1,52
 853 302 853 302 836 309 c 128,-1,53
 819 316 819 316 796.5 320 c 128,-1,54
 774 324 774 324 747 324 c 0,55,56
 721 324 721 324 698 320 c 128,-1,57
 675 316 675 316 658 309 c 128,-1,58
 641 302 641 302 631.5 292.5 c 128,-1,59
 622 283 622 283 622 272 c 256,40,41
542 461 m 256,60,61
 542 478 542 478 557.5 493.5 c 128,-1,62
 573 509 573 509 601 520 c 128,-1,63
 629 531 629 531 666.5 537.5 c 128,-1,64
 704 544 704 544 747 544 c 0,65,66
 791 544 791 544 828.5 537.5 c 128,-1,67
 866 531 866 531 893.5 520 c 128,-1,68
 921 509 921 509 937 493.5 c 128,-1,69
 953 478 953 478 953 461 c 256,70,71
 953 444 953 444 937 429 c 128,-1,72
 921 414 921 414 893.5 402.5 c 128,-1,73
 866 391 866 391 828.5 384.5 c 128,-1,74
 791 378 791 378 747 378 c 0,75,76
 704 378 704 378 666.5 384.5 c 128,-1,77
 629 391 629 391 601 402.5 c 128,-1,78
 573 414 573 414 557.5 429 c 128,-1,79
 542 444 542 444 542 461 c 256,60,61
542 648 m 256,80,81
 542 665 542 665 557.5 680.5 c 128,-1,82
 573 696 573 696 601 707 c 128,-1,83
 629 718 629 718 666.5 724.5 c 128,-1,84
 704 731 704 731 747 731 c 0,85,86
 791 731 791 731 828.5 724.5 c 128,-1,87
 866 718 866 718 893.5 707 c 128,-1,88
 921 696 921 696 937 680.5 c 128,-1,89
 953 665 953 665 953 648 c 256,90,91
 953 631 953 631 937 616 c 128,-1,92
 921 601 921 601 893.5 589.5 c 128,-1,93
 866 578 866 578 828.5 571.5 c 128,-1,94
 791 565 791 565 747 565 c 0,95,96
 704 565 704 565 666.5 571.5 c 128,-1,97
 629 578 629 578 601 589.5 c 128,-1,98
 573 601 573 601 557.5 616 c 128,-1,99
 542 631 542 631 542 648 c 256,80,81
EndSplineSet
Validated: 1
EndChar

StartChar: uni008E
Encoding: 142 142 111
Width: 1495
Flags: W
LayerCount: 2
Fore
SplineSet
542 85 m 0,0,1
 542 103 542 103 557.5 118 c 128,-1,2
 573 133 573 133 601 144.5 c 128,-1,3
 629 156 629 156 666.5 162.5 c 128,-1,4
 704 169 704 169 747 169 c 0,5,6
 791 169 791 169 828.5 162.5 c 128,-1,7
 866 156 866 156 893.5 144.5 c 128,-1,8
 921 133 921 133 937 118 c 128,-1,9
 953 103 953 103 953 85 c 0,10,11
 953 68 953 68 937 53 c 128,-1,12
 921 38 921 38 893.5 27 c 128,-1,13
 866 16 866 16 828.5 9.5 c 128,-1,14
 791 3 791 3 747 3 c 0,15,16
 704 3 704 3 666.5 9.5 c 128,-1,17
 629 16 629 16 601 27 c 128,-1,18
 573 38 573 38 557.5 53 c 128,-1,19
 542 68 542 68 542 85 c 0,0,1
622 85 m 256,20,21
 622 74 622 74 631.5 64.5 c 128,-1,22
 641 55 641 55 658 48.5 c 128,-1,23
 675 42 675 42 698 38 c 128,-1,24
 721 34 721 34 747 34 c 0,25,26
 774 34 774 34 796.5 38 c 128,-1,27
 819 42 819 42 836 48.5 c 128,-1,28
 853 55 853 55 862.5 64.5 c 128,-1,29
 872 74 872 74 872 85 c 256,30,31
 872 96 872 96 862.5 105.5 c 128,-1,32
 853 115 853 115 836 122 c 128,-1,33
 819 129 819 129 796.5 133 c 128,-1,34
 774 137 774 137 747 137 c 0,35,36
 721 137 721 137 698 133 c 128,-1,37
 675 129 675 129 658 122 c 128,-1,38
 641 115 641 115 631.5 105.5 c 128,-1,39
 622 96 622 96 622 85 c 256,20,21
542 272 m 0,40,41
 542 290 542 290 557.5 305 c 128,-1,42
 573 320 573 320 601 331.5 c 128,-1,43
 629 343 629 343 666.5 349 c 128,-1,44
 704 355 704 355 747 355 c 0,45,46
 791 355 791 355 828.5 349 c 128,-1,47
 866 343 866 343 893.5 331.5 c 128,-1,48
 921 320 921 320 937 305 c 128,-1,49
 953 290 953 290 953 272 c 0,50,51
 953 255 953 255 937 240 c 128,-1,52
 921 225 921 225 893.5 214 c 128,-1,53
 866 203 866 203 828.5 196 c 128,-1,54
 791 189 791 189 747 189 c 0,55,56
 704 189 704 189 666.5 196 c 128,-1,57
 629 203 629 203 601 214 c 128,-1,58
 573 225 573 225 557.5 240 c 128,-1,59
 542 255 542 255 542 272 c 0,40,41
542 461 m 256,60,61
 542 478 542 478 557.5 493.5 c 128,-1,62
 573 509 573 509 601 520 c 128,-1,63
 629 531 629 531 666.5 537.5 c 128,-1,64
 704 544 704 544 747 544 c 0,65,66
 791 544 791 544 828.5 537.5 c 128,-1,67
 866 531 866 531 893.5 520 c 128,-1,68
 921 509 921 509 937 493.5 c 128,-1,69
 953 478 953 478 953 461 c 256,70,71
 953 444 953 444 937 429 c 128,-1,72
 921 414 921 414 893.5 402.5 c 128,-1,73
 866 391 866 391 828.5 384.5 c 128,-1,74
 791 378 791 378 747 378 c 0,75,76
 704 378 704 378 666.5 384.5 c 128,-1,77
 629 391 629 391 601 402.5 c 128,-1,78
 573 414 573 414 557.5 429 c 128,-1,79
 542 444 542 444 542 461 c 256,60,61
542 648 m 256,80,81
 542 665 542 665 557.5 680.5 c 128,-1,82
 573 696 573 696 601 707 c 128,-1,83
 629 718 629 718 666.5 724.5 c 128,-1,84
 704 731 704 731 747 731 c 0,85,86
 791 731 791 731 828.5 724.5 c 128,-1,87
 866 718 866 718 893.5 707 c 128,-1,88
 921 696 921 696 937 680.5 c 128,-1,89
 953 665 953 665 953 648 c 256,90,91
 953 631 953 631 937 616 c 128,-1,92
 921 601 921 601 893.5 589.5 c 128,-1,93
 866 578 866 578 828.5 571.5 c 128,-1,94
 791 565 791 565 747 565 c 0,95,96
 704 565 704 565 666.5 571.5 c 128,-1,97
 629 578 629 578 601 589.5 c 128,-1,98
 573 601 573 601 557.5 616 c 128,-1,99
 542 631 542 631 542 648 c 256,80,81
EndSplineSet
Validated: 1
EndChar

StartChar: uni008F
Encoding: 143 143 112
Width: 1495
Flags: W
LayerCount: 2
Fore
SplineSet
542 85 m 0,0,1
 542 103 542 103 557.5 118 c 128,-1,2
 573 133 573 133 601 144.5 c 128,-1,3
 629 156 629 156 666.5 162.5 c 128,-1,4
 704 169 704 169 747 169 c 0,5,6
 791 169 791 169 828.5 162.5 c 128,-1,7
 866 156 866 156 893.5 144.5 c 128,-1,8
 921 133 921 133 937 118 c 128,-1,9
 953 103 953 103 953 85 c 0,10,11
 953 68 953 68 937 53 c 128,-1,12
 921 38 921 38 893.5 27 c 128,-1,13
 866 16 866 16 828.5 9.5 c 128,-1,14
 791 3 791 3 747 3 c 0,15,16
 704 3 704 3 666.5 9.5 c 128,-1,17
 629 16 629 16 601 27 c 128,-1,18
 573 38 573 38 557.5 53 c 128,-1,19
 542 68 542 68 542 85 c 0,0,1
542 272 m 0,20,21
 542 290 542 290 557.5 305 c 128,-1,22
 573 320 573 320 601 331.5 c 128,-1,23
 629 343 629 343 666.5 349 c 128,-1,24
 704 355 704 355 747 355 c 0,25,26
 791 355 791 355 828.5 349 c 128,-1,27
 866 343 866 343 893.5 331.5 c 128,-1,28
 921 320 921 320 937 305 c 128,-1,29
 953 290 953 290 953 272 c 0,30,31
 953 255 953 255 937 240 c 128,-1,32
 921 225 921 225 893.5 214 c 128,-1,33
 866 203 866 203 828.5 196 c 128,-1,34
 791 189 791 189 747 189 c 0,35,36
 704 189 704 189 666.5 196 c 128,-1,37
 629 203 629 203 601 214 c 128,-1,38
 573 225 573 225 557.5 240 c 128,-1,39
 542 255 542 255 542 272 c 0,20,21
542 461 m 256,40,41
 542 478 542 478 557.5 493.5 c 128,-1,42
 573 509 573 509 601 520 c 128,-1,43
 629 531 629 531 666.5 537.5 c 128,-1,44
 704 544 704 544 747 544 c 0,45,46
 791 544 791 544 828.5 537.5 c 128,-1,47
 866 531 866 531 893.5 520 c 128,-1,48
 921 509 921 509 937 493.5 c 128,-1,49
 953 478 953 478 953 461 c 256,50,51
 953 444 953 444 937 429 c 128,-1,52
 921 414 921 414 893.5 402.5 c 128,-1,53
 866 391 866 391 828.5 384.5 c 128,-1,54
 791 378 791 378 747 378 c 0,55,56
 704 378 704 378 666.5 384.5 c 128,-1,57
 629 391 629 391 601 402.5 c 128,-1,58
 573 414 573 414 557.5 429 c 128,-1,59
 542 444 542 444 542 461 c 256,40,41
542 648 m 256,60,61
 542 665 542 665 557.5 680.5 c 128,-1,62
 573 696 573 696 601 707 c 128,-1,63
 629 718 629 718 666.5 724.5 c 128,-1,64
 704 731 704 731 747 731 c 0,65,66
 791 731 791 731 828.5 724.5 c 128,-1,67
 866 718 866 718 893.5 707 c 128,-1,68
 921 696 921 696 937 680.5 c 128,-1,69
 953 665 953 665 953 648 c 256,70,71
 953 631 953 631 937 616 c 128,-1,72
 921 601 921 601 893.5 589.5 c 128,-1,73
 866 578 866 578 828.5 571.5 c 128,-1,74
 791 565 791 565 747 565 c 0,75,76
 704 565 704 565 666.5 571.5 c 128,-1,77
 629 578 629 578 601 589.5 c 128,-1,78
 573 601 573 601 557.5 616 c 128,-1,79
 542 631 542 631 542 648 c 256,60,61
EndSplineSet
Validated: 1
EndChar

StartChar: uni0090
Encoding: 144 144 113
Width: 1495
Flags: W
LayerCount: 2
Fore
SplineSet
747 -12 m 0,0,1
 670 -12 670 -12 617 30 c 128,-1,2
 564 72 564 72 537.5 154.5 c 128,-1,3
 511 237 511 237 511 357 c 0,4,5
 511 482 511 482 536.5 563.5 c 128,-1,6
 562 645 562 645 614.5 685 c 128,-1,7
 667 725 667 725 747 725 c 0,8,9
 824 725 824 725 877 683 c 128,-1,10
 930 641 930 641 957 559.5 c 128,-1,11
 984 478 984 478 984 357 c 0,12,13
 984 264 984 264 969.5 194.5 c 128,-1,14
 955 125 955 125 925.5 79.5 c 128,-1,15
 896 34 896 34 851.5 11 c 128,-1,16
 807 -12 807 -12 747 -12 c 0,0,1
747 63 m 0,17,18
 797 63 797 63 827 89.5 c 128,-1,19
 857 116 857 116 872 159 c 128,-1,20
 887 202 887 202 891.5 254 c 128,-1,21
 896 306 896 306 896 357 c 0,22,23
 896 407 896 407 891 458 c 128,-1,24
 886 509 886 509 870.5 553 c 128,-1,25
 855 597 855 597 825.5 623.5 c 128,-1,26
 796 650 796 650 747 650 c 0,27,28
 696 650 696 650 666.5 623.5 c 128,-1,29
 637 597 637 597 622.5 553.5 c 128,-1,30
 608 510 608 510 603.5 458.5 c 128,-1,31
 599 407 599 407 599 357 c 0,32,33
 599 299 599 299 604.5 246 c 128,-1,34
 610 193 610 193 625.5 151.5 c 128,-1,35
 641 110 641 110 670 86.5 c 128,-1,36
 699 63 699 63 747 63 c 0,17,18
EndSplineSet
Validated: 1
EndChar

StartChar: uni0091
Encoding: 145 145 114
Width: 1495
Flags: W
LayerCount: 2
Fore
SplineSet
880.5 0 m 1,0,-1
 794.5 0 l 1,1,-1
 794.5 499 l 2,2,3
 794.5 540 794.5 540 795.5 570.5 c 128,-1,4
 796.5 601 796.5 601 797.5 622 c 1,5,6
 790.5 615 790.5 615 781 606 c 128,-1,7
 771.5 597 771.5 597 759.5 587 c 2,8,-1
 660.5 505 l 1,9,-1
 614.5 564 l 1,10,-1
 807.5 714 l 1,11,-1
 880.5 714 l 1,12,-1
 880.5 0 l 1,0,-1
EndSplineSet
Validated: 524289
EndChar

StartChar: uni0092
Encoding: 146 146 115
Width: 1495
Flags: W
LayerCount: 2
Fore
SplineSet
511.5 0 m 1,0,-1
 511.5 73 l 1,1,-1
 698.5 262 l 2,2,3
 751.5 316 751.5 316 788 358 c 128,-1,4
 824.5 400 824.5 400 844 440.5 c 128,-1,5
 863.5 481 863.5 481 863.5 529 c 0,6,7
 863.5 567 863.5 567 848 594 c 128,-1,8
 832.5 621 832.5 621 804 635.5 c 128,-1,9
 775.5 650 775.5 650 737.5 650 c 0,10,11
 684.5 650 684.5 650 647.5 632.5 c 128,-1,12
 610.5 615 610.5 615 566.5 582 c 1,13,-1
 519.5 641 l 1,14,15
 553.5 669 553.5 669 588.5 687.5 c 128,-1,16
 623.5 706 623.5 706 661 715.5 c 128,-1,17
 698.5 725 698.5 725 737.5 725 c 0,18,19
 800.5 725 800.5 725 849 703.5 c 128,-1,20
 897.5 682 897.5 682 925.5 639.5 c 128,-1,21
 953.5 597 953.5 597 953.5 534 c 0,22,23
 953.5 478 953.5 478 930 428.5 c 128,-1,24
 906.5 379 906.5 379 865.5 331 c 128,-1,25
 824.5 283 824.5 283 771.5 231 c 2,26,-1
 622.5 84 l 1,27,-1
 622.5 80 l 1,28,-1
 983.5 80 l 1,29,-1
 983.5 0 l 1,30,-1
 511.5 0 l 1,0,-1
EndSplineSet
Validated: 524289
EndChar

StartChar: uni0093
Encoding: 147 147 116
Width: 1495
Flags: W
LayerCount: 2
Fore
SplineSet
709 -12 m 0,0,1
 650 -12 650 -12 600.5 -2 c 128,-1,2
 551 8 551 8 512 27 c 1,3,-1
 512 109 l 1,4,5
 558 87 558 87 610 74.5 c 128,-1,6
 662 62 662 62 710 62 c 0,7,8
 800 62 800 62 845.5 98 c 128,-1,9
 891 134 891 134 891 204 c 0,10,11
 891 246 891 246 868.5 274.5 c 128,-1,12
 846 303 846 303 802 317 c 128,-1,13
 758 331 758 331 691 331 c 2,14,-1
 622 331 l 1,15,-1
 622 406 l 1,16,-1
 692 406 l 2,17,18
 749 406 749 406 789 422.5 c 128,-1,19
 829 439 829 439 850 469.5 c 128,-1,20
 871 500 871 500 871 541 c 0,21,22
 871 592 871 592 836 621.5 c 128,-1,23
 801 651 801 651 740 651 c 0,24,25
 687 651 687 651 647.5 636.5 c 128,-1,26
 608 622 608 622 561 591 c 1,27,-1
 517 651 l 1,28,29
 565 687 565 687 620.5 706 c 128,-1,30
 676 725 676 725 739 725 c 0,31,32
 800 725 800 725 850 706.5 c 128,-1,33
 900 688 900 688 930.5 648.5 c 128,-1,34
 961 609 961 609 961 547 c 0,35,36
 961 502 961 502 944 467 c 128,-1,37
 927 432 927 432 894 409 c 128,-1,38
 861 386 861 386 813 376 c 1,39,-1
 813 372 l 1,40,41
 896 362 896 362 939.5 318 c 128,-1,42
 983 274 983 274 983 202 c 0,43,44
 983 125 983 125 946 78 c 128,-1,45
 909 31 909 31 846.5 9.5 c 128,-1,46
 784 -12 784 -12 709 -12 c 0,0,1
EndSplineSet
Validated: 1
EndChar

StartChar: uni0094
Encoding: 148 148 117
Width: 1495
Flags: W
LayerCount: 2
Fore
SplineSet
824.5 0 m 1,0,-1
 824.5 162 l 1,1,-1
 481.5 162 l 1,2,-1
 481.5 237 l 1,3,-1
 817.5 718 l 1,4,-1
 909.5 718 l 1,5,-1
 909.5 241 l 1,6,-1
 1013.5 241 l 1,7,-1
 1013.5 162 l 1,8,-1
 909.5 162 l 1,9,-1
 909.5 0 l 1,10,-1
 824.5 0 l 1,0,-1
567.5 241 m 1,11,-1
 824.5 241 l 1,12,-1
 824.5 466 l 2,13,14
 824.5 486 824.5 486 825 510.5 c 128,-1,15
 825.5 535 825.5 535 826.5 563.5 c 128,-1,16
 827.5 592 827.5 592 829.5 624 c 1,17,-1
 825.5 624 l 1,18,19
 817.5 605 817.5 605 807 585.5 c 128,-1,20
 796.5 566 796.5 566 782.5 546 c 2,21,-1
 567.5 241 l 1,11,-1
EndSplineSet
Validated: 524289
EndChar

StartChar: uni0095
Encoding: 149 149 118
Width: 1495
Flags: W
LayerCount: 2
Fore
SplineSet
707 -12 m 0,0,1
 649 -12 649 -12 601 -2 c 128,-1,2
 553 8 553 8 521 27 c 1,3,-1
 521 110 l 1,4,5
 562 87 562 87 613.5 75 c 128,-1,6
 665 63 665 63 708 63 c 0,7,8
 764 63 764 63 803 81 c 128,-1,9
 842 99 842 99 863 134 c 128,-1,10
 884 169 884 169 884 218 c 0,11,12
 884 291 884 291 839 327.5 c 128,-1,13
 794 364 794 364 705 364 c 0,14,15
 678 364 678 364 648 360.5 c 128,-1,16
 618 357 618 357 583 349 c 1,17,-1
 539 377 l 1,18,-1
 565 714 l 1,19,-1
 924 714 l 1,20,-1
 924 634 l 1,21,-1
 641 634 l 1,22,-1
 624 427 l 1,23,24
 654 433 654 433 681.5 435.5 c 128,-1,25
 709 438 709 438 733 438 c 0,26,27
 802 438 802 438 856.5 414.5 c 128,-1,28
 911 391 911 391 942.5 344 c 128,-1,29
 974 297 974 297 974 227 c 0,30,31
 974 148 974 148 940.5 94.5 c 128,-1,32
 907 41 907 41 847 14.5 c 128,-1,33
 787 -12 787 -12 707 -12 c 0,0,1
EndSplineSet
Validated: 1
EndChar

StartChar: uni0096
Encoding: 150 150 119
Width: 1495
Flags: W
LayerCount: 2
Fore
SplineSet
755.5 -12 m 0,0,1
 691.5 -12 691.5 -12 645 13.5 c 128,-1,2
 598.5 39 598.5 39 569.5 83.5 c 128,-1,3
 540.5 128 540.5 128 526.5 185 c 128,-1,4
 512.5 242 512.5 242 512.5 305 c 0,5,6
 512.5 389 512.5 389 525.5 456 c 128,-1,7
 538.5 523 538.5 523 564.5 573.5 c 128,-1,8
 590.5 624 590.5 624 630 657.5 c 128,-1,9
 669.5 691 669.5 691 722 708 c 128,-1,10
 774.5 725 774.5 725 839.5 725 c 0,11,12
 865.5 725 865.5 725 887.5 723 c 128,-1,13
 909.5 721 909.5 721 927.5 716 c 1,14,-1
 927.5 641 l 1,15,16
 909.5 647 909.5 647 888 650 c 128,-1,17
 866.5 653 866.5 653 841.5 653 c 0,18,19
 764.5 653 764.5 653 712.5 622 c 128,-1,20
 660.5 591 660.5 591 632.5 527 c 128,-1,21
 604.5 463 604.5 463 600.5 363 c 1,22,-1
 606.5 363 l 1,23,24
 624.5 391 624.5 391 650 409.5 c 128,-1,25
 675.5 428 675.5 428 707 437.5 c 128,-1,26
 738.5 447 738.5 447 775.5 447 c 0,27,28
 841.5 447 841.5 447 887.5 419.5 c 128,-1,29
 933.5 392 933.5 392 958 343 c 128,-1,30
 982.5 294 982.5 294 982.5 229 c 0,31,32
 982.5 158 982.5 158 956 103.5 c 128,-1,33
 929.5 49 929.5 49 878.5 18.5 c 128,-1,34
 827.5 -12 827.5 -12 755.5 -12 c 0,0,1
754.5 62 m 0,35,36
 822.5 62 822.5 62 859 106 c 128,-1,37
 895.5 150 895.5 150 895.5 229 c 0,38,39
 895.5 300 895.5 300 860.5 339 c 128,-1,40
 825.5 378 825.5 378 757.5 378 c 0,41,42
 711.5 378 711.5 378 676.5 359 c 128,-1,43
 641.5 340 641.5 340 621.5 310 c 128,-1,44
 601.5 280 601.5 280 601.5 247 c 0,45,46
 601.5 212 601.5 212 612 179 c 128,-1,47
 622.5 146 622.5 146 642 119.5 c 128,-1,48
 661.5 93 661.5 93 690 77.5 c 128,-1,49
 718.5 62 718.5 62 754.5 62 c 0,35,36
EndSplineSet
Validated: 524289
EndChar

StartChar: uni0097
Encoding: 151 151 120
Width: 1495
Flags: W
LayerCount: 2
Fore
SplineSet
601 0 m 1,0,-1
 894 634 l 1,1,-1
 508 634 l 1,2,-1
 508 714 l 1,3,-1
 987 714 l 1,4,-1
 987 646 l 1,5,-1
 697 0 l 1,6,-1
 601 0 l 1,0,-1
EndSplineSet
Validated: 1
EndChar

StartChar: uni0098
Encoding: 152 152 121
Width: 1495
Flags: W
LayerCount: 2
Fore
SplineSet
750.5 -12 m 0,0,1
 683.5 -12 683.5 -12 629.5 7.5 c 128,-1,2
 575.5 27 575.5 27 543.5 69.5 c 128,-1,3
 511.5 112 511.5 112 511.5 181 c 0,4,5
 511.5 222 511.5 222 528 257 c 128,-1,6
 544.5 292 544.5 292 577.5 321.5 c 128,-1,7
 610.5 351 610.5 351 659.5 373 c 1,8,9
 616.5 398 616.5 398 588.5 425.5 c 128,-1,10
 560.5 453 560.5 453 547.5 485.5 c 128,-1,11
 534.5 518 534.5 518 534.5 555 c 0,12,13
 534.5 614 534.5 614 564.5 651.5 c 128,-1,14
 594.5 689 594.5 689 643.5 707 c 128,-1,15
 692.5 725 692.5 725 747.5 725 c 0,16,17
 803.5 725 803.5 725 852.5 707 c 128,-1,18
 901.5 689 901.5 689 931.5 651.5 c 128,-1,19
 961.5 614 961.5 614 961.5 554 c 0,20,21
 961.5 518 961.5 518 947 487 c 128,-1,22
 932.5 456 932.5 456 902.5 429 c 128,-1,23
 872.5 402 872.5 402 825.5 378 c 1,24,25
 869.5 356 869.5 356 905 329.5 c 128,-1,26
 940.5 303 940.5 303 962 268 c 128,-1,27
 983.5 233 983.5 233 983.5 184 c 0,28,29
 983.5 119 983.5 119 951.5 75 c 128,-1,30
 919.5 31 919.5 31 867 9.5 c 128,-1,31
 814.5 -12 814.5 -12 750.5 -12 c 0,0,1
748.5 59 m 0,32,33
 810.5 59 810.5 59 854 89 c 128,-1,34
 897.5 119 897.5 119 897.5 183 c 0,35,36
 897.5 214 897.5 214 883 239.5 c 128,-1,37
 868.5 265 868.5 265 836.5 287.5 c 128,-1,38
 804.5 310 804.5 310 751.5 330 c 2,39,-1
 732.5 337 l 1,40,41
 685.5 317 685.5 317 655.5 293.5 c 128,-1,42
 625.5 270 625.5 270 611.5 242.5 c 128,-1,43
 597.5 215 597.5 215 597.5 180 c 0,44,45
 597.5 125 597.5 125 636.5 92 c 128,-1,46
 675.5 59 675.5 59 748.5 59 c 0,32,33
751.5 412 m 1,47,48
 795.5 430 795.5 430 822.5 451 c 128,-1,49
 849.5 472 849.5 472 862.5 496.5 c 128,-1,50
 875.5 521 875.5 521 875.5 551 c 0,51,52
 875.5 605 875.5 605 837 629.5 c 128,-1,53
 798.5 654 798.5 654 746.5 654 c 0,54,55
 688.5 654 688.5 654 654.5 626 c 128,-1,56
 620.5 598 620.5 598 620.5 551 c 0,57,58
 620.5 513 620.5 513 637.5 488.5 c 128,-1,59
 654.5 464 654.5 464 684 447 c 128,-1,60
 713.5 430 713.5 430 751.5 412 c 1,47,48
EndSplineSet
Validated: 524289
EndChar

StartChar: uni0099
Encoding: 153 153 122
Width: 1495
Flags: W
LayerCount: 2
Fore
SplineSet
654.5 -12 m 0,0,1
 637.5 -12 637.5 -12 609.5 -9 c 128,-1,2
 581.5 -6 581.5 -6 564.5 -2 c 1,3,-1
 564.5 73 l 1,4,5
 584.5 66 584.5 66 606.5 63 c 128,-1,6
 628.5 60 628.5 60 652.5 60 c 0,7,8
 711.5 60 711.5 60 755.5 77.5 c 128,-1,9
 799.5 95 799.5 95 829 130.5 c 128,-1,10
 858.5 166 858.5 166 874.5 220.5 c 128,-1,11
 890.5 275 890.5 275 893.5 350 c 1,12,-1
 887.5 350 l 1,13,14
 869.5 323 869.5 323 844.5 304.5 c 128,-1,15
 819.5 286 819.5 286 788 276.5 c 128,-1,16
 756.5 267 756.5 267 717.5 267 c 0,17,18
 652.5 267 652.5 267 606.5 294 c 128,-1,19
 560.5 321 560.5 321 536.5 370 c 128,-1,20
 512.5 419 512.5 419 512.5 483 c 0,21,22
 512.5 555 512.5 555 539.5 609.5 c 128,-1,23
 566.5 664 566.5 664 618 694.5 c 128,-1,24
 669.5 725 669.5 725 740.5 725 c 0,25,26
 803.5 725 803.5 725 849.5 699.5 c 128,-1,27
 895.5 674 895.5 674 925 630 c 128,-1,28
 954.5 586 954.5 586 968.5 530.5 c 128,-1,29
 982.5 475 982.5 475 982.5 415 c 0,30,31
 982.5 329 982.5 329 969.5 260 c 128,-1,32
 956.5 191 956.5 191 930 140 c 128,-1,33
 903.5 89 903.5 89 864.5 55.5 c 128,-1,34
 825.5 22 825.5 22 773 5 c 128,-1,35
 720.5 -12 720.5 -12 654.5 -12 c 0,0,1
736.5 337 m 0,36,37
 781.5 337 781.5 337 817 355.5 c 128,-1,38
 852.5 374 852.5 374 873 403.5 c 128,-1,39
 893.5 433 893.5 433 893.5 467 c 256,40,41
 893.5 501 893.5 501 883.5 534 c 128,-1,42
 873.5 567 873.5 567 853.5 593.5 c 128,-1,43
 833.5 620 833.5 620 805 635.5 c 128,-1,44
 776.5 651 776.5 651 740.5 651 c 0,45,46
 673.5 651 673.5 651 636.5 607 c 128,-1,47
 599.5 563 599.5 563 599.5 484 c 0,48,49
 599.5 413 599.5 413 634.5 375 c 128,-1,50
 669.5 337 669.5 337 736.5 337 c 0,36,37
EndSplineSet
Validated: 524289
EndChar

StartChar: uni009A
Encoding: 154 154 123
Width: 1495
Flags: W
LayerCount: 2
Fore
SplineSet
798 723 m 0,0,1
 853 723 853 723 897 711 c 128,-1,2
 941 699 941 699 975 682 c 1,3,-1
 944 612 l 1,4,5
 914 626 914 626 877.5 638 c 128,-1,6
 841 650 841 650 800 650 c 0,7,8
 743 650 743 650 713 620.5 c 128,-1,9
 683 591 683 591 683 525 c 2,10,-1
 683 386 l 1,11,-1
 887 386 l 1,12,-1
 887 320 l 1,13,-1
 683 320 l 1,14,-1
 683 216 l 2,15,16
 683 176 683 176 673.5 149.5 c 128,-1,17
 664 123 664 123 648.5 107 c 128,-1,18
 633 91 633 91 615 80 c 1,19,-1
 999 80 l 1,20,-1
 999 0 l 1,21,-1
 496 0 l 1,22,-1
 496 74 l 1,23,24
 525 81 525 81 547 97.5 c 128,-1,25
 569 114 569 114 582 142.5 c 128,-1,26
 595 171 595 171 595 215 c 2,27,-1
 595 320 l 1,28,-1
 499 320 l 1,29,-1
 499 386 l 1,30,-1
 595 386 l 1,31,-1
 595 534 l 2,32,33
 595 594 595 594 620 636 c 128,-1,34
 645 678 645 678 691 700.5 c 128,-1,35
 737 723 737 723 798 723 c 0,0,1
EndSplineSet
Validated: 1
EndChar

StartChar: uni009B
Encoding: 155 155 124
Width: 1495
Flags: W
LayerCount: 2
Fore
SplineSet
697 -8 m 4,0,1
 642 -8 642 -8 598 4 c 132,-1,2
 554 16 554 16 520 33 c 5,3,-1
 551 103 l 5,4,5
 581 89 581 89 617.5 77 c 132,-1,6
 654 65 654 65 695 65 c 4,7,8
 752 65 752 65 782 94.5 c 132,-1,9
 812 124 812 124 812 190 c 6,10,-1
 812 329 l 5,11,-1
 608 329 l 5,12,-1
 608 395 l 5,13,-1
 812 395 l 5,14,-1
 812 499 l 6,15,16
 812 539 812 539 821.5 565.5 c 132,-1,17
 831 592 831 592 846.5 608 c 132,-1,18
 862 624 862 624 880 635 c 5,19,-1
 496 635 l 5,20,-1
 496 715 l 5,21,-1
 999 715 l 5,22,-1
 999 641 l 5,23,24
 970 634 970 634 948 617.5 c 132,-1,25
 926 601 926 601 913 572.5 c 132,-1,26
 900 544 900 544 900 500 c 6,27,-1
 900 395 l 5,28,-1
 996 395 l 5,29,-1
 996 329 l 5,30,-1
 900 329 l 5,31,-1
 900 181 l 6,32,33
 900 121 900 121 875 79 c 132,-1,34
 850 37 850 37 804 14.5 c 132,-1,35
 758 -8 758 -8 697 -8 c 4,0,1
EndSplineSet
Validated: 1
EndChar

StartChar: uni009C
Encoding: 156 156 125
Width: 1495
Flags: W
LayerCount: 2
Fore
SplineSet
934 617 m 0,0,1
 934 583 934 583 920 557.5 c 128,-1,2
 906 532 906 532 885 512.5 c 128,-1,3
 864 493 864 493 843 477 c 128,-1,4
 822 461 822 461 808 445.5 c 128,-1,5
 794 430 794 430 794 412 c 0,6,7
 794 399 794 399 800.5 388 c 128,-1,8
 807 377 807 377 826 362.5 c 128,-1,9
 845 348 845 348 882 323 c 0,10,11
 918 299 918 299 944 275 c 128,-1,12
 970 251 970 251 984 222 c 128,-1,13
 998 193 998 193 998 153 c 0,14,15
 998 96 998 96 974.5 60 c 128,-1,16
 951 24 951 24 909 7 c 128,-1,17
 867 -10 867 -10 812 -10 c 0,18,19
 765 -10 765 -10 729 -1 c 128,-1,20
 693 8 693 8 667 24 c 1,21,-1
 667 103 l 1,22,23
 684 93 684 93 707 83 c 128,-1,24
 730 73 730 73 756.5 67 c 128,-1,25
 783 61 783 61 809 61 c 0,26,27
 864 61 864 61 888 84 c 128,-1,28
 912 107 912 107 912 147 c 0,29,30
 912 171 912 171 903.5 189.5 c 128,-1,31
 895 208 895 208 874.5 226 c 128,-1,32
 854 244 854 244 818 267 c 0,33,34
 776 294 776 294 752.5 315.5 c 128,-1,35
 729 337 729 337 719 359 c 128,-1,36
 709 381 709 381 709 407 c 0,37,38
 709 438 709 438 722.5 460 c 128,-1,39
 736 482 736 482 756.5 498.5 c 128,-1,40
 777 515 777 515 797.5 531 c 128,-1,41
 818 547 818 547 831.5 566 c 128,-1,42
 845 585 845 585 845 612 c 0,43,44
 845 654 845 654 809.5 673 c 128,-1,45
 774 692 774 692 718 692 c 0,46,47
 683 692 683 692 652.5 682.5 c 128,-1,48
 622 673 622 673 603.5 650 c 128,-1,49
 585 627 585 627 585 584 c 2,50,-1
 585 0 l 1,51,-1
 497 0 l 1,52,-1
 497 584 l 2,53,54
 497 651 497 651 526 690.5 c 128,-1,55
 555 730 555 730 605 747.5 c 128,-1,56
 655 765 655 765 718 765 c 0,57,58
 783 765 783 765 831.5 748.5 c 128,-1,59
 880 732 880 732 907 699.5 c 128,-1,60
 934 667 934 667 934 617 c 0,0,1
EndSplineSet
Validated: 1
EndChar

StartChar: uni009D
Encoding: 157 157 126
Width: 1495
Flags: W
LayerCount: 2
Fore
SplineSet
603.5 -10 m 0,0,1
 541.5 -10 541.5 -10 499 24 c 128,-1,2
 456.5 58 456.5 58 434.5 119 c 128,-1,3
 412.5 180 412.5 180 412.5 260 c 0,4,5
 412.5 322 412.5 322 424 467 c 128,-1,6
 435.5 612 435.5 612 454.5 652 c 5,7,-1
 340.5 652 l 5,8,-1
 340.5 725 l 5,9,-1
 1154.5 725 l 5,10,-1
 1154.5 652 l 5,11,-1
 1040.5 652 l 5,12,13
 1060.5 612 1060.5 612 1071.5 467 c 128,-1,14
 1082.5 322 1082.5 322 1082.5 260 c 0,15,16
 1082.5 180 1082.5 180 1060.5 119 c 128,-1,17
 1038.5 58 1038.5 58 996 24 c 128,-1,18
 953.5 -10 953.5 -10 891.5 -10 c 0,19,20
 836.5 -10 836.5 -10 801.5 15.5 c 128,-1,21
 766.5 41 766.5 41 749.5 100 c 1,22,-1
 744.5 100 l 1,23,24
 734.5 61 734.5 61 715.5 36.5 c 128,-1,25
 696.5 12 696.5 12 668.5 1 c 128,-1,26
 640.5 -10 640.5 -10 603.5 -10 c 0,0,1
609.5 63 m 0,27,28
 642.5 63 642.5 63 664 80 c 128,-1,29
 685.5 97 685.5 97 695.5 126.5 c 128,-1,30
 705.5 156 705.5 156 705.5 193 c 2,31,-1
 705.5 344 l 1,32,-1
 789.5 344 l 1,33,-1
 789.5 193 l 2,34,35
 789.5 152 789.5 152 801 122.5 c 128,-1,36
 812.5 93 812.5 93 833.5 78 c 128,-1,37
 854.5 63 854.5 63 884.5 63 c 0,38,39
 918.5 63 918.5 63 943 85 c 128,-1,40
 967.5 107 967.5 107 981 151 c 128,-1,41
 994.5 195 994.5 195 994.5 259 c 0,42,43
 994.5 322 994.5 322 983.5 467 c 128,-1,44
 972.5 612 972.5 612 952.5 652 c 5,45,-1
 543.5 652 l 5,46,47
 524.5 612 524.5 612 512.5 467 c 128,-1,48
 500.5 322 500.5 322 500.5 259 c 0,49,50
 500.5 162 500.5 162 530.5 112.5 c 128,-1,51
 560.5 63 560.5 63 609.5 63 c 0,27,28
EndSplineSet
Validated: 524289
EndChar

StartChar: uni009E
Encoding: 158 158 127
Width: 1495
Flags: W
LayerCount: 2
Fore
SplineSet
947 0 m 1,0,-1
 548 0 l 1,1,-1
 548 714 l 1,2,-1
 947 714 l 1,3,-1
 947 635 l 1,4,-1
 638 635 l 1,5,-1
 638 412 l 1,6,-1
 929 412 l 1,7,-1
 929 334 l 1,8,-1
 638 334 l 1,9,-1
 638 79 l 1,10,-1
 947 79 l 1,11,-1
 947 0 l 1,0,-1
EndSplineSet
Validated: 1
EndChar

StartChar: uni009F
Encoding: 159 159 128
Width: 1495
Flags: W
LayerCount: 2
Fore
SplineSet
638 0 m 1,0,-1
 548 0 l 1,1,-1
 548 714 l 1,2,-1
 947 714 l 1,3,-1
 947 635 l 1,4,-1
 638 635 l 1,5,-1
 638 382 l 1,6,-1
 928 382 l 1,7,-1
 928 303 l 1,8,-1
 638 303 l 1,9,-1
 638 0 l 1,0,-1
EndSplineSet
Validated: 1
EndChar

